<svg height="256" viewBox="0 0 256 256" width="256" xmlns="http://www.w3.org/2000/svg"><path d="m9.702 80.75h263.096c1.768 0 3.202 1.343 3.202 3v89.5c0 1.657-1.434 3-3.202 3h-263.096c-1.768 0-3.202-1.343-3.202-3v-89.5c0-1.657 1.434-3 3.202-3z" fill="none" stroke="#888" stroke-width="2"/><g fill="#888"><path d="m38.744 121.404v-13.968l-4.032.48v35.472h3.552l.288-2.64c1.728 2.208 3.984 3.168 6.864 3.168 6.528 0 10.032-5.52 10.032-13.2 0-7.92-2.736-13.152-9.456-13.152-2.928 0-5.376 1.392-7.248 3.84zm5.76 19.248c-2.352 0-4.416-1.2-5.76-3.264v-12.528c1.392-2.016 3.552-4.032 6.336-4.032 3.936 0 6 3.312 6 9.888 0 6.72-2.4 9.936-6.576 9.936z"/><path d="m74.984 140.46c-4.368 0-7.536-2.832-7.536-9.6 0-6.672 3.12-9.888 7.488-9.888 2.256 0 4.368.768 6.528 2.208l1.968-2.64c-2.352-1.968-5.184-2.976-8.448-2.976-7.536 0-11.904 5.712-11.904 13.296 0 7.92 4.32 13.056 11.904 13.056 2.928 0 6.336-1.152 8.496-3.024l-1.92-2.64c-1.92 1.296-4.032 2.208-6.576 2.208z"/><path d="m105.464 140.124v-29.808h-3.552l-9.84 6.144 1.776 2.832 7.536-4.56v25.392h-8.112v3.264h19.056v-3.264z"/><path d="m129.464 117.564c-6.24 0-9.648 5.616-9.648 13.2 0 7.968 2.544 13.152 9.312 13.152 2.784 0 5.28-1.104 7.152-3.696v12.864l4.032.48v-35.472h-3.456l-.336 2.784c-1.68-2.112-4.032-3.312-7.056-3.312zm1.008 3.264c2.4 0 4.464 1.2 5.808 3.264v12.576c-1.392 2.112-3.504 3.888-6.288 3.888-3.936 0-5.808-3.216-5.808-9.792 0-6.672 2.112-9.936 6.288-9.936z"/><path d="m155.24 139.692c0 2.4 1.824 4.224 4.224 4.224 2.448 0 4.224-1.824 4.224-4.224 0-2.352-1.776-4.224-4.224-4.224-2.4 0-4.224 1.872-4.224 4.224z"/><path d="m184.04 139.692c0 2.4 1.824 4.224 4.224 4.224 2.448 0 4.224-1.824 4.224-4.224 0-2.352-1.776-4.224-4.224-4.224-2.4 0-4.224 1.872-4.224 4.224z"/><path d="m212.84 139.692c0 2.4 1.824 4.224 4.224 4.224 2.448 0 4.224-1.824 4.224-4.224 0-2.352-1.776-4.224-4.224-4.224-2.4 0-4.224 1.872-4.224 4.224z"/></g></svg>
