<svg height="256" viewBox="0 0 256 256" width="256" xmlns="http://www.w3.org/2000/svg"><path d="m69.539 48h169.059c1.825 0 3.304.302 3.304.675v7.65c0 .373-1.479.675-3.304.675h-169.059c-1.824 0-3.304-.302-3.304-.675v-7.65c0-.373 1.48-.675 3.304-.675z" fill="none" stroke="#888" stroke-width="2"/><g fill="#888"><path d="m28.662 65.272v-29.808h-3.552l-9.84 6.144 1.776 2.832 7.536-4.56v25.392h-8.112v3.264h19.056v-3.264z"/><path d="m25.062 111.2c-4.464 0-7.488 1.584-10.08 4.752l2.784 2.16c2.112-2.448 3.888-3.504 7.104-3.504 3.696 0 5.952 2.256 5.952 5.952 0 5.376-2.688 9.024-15.168 20.976v3.264h19.68l.48-3.456h-15.552c10.896-9.936 14.784-14.832 14.784-20.928 0-5.232-3.744-9.216-9.984-9.216z"/><path d="m25.014 186.936c-3.408 0-6.576 1.152-9.408 3.84l2.208 2.448c2.208-2.016 4.176-3.024 7.008-3.024 3.504 0 6.24 1.968 6.24 5.568 0 3.984-3.072 5.76-6.24 5.76h-1.968l-.48 3.216h2.736c3.936 0 6.864 1.536 6.864 6.288 0 4.128-2.736 6.72-7.344 6.72-2.688 0-5.472-1.056-7.344-3.264l-2.688 2.208c2.496 3.024 6.432 4.368 10.128 4.368 6.864 0 11.472-4.32 11.472-10.032 0-5.136-3.648-7.824-7.488-8.112 3.456-.672 6.432-3.696 6.432-7.68 0-4.512-3.888-8.304-10.128-8.304z"/></g><path d="m69.539 124h169.059c1.825 0 3.304.302 3.304.675v7.65c0 .373-1.479.675-3.304.675h-169.059c-1.824 0-3.304-.302-3.304-.675v-7.65c0-.373 1.48-.675 3.304-.675z" fill="none" stroke="#888" stroke-width="2"/><path d="m69.539 200h169.059c1.825 0 3.304.302 3.304.675v7.65c0 .373-1.479.675-3.304.675h-169.059c-1.824 0-3.304-.302-3.304-.675v-7.65c0-.373 1.48-.675 3.304-.675z" fill="none" stroke="#888" stroke-width="2"/></svg>
