<svg height="256" viewBox="0 0 256 256" width="256" xmlns="http://www.w3.org/2000/svg"><g fill="none" stroke="#888" stroke-width="2"><path d="m128.083 238.248c-14.766 0-26.736-11.97-26.736-26.736s11.97-26.736 26.736-26.736 26.737 11.97 26.737 26.736-11.971 26.736-26.737 26.736z"/><path d="m74.554 127.419h-55.623c-1.16 0-2.102-.94-2.102-2.1v-28.324c0-1.159.942-2.099 2.102-2.099h55.623c1.162 0 2.099.94 2.099 2.099v28.324c0 1.16-.937 2.1-2.099 2.1z"/><path d="m16.82 116.68h-10.167v-11.044h10.167z"/><path d="m182.142 89.818 34.993-15.191"/><path d="m183.199 89.887 29.14 6.411c1.584.348 2.873 1.914 2.881 3.497l.127 25.319c.008 1.583-1.269 2.584-2.852 2.235l-29.141-6.411c-1.583-.348-2.873-1.913-2.881-3.496l-.126-25.319c-.008-1.583 1.269-2.584 2.852-2.236z"/><path d="m218.199 74.696 29.14 6.411c1.584.348 2.873 1.914 2.881 3.497l.127 25.319c.008 1.583-1.385 2.278-2.698 2.696"/><path d="m216.597 75.297c0-.059.019-.95 1.602-.601"/><path d="m214.985 97.69 34.515-14.928"/><path d="m214.567 126.95 34.933-15.167"/><path d="m192.489 149.05-31.387 35.031" stroke-linecap="round"/><path d="m195.63 149.05c1.735 0 3.141-1.406 3.141-3.141s-1.406-3.141-3.141-3.141-3.141 1.406-3.141 3.141 1.406 3.141 3.141 3.141z"/><path d="m157.961 190.363c1.734 0 3.141-1.406 3.141-3.141 0-1.734-1.407-3.141-3.141-3.141-1.735 0-3.141 1.407-3.141 3.141 0 1.735 1.406 3.141 3.141 3.141z"/><path d="m63.678 149.05 31.387 35.031" stroke-linecap="round"/><path d="m60.537 149.05c-1.735 0-3.141-1.406-3.141-3.141s1.406-3.141 3.141-3.141c1.734 0 3.141 1.406 3.141 3.141s-1.407 3.141-3.141 3.141z"/><path d="m98.206 190.363c-1.735 0-3.141-1.406-3.141-3.141 0-1.734 1.406-3.141 3.141-3.141s3.141 1.407 3.141 3.141c0 1.735-1.406 3.141-3.141 3.141z"/><path d="m128.083 62.193v105.796" stroke-linecap="round"/><path d="m128.083 174.271c1.735 0 3.141-1.407 3.141-3.141 0-1.735-1.406-3.141-3.141-3.141-1.734 0-3.141 1.406-3.141 3.141 0 1.734 1.407 3.141 3.141 3.141z"/><path d="m128.083 62.193c1.735 0 3.141-1.406 3.141-3.141 0-1.734-1.406-3.141-3.141-3.141-1.734 0-3.141 1.407-3.141 3.141 0 1.735 1.407 3.141 3.141 3.141z"/><g stroke-miterlimit="10"><path d="m109.071 37.426h-13.253v-14.848h13.253"/><path d="m133.922 41.252h-22.28c-1.415 0-2.571-1.156-2.571-2.571v-17.358c0-1.415 1.156-2.571 2.571-2.571h17.717"/><path d="m126.301 18.752h22.281c1.415 0 2.571 1.156 2.571 2.571v17.358c0 1.415-1.156 2.571-2.571 2.571h-17.717"/></g><path d="m141.502 22.062h4.685c1.136 0 2.057.922 2.057 2.058 0 1.136-.921 2.057-2.057 2.057h-4.685c-1.137 0-2.058-.921-2.058-2.057 0-1.136.921-2.058 2.058-2.058z"/></g></svg>
