<svg height="256" viewBox="0 0 256 256" width="256" xmlns="http://www.w3.org/2000/svg"><path d="m153.603 26.842c-6.964 0-10.834 2.79-13.541 6.664-2.708 3.873-4.21 8.471-4.21 13.863 4.611 0 8.909-1.101 12.576-5.323s5.195-8.68 5.175-15.204zm-3.057 27.002c-2.557 0-5.721.606-9.331 1.797-3.61 1.192-6.162 1.783-7.817 1.783-1.203 0-3.761-.594-7.521-1.636-3.761-1.042-7.069-1.649-9.627-1.649-6.167 0-11.276 2.535-15.337 7.75-4.062 5.214-6.168 11.917-6.168 20.111 0 8.641 2.699 17.738 7.964 26.975 5.415 9.237 10.832 13.85 16.397 13.85 1.805 0 4.218-.586 7.227-1.784 2.858-1.191 5.563-1.796 7.669-1.796 2.406 0 5.116.599 8.124 1.796 3.31 1.192 5.867 1.784 7.522 1.784 4.663 0 9.321-3.577 13.984-10.579 3.008-4.47 5.269-8.937 6.623-13.407-2.858-.894-5.715-3.277-8.272-6.704-2.558-3.575-3.768-7.599-3.768-11.919 0-4.023 1.203-7.74 3.459-11.168 1.203-1.787 3.31-3.875 6.167-6.409-1.955-2.234-3.756-4.022-5.711-5.362-3.46-2.384-7.222-3.433-11.584-3.433z" fill="none" stroke="#888" stroke-linecap="round" stroke-width="2"/><g fill="#888"><path d="m63.809 188.724h-30.701c-.942 0-1.705-.764-1.705-1.706v-23.878c0-.856.637-1.579 1.487-1.692l30.7-4.005c.488-.067.981.081 1.351.407s.579.796.573 1.289v27.879c0 .942-.763 1.706-1.705 1.706zm-30.809-1.724h30.938l-.063-27.875-30.937 3.937z"/><path d="m111.565 188.724h-40.934c-.942 0-1.706-.764-1.706-1.706v-28.769c0-.857.638-1.58 1.488-1.692l40.934-5.339c.485-.061.974.088 1.342.411s.58.788.582 1.278v34.111c0 .942-.764 1.706-1.706 1.706zm-40.878-1.912 40.813.063v-33.813l-40.875 5.126z"/><path d="m63.809 223.429c-.073.001-.146-.004-.219-.014l-30.7-4.004c-.851-.11-1.488-.835-1.487-1.692v-23.878c0-.942.763-1.706 1.705-1.706h30.701c.942 0 1.705.764 1.705 1.706v27.882c.003.454-.176.889-.496 1.209-.321.321-.756.5-1.209.497zm-30.871-5.617 30.874 3.938v-27.75l-30.812-.312z"/><path d="m111.565 229.658c-.073 0-.146-.004-.218-.014l-40.934-5.338c-.85-.112-1.486-.835-1.488-1.692v-28.773c0-.942.764-1.706 1.706-1.706h40.934c.942 0 1.706.764 1.706 1.706v34.111c.002.453-.177.889-.497 1.209-.32.321-.756.5-1.209.497zm-41.003-6.97 41 5.062.063-33.75-40.937-.188z"/></g><path d="m197.945 182.054c-6.751 0-12.224-6.154-12.224-13.744 0-7.591 5.473-13.745 12.224-13.745 6.752 0 12.225 6.154 12.225 13.745 0 7.59-5.473 13.744-12.225 13.744z" fill="none" stroke="#888" stroke-width="2"/><path d="m197.945 229.051c-13.432 0-24.321-4.078-24.321-18.875s10.889-34.709 24.321-34.709c13.433 0 24.322 21.432 24.322 36.229s-10.889 17.355-24.322 17.355z" fill="none" stroke="#888" stroke-width="2"/><path d="m196.527 229.051c-8.721 0-15.79-3.708-15.79-17.162 0-13.453 7.069-31.558 15.79-31.558 8.72 0 15.789 19.487 15.789 32.94 0 13.454-7.069 15.78-15.789 15.78z" fill="none" stroke="#888" stroke-width="2"/><path d="m186.671 176.607 9.39-5.687 13.159 6.32-13.451 8.121z" fill="#fff"/><path d="m186.671 176.607 9.39-5.687 13.159 6.32-13.451 8.121z" fill="none" stroke="#888" stroke-linecap="round" stroke-linejoin="round" stroke-width="2"/><path d="m182.984 228.931c-.15-.014-28.1 1.36-23.568-15.863 4.532-17.222 17.268-6.054 22.86.981 6.283 7.904 13.398 16.091.708 14.882z" fill="#fff"/><path d="m182.984 228.931c-.15-.014-28.1 1.36-23.568-15.863 4.532-17.222 17.268-6.054 22.86.981 6.283 7.904 13.398 16.091.708 14.882z" fill="none" stroke="#888" stroke-width="2"/><path d="m213.852 229.127c.131-.049 25.497-5.527 17.304-19.866-8.194-14.339-16.921-1.278-20.241 6.365-3.731 8.589-8.14 17.63 2.937 13.501z" fill="#fff"/><path d="m213.852 229.127c.131-.049 25.497-5.527 17.304-19.866-8.194-14.339-16.921-1.278-20.241 6.365-3.731 8.589-8.14 17.63 2.937 13.501z" fill="none" stroke="#888" stroke-width="2"/></svg>
