<svg height="256" viewBox="0 0 256 256" width="256" xmlns="http://www.w3.org/2000/svg"><path d="m207.667 106.699h143.666c1.657 0 3 1.343 3 3v37.602c0 1.657-1.343 3-3 3h-143.666c-1.657 0-3-1.343-3-3v-37.602c0-1.657 1.343-3 3-3z" fill="none" stroke="#888" stroke-width="2"/><path d="m65.864 70.862c-11.265 0-20.397-1.747-20.397-3.902s9.132-3.902 20.397-3.902 20.397 1.747 20.397 3.902-9.132 3.902-20.397 3.902z" fill="#fff"/><path d="m65.864 70.862c-11.265 0-20.397-1.747-20.397-3.902s9.132-3.902 20.397-3.902 20.397 1.747 20.397 3.902-9.132 3.902-20.397 3.902z" fill="none" stroke="#888" stroke-width="2"/><path d="m65.864 70.862c-11.265 0-20.397-1.747-20.397-3.902" fill="#fff"/><path d="m65.864 70.862c-11.265 0-20.397-1.747-20.397-3.902" fill="none" stroke="#888" stroke-width="2"/><path d="m86.261 66.96c0 2.155-9.132 3.902-20.397 3.902" fill="#fff"/><path d="m86.261 66.96c0 2.155-9.132 3.902-20.397 3.902" fill="none" stroke="#888" stroke-width="2"/><path d="m45.467 66.96v-3.902h40.794v3.902" fill="#fff"/><path d="m45.467 66.96v-3.902h40.794v3.902" fill="none" stroke="#888" stroke-width="2"/><path d="m65.864 66.634c-11.265 0-20.397-1.747-20.397-3.902s9.132-3.902 20.397-3.902 20.397 1.747 20.397 3.902-9.132 3.902-20.397 3.902z" fill="#fff"/><path d="m65.864 66.634c-11.265 0-20.397-1.747-20.397-3.902s9.132-3.902 20.397-3.902 20.397 1.747 20.397 3.902-9.132 3.902-20.397 3.902z" fill="none" stroke="#888" stroke-width="2"/><path d="m47.731 68.144c-10.881 2.916-20.154 3.592-20.712 1.51-.558-2.081 7.811-6.132 18.692-9.048 10.881-2.915 20.154-3.592 20.712-1.51.557 2.082-7.811 6.133-18.692 9.048z" fill="#fff"/><path d="m47.731 68.144c-10.881 2.916-20.154 3.592-20.712 1.51-.558-2.081 7.811-6.132 18.692-9.048 10.881-2.915 20.154-3.592 20.712-1.51.557 2.082-7.811 6.133-18.692 9.048z" fill="none" stroke="#888" stroke-width="2"/><path d="m47.731 68.144c-10.881 2.916-20.154 3.592-20.712 1.51" fill="#fff"/><path d="m47.731 68.144c-10.881 2.916-20.154 3.592-20.712 1.51" fill="none" stroke="#888" stroke-width="2"/><path d="m66.423 59.096c.557 2.082-7.811 6.133-18.692 9.048" fill="#fff"/><path d="m66.423 59.096c.557 2.082-7.811 6.133-18.692 9.048" fill="none" stroke="#888" stroke-width="2"/><path d="m27.019 69.654-1.01-3.769 39.404-10.558 1.01 3.769" fill="#fff"/><path d="m27.019 69.654-1.01-3.769 39.404-10.558 1.01 3.769" fill="none" stroke="#888" stroke-width="2"/><path d="m46.636 64.061c-10.881 2.915-20.154 3.591-20.711 1.51-.558-2.082 7.811-6.133 18.692-9.049 10.881-2.915 20.154-3.591 20.711-1.51.558 2.082-7.81 6.133-18.692 9.049z" fill="#fff"/><path d="m46.636 64.061c-10.881 2.915-20.154 3.591-20.711 1.51-.558-2.082 7.811-6.133 18.692-9.049 10.881-2.915 20.154-3.591 20.711-1.51.558 2.082-7.81 6.133-18.692 9.049z" fill="none" stroke="#888" stroke-width="2"/><path d="m55.464 101.833c-21.815 0-39.5-17.684-39.5-39.5 0-21.815 17.685-39.5 39.5-39.5s39.5 17.685 39.5 39.5c0 21.816-17.685 39.5-39.5 39.5z" fill="none" stroke="#888" stroke-width="2"/><path d="m64.658 203.411c-11.265 0-20.397-1.747-20.397-3.902s9.132-3.902 20.397-3.902 20.397 1.747 20.397 3.902-9.132 3.902-20.397 3.902z" fill="#fff"/><path d="m64.658 203.411c-11.265 0-20.397-1.747-20.397-3.902s9.132-3.902 20.397-3.902 20.397 1.747 20.397 3.902-9.132 3.902-20.397 3.902z" fill="none" stroke="#888" stroke-width="2"/><path d="m64.658 203.411c-11.265 0-20.397-1.747-20.397-3.902" fill="#fff"/><path d="m64.658 203.411c-11.265 0-20.397-1.747-20.397-3.902" fill="none" stroke="#888" stroke-width="2"/><path d="m85.055 199.509c0 2.155-9.132 3.902-20.397 3.902" fill="#fff"/><path d="m85.055 199.509c0 2.155-9.132 3.902-20.397 3.902" fill="none" stroke="#888" stroke-width="2"/><path d="m44.261 199.509v-3.902h40.794v3.902" fill="#fff"/><path d="m44.261 199.509v-3.902h40.794v3.902" fill="none" stroke="#888" stroke-width="2"/><path d="m64.658 199.183c-11.265 0-20.397-1.747-20.397-3.902s9.132-3.902 20.397-3.902 20.397 1.747 20.397 3.902-9.132 3.902-20.397 3.902z" fill="#fff"/><path d="m64.658 199.183c-11.265 0-20.397-1.747-20.397-3.902s9.132-3.902 20.397-3.902 20.397 1.747 20.397 3.902-9.132 3.902-20.397 3.902z" fill="none" stroke="#888" stroke-width="2"/><path d="m64.658 199.077c-11.265 0-20.397-1.747-20.397-3.902s9.132-3.902 20.397-3.902 20.397 1.747 20.397 3.902-9.132 3.902-20.397 3.902z" fill="#fff"/><path d="m64.658 199.077c-11.265 0-20.397-1.747-20.397-3.902s9.132-3.902 20.397-3.902 20.397 1.747 20.397 3.902-9.132 3.902-20.397 3.902z" fill="none" stroke="#888" stroke-width="2"/><path d="m64.658 199.077c-11.265 0-20.397-1.747-20.397-3.902" fill="#fff"/><path d="m64.658 199.077c-11.265 0-20.397-1.747-20.397-3.902" fill="none" stroke="#888" stroke-width="2"/><path d="m85.055 195.175c0 2.155-9.132 3.902-20.397 3.902" fill="#fff"/><path d="m85.055 195.175c0 2.155-9.132 3.902-20.397 3.902" fill="none" stroke="#888" stroke-width="2"/><path d="m44.261 195.175v-3.902h40.794v3.902" fill="#fff"/><path d="m44.261 195.175v-3.902h40.794v3.902" fill="none" stroke="#888" stroke-width="2"/><path d="m64.658 194.85c-11.265 0-20.397-1.747-20.397-3.902s9.132-3.902 20.397-3.902 20.397 1.747 20.397 3.902-9.132 3.902-20.397 3.902z" fill="#fff"/><path d="m64.658 194.85c-11.265 0-20.397-1.747-20.397-3.902s9.132-3.902 20.397-3.902 20.397 1.747 20.397 3.902-9.132 3.902-20.397 3.902z" fill="none" stroke="#888" stroke-width="2"/><path d="m39.954 196.043c-9.756 5.633-18.538 8.686-19.615 6.82-1.078-1.867 5.957-7.946 15.713-13.578 9.756-5.633 18.538-8.686 19.615-6.819 1.078 1.866-5.957 7.945-15.713 13.577z" fill="#fff"/><path d="m39.954 196.043c-9.756 5.633-18.538 8.686-19.615 6.82-1.078-1.867 5.957-7.946 15.713-13.578 9.756-5.633 18.538-8.686 19.615-6.819 1.078 1.866-5.957 7.945-15.713 13.577z" fill="none" stroke="#888" stroke-width="2"/><path d="m39.954 196.043c-9.756 5.633-18.538 8.686-19.615 6.82" fill="#fff"/><path d="m39.954 196.043c-9.756 5.633-18.538 8.686-19.615 6.82" fill="none" stroke="#888" stroke-width="2"/><path d="m55.667 182.466c1.078 1.866-5.957 7.945-15.713 13.577" fill="#fff"/><path d="m55.667 182.466c1.078 1.866-5.957 7.945-15.713 13.577" fill="none" stroke="#888" stroke-width="2"/><path d="m20.339 202.863-1.951-3.38 35.328-20.397 1.951 3.38" fill="#fff"/><path d="m20.339 202.863-1.951-3.38 35.328-20.397 1.951 3.38" fill="none" stroke="#888" stroke-width="2"/><path d="m37.84 192.382c-9.755 5.632-18.537 8.686-19.615 6.819-1.078-1.866 5.958-7.945 15.713-13.578 9.756-5.632 18.538-8.685 19.616-6.819 1.077 1.867-5.958 7.946-15.714 13.578z" fill="#fff"/><path d="m37.84 192.382c-9.755 5.632-18.537 8.686-19.615 6.819-1.078-1.866 5.958-7.945 15.713-13.578 9.756-5.632 18.538-8.685 19.616-6.819 1.077 1.867-5.958 7.946-15.714 13.578z" fill="none" stroke="#888" stroke-width="2"/><path d="m51.297 234.5c-24.116 0-43.666-19.55-43.666-43.667 0-24.116 19.55-43.666 43.666-43.666 24.117 0 43.667 19.55 43.667 43.666 0 24.117-19.55 43.667-43.667 43.667z" fill="none" stroke="#888" stroke-width="2"/><path d="m106.268 88.266 54.271 31.331" fill="none" stroke="#888" stroke-linecap="round" stroke-width="2"/><path d="m99.673 87.398c-.514-1.92.625-3.894 2.546-4.409 1.92-.514 3.894.625 4.409 2.546.514 1.92-.625 3.894-2.546 4.409-1.92.514-3.894-.625-4.409-2.546" fill="none" stroke="#888" stroke-width="2"/><path d="m185.082 144.519c-8.847 5.107-20.159 2.076-25.267-6.771-5.108-8.846-2.077-20.159 6.77-25.267 8.847-5.107 20.159-2.076 25.267 6.771 5.108 8.846 2.077 20.159-6.77 25.267z" fill="#fff"/><g fill="none" stroke="#888" stroke-width="2"><path d="m185.082 144.519c-8.847 5.107-20.159 2.076-25.267-6.771-5.108-8.846-2.077-20.159 6.77-25.267 8.847-5.107 20.159-2.076 25.267 6.771 5.108 8.846 2.077 20.159-6.77 25.267z"/><path d="m106.441 165.382 15.309-7.965" stroke-dasharray="4 4" stroke-linecap="round"/><path d="m102.164 170.477c-1.896-.599-2.948-2.621-2.35-4.517.599-1.896 2.621-2.948 4.517-2.35 1.896.599 2.948 2.621 2.35 4.517-.599 1.896-2.621 2.948-4.517 2.35"/><path d="m183.834 123-11 11-5-5" stroke-linecap="round" stroke-linejoin="round"/><path d="m140.724 145.583-11.833 11.834" stroke-linecap="round"/><path d="m128.891 145.583 11.833 11.834" stroke-linecap="round"/></g></svg>
