<svg height="256" viewBox="0 0 256 256" width="256" xmlns="http://www.w3.org/2000/svg"><path d="m123.5 17.25h10c1.657 0 3 1.162 3 2.596v219.904h96.38" fill="none" stroke="#888" stroke-linecap="round" stroke-linejoin="round" stroke-width="2"/><path d="m123.5 17.25c-1.657 0-3 1.162-3 2.596v219.904h-98" fill="none" stroke="#888" stroke-linecap="round" stroke-linejoin="round" stroke-width="2"/><path d="m63.519 49.531 134.693.006 34.668 21.723-34.67 22.922-134.693-.005c-2.91-.001-5.27-1.73-5.27-3.864l.001-36.918c.001-2.134 2.36-3.864 5.271-3.864" fill="#fff"/><path d="m63.519 49.531 134.693.006 34.668 21.723-34.67 22.922-134.693-.005c-2.91-.001-5.27-1.73-5.27-3.864l.001-36.918c.001-2.134 2.36-3.864 5.271-3.864" fill="none" stroke="#888" stroke-linecap="round" stroke-linejoin="round" stroke-width="2"/><path d="m193.481 113.515-134.693.006-34.668 21.723 34.67 22.922 134.693-.005c2.91 0 5.27-1.73 5.27-3.864l-.001-36.918c-.001-2.134-2.36-3.864-5.271-3.864" fill="#fff"/><path d="m193.481 113.515-134.693.006-34.668 21.723 34.67 22.922 134.693-.005c2.91 0 5.27-1.73 5.27-3.864l-.001-36.918c-.001-2.134-2.36-3.864-5.271-3.864" fill="none" stroke="#888" stroke-linecap="round" stroke-linejoin="round" stroke-width="2"/></svg>
