<svg height="256" viewBox="0 0 256 256" width="256" xmlns="http://www.w3.org/2000/svg"><path d="m198.492 108.7h-12.478c-10.294-39.869-49.414-65.204-90.006-58.291-40.592 6.914-69.119 43.771-65.635 84.8 3.485 41.028 37.819 72.547 78.996 72.516h89.123c27.345 0 49.512-22.167 49.512-49.512 0-27.346-22.167-49.513-49.512-49.513z" fill="none" stroke="#888" stroke-width="2"/><path d="m45.421 207.725c-20.117 0-36.425-16.308-36.425-36.425s16.308-36.425 36.425-36.425 36.425 16.308 36.425 36.425-16.308 36.425-36.425 36.425z" fill="#fff"/><g fill="none" stroke="#888" stroke-width="2"><path d="m45.421 207.725c-20.117 0-36.425-16.308-36.425-36.425s16.308-36.425 36.425-36.425 36.425 16.308 36.425 36.425-16.308 36.425-36.425 36.425z"/><path d="m32.406 169.441h26.03c2.053 0 3.718 1.665 3.718 3.719v13.015c0 2.053-1.665 3.718-3.718 3.718h-26.03c-2.054 0-3.719-1.665-3.719-3.718v-13.015c0-2.054 1.665-3.719 3.719-3.719z"/><path d="m36.124 169.441v-7.437c0-5.134 4.162-9.297 9.297-9.297 5.134 0 9.296 4.163 9.296 9.297v7.437"/></g><path d="m128.394 207.725c-20.117 0-36.425-16.308-36.425-36.425s16.308-36.425 36.425-36.425 36.425 16.308 36.425 36.425-16.308 36.425-36.425 36.425z" fill="#fff"/><path d="m128.394 207.725c-20.117 0-36.425-16.308-36.425-36.425s16.308-36.425 36.425-36.425 36.425 16.308 36.425 36.425-16.308 36.425-36.425 36.425z" fill="none" stroke="#888" stroke-width="2"/><path d="m138.434 181.34c-2.889 2.203-6.408 3.423-10.04 3.482-11.832 0-18.593-13.522-18.593-13.522 2.103-3.918 5.019-7.341 8.553-10.04m6.49-3.076c1.164-.272 2.355-.409 3.55-.406 11.832 0 18.593 13.522 18.593 13.522-1.026 1.92-2.25 3.727-3.651 5.392m-11.359-1.808c-1.264 1.356-3.168 1.915-4.964 1.456-1.797-.459-3.2-1.862-3.659-3.659-.458-1.796.1-3.7 1.457-4.964" fill="none" stroke="#888" stroke-width="2"/><path d="m109.801 152.707 37.186 37.186" fill="none" stroke="#888" stroke-width="2"/></svg>
