<svg height="256" viewBox="0 0 256 256" width="256" xmlns="http://www.w3.org/2000/svg"><g fill="none" stroke="#888" stroke-width="2"><path d="m106.75 31.833-20.833 25h18.75l-2.084 16.667 20.834-25h-18.75z" stroke-linejoin="round"/><path d="m104.667 89.167c-20.159 0-36.5-16.342-36.5-36.5 0-20.159 16.341-36.5 36.5-36.5 20.158 0 36.5 16.341 36.5 36.5 0 20.158-16.342 36.5-36.5 36.5z"/><path d="m86.106 154.605-29.395 35.274h26.456l-2.94 23.516 29.395-35.274h-26.455z" stroke-linejoin="round"/><path d="m83.167 235.5c-28.443 0-51.5-23.057-51.5-51.5s23.057-51.5 51.5-51.5c28.442 0 51.5 23.057 51.5 51.5s-23.058 51.5-51.5 51.5z"/><path d="m205.174 89.757-16.742 20.092h15.068l-1.674 13.394 16.743-20.092h-15.069z" stroke-linejoin="round"/><path d="m203.5 135.833c-16.2 0-29.333-13.133-29.333-29.333s13.133-29.333 29.333-29.333 29.333 13.133 29.333 29.333-13.133 29.333-29.333 29.333z"/><path d="m142.869 151.548 24.762-18.762"/><path d="m139.508 157.288c-1.969-.271-3.346-2.088-3.075-4.058.272-1.969 2.089-3.346 4.058-3.074 1.97.271 3.347 2.088 3.075 4.058-.271 1.969-2.088 3.346-4.058 3.074"/><path d="m170.992 127.045c1.969.272 3.346 2.088 3.075 4.058-.272 1.97-2.089 3.346-4.058 3.075-1.97-.272-3.346-2.089-3.075-4.058.272-1.97 2.088-3.346 4.058-3.075"/><path d="m91.291 119.851 4.001-17.035"/><path d="m92.365 126.415c-1.691 1.048-3.91.526-4.957-1.164s-.526-3.909 1.164-4.956 3.909-.526 4.957 1.164c1.047 1.69.526 3.909-1.164 4.956"/><path d="m94.219 96.251c1.69-1.047 3.909-.526 4.956 1.164s.526 3.909-1.164 4.957c-1.69 1.047-3.909.526-4.956-1.164s-.526-3.909 1.164-4.957"/><path d="m153.517 70.674 12.133 7.985"/><path d="m146.983 69.422c-.401-1.947.852-3.851 2.799-4.252 1.947-.402 3.851.851 4.253 2.798s-.851 3.852-2.799 4.253c-1.947.402-3.851-.851-4.253-2.799"/><path d="m172.183 79.911c.402 1.947-.851 3.851-2.799 4.253-1.947.401-3.851-.852-4.252-2.799-.402-1.947.851-3.851 2.798-4.253 1.948-.401 3.852.852 4.253 2.799"/></g></svg>
