<svg height="256" viewBox="0 0 256 256" width="256" xmlns="http://www.w3.org/2000/svg"><path d="m172.919 113.705h-9.323c-7.692-29.79-36.923-48.721-67.253-43.555-30.331 5.166-51.647 32.706-49.043 63.363 2.603 30.657 28.258 54.208 59.026 54.185h66.593c20.433 0 36.996-16.564 36.996-36.997 0-20.432-16.563-36.996-36.996-36.996z" fill="none" stroke="#888" stroke-width="2"/><path d="m79.539 186.037c-2.884 0-5.223-2.339-5.223-5.224 0-2.884 2.339-5.223 5.223-5.223 2.885 0 5.224 2.339 5.224 5.223 0 2.885-2.339 5.224-5.224 5.224z" fill="#fff"/><path d="m156.148 102.174c-2.885 0-5.224-2.339-5.224-5.224 0-2.884 2.339-5.223 5.224-5.223s5.223 2.339 5.223 5.223c0 2.885-2.338 5.224-5.223 5.224z" fill="#fff"/><path d="m210.477 38.833-163.954 179.334" fill="none" stroke="#888" stroke-linecap="round" stroke-width="2"/></svg>
