<svg height="256" viewBox="0 0 256 256" width="256" xmlns="http://www.w3.org/2000/svg"><path d="m207.912 111.712-138.823-83.157c-6.042-3.489-13.481-3.509-19.542-.054-6.062 3.454-9.834 9.866-9.911 16.843v166.312c.077 6.977 3.849 13.389 9.911 16.843 6.061 3.455 13.5 3.435 19.542-.054l138.823-83.157c5.868-3.559 9.452-9.925 9.452-16.788s-3.584-13.229-9.452-16.788z" fill="none" stroke="#888" stroke-width="2"/><path d="m111.778 174.022h33.444v37.245h-33.444z" fill="#fff"/><g fill="none" stroke-width="2"><path d="m111.778 174.022h33.444v37.245h-33.444z" stroke="#fff"/><path d="m97.622 135.822c-62.394 28.65 59.089 41.026 11.569 68.636" stroke="#888"/><path d="m124.49 102.466 16.914 36.358c1.112 2.391.076 5.231-2.315 6.344l-25.111 11.681c-2.391 1.113-5.231.076-6.344-2.315l-16.914-36.358c-1.112-2.391-.076-5.231 2.316-6.344l25.11-11.681c2.391-1.113 5.232-.076 6.344 2.315z" stroke="#888"/><path d="m129.455 111.787 13.351-6.048" stroke="#888" stroke-linecap="round"/><path d="m137.423 127.863 13.351-6.048" stroke="#888" stroke-linecap="round"/><path d="m142.188 189.62c-2.813 0-5.093-2.28-5.093-5.093s2.28-5.094 5.093-5.094 5.094 2.281 5.094 5.094-2.281 5.093-5.094 5.093z" stroke="#888"/></g></svg>
