<svg height="256" viewBox="0 0 256 256" width="256" xmlns="http://www.w3.org/2000/svg"><g fill="none" stroke="#777" stroke-width="2"><path d="m128.5 230.625c-56.402 0-102.125-45.723-102.125-102.125s45.723-102.125 102.125-102.125 102.125 45.723 102.125 102.125-45.723 102.125-102.125 102.125z"/><path d="m170.276 134.079c-3.095-4.398-7.656-7.493-12.787-8.796 3.828-1.629 7.086-4.235 9.529-7.575 2.28-3.502 3.421-7.574 3.258-11.728.163-3.746-.57-7.493-2.036-10.995-1.385-2.851-3.421-5.376-6.027-7.167-2.851-1.955-6.027-3.34-9.367-4.073-3.991-.814-8.063-1.303-12.135-1.221h-1.873v-18.407h-12.95v18.244h-8.878v-17.919l-12.787-.244v18h-.815-20.198v12.95h13.601l-.57 67.682-13.764-.245v12.95h20.035.734v17.348h12.949v-17.348h8.878v17.023h12.95v-17.023h3.258c4.072.082 8.145-.407 12.135-1.466 3.828-.896 7.412-2.443 10.67-4.642 3.095-2.036 5.701-4.887 7.574-8.063 1.955-3.747 2.933-7.901 2.851-12.136.163-5.375-1.303-10.669-4.235-15.149zm-53.103-35.755h19.221c1.792 0 3.584.163 5.294.489 1.629.326 3.095.977 4.48 1.792 1.303.814 2.362 1.954 3.095 3.257.814 1.711 1.221 3.503 1.14 5.376.244 3.258-1.059 6.434-3.584 8.47-2.687 1.792-5.864 2.688-9.04 2.525h-20.769zm35.429 55.384c-.733 1.547-1.955 2.769-3.339 3.746-1.466.896-3.095 1.548-4.806 1.873-1.873.408-3.828.571-5.782.571h-21.991l.163-25.575h22.316c3.828-.162 7.575.896 10.67 3.095 2.932 2.607 4.398 6.435 4.072 10.263.082 2.117-.326 4.153-1.303 6.027z" stroke-linecap="round" stroke-linejoin="round"/></g></svg>
