<svg height="256" viewBox="0 0 256 256" width="256" xmlns="http://www.w3.org/2000/svg"><g fill="none" stroke="#888" stroke-width="2"><path d="m107.643 64.002h-97.747v14.171h40.516v114.825h16.715v-114.825h40.516z" stroke-linejoin="round"/><path d="m232.932 102.701c-10.174 0-17.987 5.632-22.165 14.534v-13.626h-14.717v89.389h15.625v-47.965c0-17.623 8.539-28.524 20.894-28.524 3.452 0 7.267.545 11.628 1.817l2.907-13.082c-5.088-1.635-9.811-2.543-14.172-2.543z" stroke-linejoin="round"/><path d="m134.984 192.998c-21.806 0-39.484-17.677-39.484-39.483 0-18.405 12.592-33.868 29.631-38.245 3.15-.809 2.003-9.458 5.405-9.458 1.635 0 11.761 1.882 13.345 2.076 2.694.328 1.24 7.365 3.739 8.208 15.609 5.269 26.848 20.032 26.848 37.419 0 21.806-17.678 39.483-39.484 39.483z"/><path d="m134.984 116.376v73.94" stroke-linecap="round"/><path d="m135.379 169.162c-8.735 0-15.816-7.081-15.816-15.816s7.081-15.816 15.816-15.816"/><path d="m135.379 181.617c-15.614 0-28.271-12.657-28.271-28.271s12.657-28.271 28.271-28.271"/><g stroke-linejoin="round"><path d="m135.609 102.701s-1.065-14.161-15.384-17.604c0 0 25.205-11.477 15.384 17.604z"/><path d="m140.533 102.701s6.053-8.577 16.441-5.323c0 0-11.626-16.85-16.441 5.323z"/></g></g></svg>
