<svg height="256" viewBox="0 0 256 256" width="256" xmlns="http://www.w3.org/2000/svg"><g fill="none" stroke="#888" stroke-width="2"><path d="m128.5 235.909s85.928-42.963 85.928-107.409v-75.187l-85.928-32.222-85.928 32.222v75.187c0 64.446 85.928 107.409 85.928 107.409z" stroke-linejoin="round"/><g stroke-linecap="round"><path d="m170.623 117.148v3.875c-.011 18.655-12.29 35.081-30.18 40.371-17.889 5.289-37.126-1.818-47.28-17.468-10.153-15.65-8.804-36.114 3.316-50.295 12.121-14.181 32.125-18.7 49.165-11.108"/><path d="m116.882 108.402 12.637 12.637 42.123-42.165 8.046 8.047-50.169 51.128-20.684-21.6 7.915-7.949" stroke-linejoin="round"/></g></g></svg>
