<svg height="256" viewBox="0 0 256 256" width="256" xmlns="http://www.w3.org/2000/svg"><g fill="none" stroke="#888" stroke-width="3"><path d="m60.5 64.16h25c1.105 0 2 .895 2 2v4.4c0 1.104-.895 2-2 2h-25c-1.105 0-2-.896-2-2v-4.4c0-1.105.895-2 2-2z"/><path d="m60.5 77.76h136c1.105 0 2 .895 2 2v9.2c0 1.104-.895 2-2 2h-136c-1.105 0-2-.896-2-2v-9.2c0-1.105.895-2 2-2z"/><path d="m60.5 101.36h25c1.105 0 2 .895 2 2v4.4c0 1.104-.895 2-2 2h-25c-1.105 0-2-.896-2-2v-4.4c0-1.105.895-2 2-2z"/><path d="m60.5 114.96h136c1.105 0 2 .895 2 2v9.2c0 1.104-.895 2-2 2h-136c-1.105 0-2-.896-2-2v-9.2c0-1.105.895-2 2-2z"/><path d="m179.3 176.86c-8.279 8.279-21.702 8.279-29.981 0s-8.279-21.702 0-29.981c8.279-8.28 21.702-8.28 29.981 0 8.279 8.279 8.279 21.702 0 29.981z"/><path d="m179.3 176.86 15.981 15.98"/><path d="m13.18 24.433h230.64"/><path d="m28.496 17.7c-2.154 0-3.9-1.746-3.9-3.9s1.746-3.9 3.9-3.9 3.9 1.746 3.9 3.9-1.746 3.9-3.9 3.9z"/><path d="m44.035 17.7c-2.154 0-3.9-1.746-3.9-3.9s1.746-3.9 3.9-3.9 3.9 1.746 3.9 3.9-1.746 3.9-3.9 3.9z"/><path d="m15.453 3.333h226.094c1.255 0 2.273 1.117 2.273 2.495v245.344c0 1.378-1.018 2.495-2.273 2.495h-226.094c-1.255 0-2.273-1.117-2.273-2.495v-245.344c0-1.378 1.018-2.495 2.273-2.495z"/></g></svg>
