<svg height="256" viewBox="0 0 256 256" width="256" xmlns="http://www.w3.org/2000/svg"><g fill="none" stroke="#888" stroke-width="3"><path d="m143.905 170.316s21.6-25.6 53.8 6.6"/><path d="m166.205 182.916c-5.91 0-10.7-4.79-10.7-10.7 0-5.909 4.79-10.7 10.7-10.7 5.909 0 10.7 4.791 10.7 10.7 0 5.91-4.791 10.7-10.7 10.7z"/><path d="m158.705 174.492c0-4.75 2.015-8.6 4.5-8.6"/><path d="m13.18 24.433h230.64"/><path d="m28.496 17.7c-2.154 0-3.9-1.746-3.9-3.9s1.746-3.9 3.9-3.9 3.9 1.746 3.9 3.9-1.746 3.9-3.9 3.9z"/><path d="m44.035 17.7c-2.154 0-3.9-1.746-3.9-3.9s1.746-3.9 3.9-3.9 3.9 1.746 3.9 3.9-1.746 3.9-3.9 3.9z"/><path d="m68.967 92.233s-9.672-7.707-9.672-7.707 9.672-8.341 9.672-8.341"/><path d="m83.908 74.084-9.823 20.25"/><path d="m89.026 92.233s9.672-7.707 9.672-7.707-9.672-8.341-9.672-8.341"/><path d="m106.595 85.132h91.11"/><path d="m59.595 109.882h138.11"/><path d="m59.295 134.632h138.11"/><path d="m15.453 3.333h226.094c1.255 0 2.273 1.117 2.273 2.495v245.344c0 1.378-1.018 2.495-2.273 2.495h-226.094c-1.255 0-2.273-1.117-2.273-2.495v-245.344c0-1.378 1.018-2.495 2.273-2.495z"/></g></svg>
