<svg height="256" viewBox="0 0 256 256" width="256" xmlns="http://www.w3.org/2000/svg"><g fill="none" stroke="#888" stroke-width="3"><path d="m128.5 145.738c-9.52 0-17.238-7.718-17.238-17.238s7.718-17.238 17.238-17.238 17.238 7.718 17.238 17.238-7.718 17.238-17.238 17.238z"/><path d="m128.5 91.704c-2.558 0-4.632-2.074-4.632-4.633 0-2.558 2.074-4.632 4.632-4.632s4.632 2.074 4.632 4.632c0 2.559-2.074 4.633-4.632 4.633z"/><path d="m128.5 91.704v12.16"/><path d="m128.5 165.296c-2.558 0-4.632 2.074-4.632 4.633 0 2.558 2.074 4.632 4.632 4.632s4.632-2.074 4.632-4.632c0-2.559-2.074-4.633-4.632-4.633z"/><path d="m128.5 165.296v-12.16"/><path d="m91.704 128.5c0 2.558-2.074 4.632-4.633 4.632-2.558 0-4.632-2.074-4.632-4.632s2.074-4.632 4.632-4.632c2.559 0 4.633 2.074 4.633 4.632z"/><path d="m91.704 128.5h12.16"/><path d="m165.403 170.036c0 2.558 2.074 4.632 4.633 4.632 2.558 0 4.632-2.074 4.632-4.632s-2.074-4.632-4.632-4.632c-2.559 0-4.633 2.074-4.633 4.632z"/><path d="m166.84 166.681-20.84-20.84"/><path d="m86.964 165.403c-2.558 0-4.632 2.074-4.632 4.633 0 2.558 2.074 4.632 4.632 4.632s4.633-2.074 4.633-4.632c0-2.559-2.075-4.633-4.633-4.633z"/><path d="m90.24 166.76 20.84-20.84"/><path d="m170.036 91.597c2.558 0 4.632-2.075 4.632-4.633s-2.074-4.632-4.632-4.632c-2.559 0-4.633 2.074-4.633 4.632s2.074 4.633 4.633 4.633z"/><path d="m166.681 90.16-20.84 20.84"/><path d="m13.18 24.433h230.64"/><path d="m28.496 17.7c-2.154 0-3.9-1.746-3.9-3.9s1.746-3.9 3.9-3.9 3.9 1.746 3.9 3.9-1.746 3.9-3.9 3.9z"/><path d="m44.035 17.7c-2.154 0-3.9-1.746-3.9-3.9s1.746-3.9 3.9-3.9 3.9 1.746 3.9 3.9-1.746 3.9-3.9 3.9z"/><path d="m15.453 3.333h226.094c1.255 0 2.273 1.117 2.273 2.495v245.344c0 1.378-1.018 2.495-2.273 2.495h-226.094c-1.255 0-2.273-1.117-2.273-2.495v-245.344c0-1.378 1.018-2.495 2.273-2.495z"/></g></svg>
