<svg height="256" viewBox="0 0 256 256" width="256" xmlns="http://www.w3.org/2000/svg"><g fill="none" stroke="#888" stroke-width="2"><path d="m66.178 37.458h40.257c.399 0 .723.617.723 1.378v56.349c0 .761-.324 1.378-.723 1.378h-40.257c-.398 0-.722-.617-.722-1.378v-56.349c0-.761.324-1.378.722-1.378z"/><path d="m20.032 44.853 45.255-.02"/><path d="m65.29 89.223-45.258-.055c-.442 0-.8-.463-.8-1.034v-42.247c0-.571.358-1.034.8-1.034"/><path d="m37.225 50.812h7.138c.503 0 .911.618.911 1.379v10.339c0 .762-.408 1.379-.911 1.379h-7.138c-.504 0-.912-.617-.912-1.379v-10.339c0-.761.408-1.379.912-1.379z"/><path d="m37.225 70.112h7.138c.503 0 .911.617.911 1.379v10.339c0 .761-.408 1.378-.911 1.378h-7.138c-.504 0-.912-.617-.912-1.378v-10.339c0-.762.408-1.379.912-1.379z"/><path d="m231.215 219.542h-173.654c-3.62 0-6.56-2.933-6.56-6.553v-88.428c0-3.62 2.94-6.553 6.56-6.553h173.654c3.626 0 6.553 2.933 6.553 6.553v88.428c0 3.62-2.927 6.553-6.553 6.553z"/><path d="m50.972 186.016h-31.74v-34.479h31.74z"/></g></svg>
