<svg height="256" viewBox="0 0 256 256" width="256" xmlns="http://www.w3.org/2000/svg"><path d="m151.477 41.049c-1.745-2.466-4.313-4.229-7.241-4.972 2.149-.927 4.009-2.415 5.385-4.308 1.274-1.977 1.921-4.293 1.856-6.645.087-2.132-.313-4.255-1.169-6.209-.759-1.63-1.938-3.03-3.414-4.056-1.6-1.099-3.397-1.877-5.293-2.292-2.261-.475-4.564-.713-6.874-.71h-1.077v-10.357h-7.333v10.334h-5.041v-10.174l-7.24-.137v10.174h-.482-11.319v7.309h7.676l-.344 38.266-7.722-.068v7.332h11.32.412v9.83h7.31v-9.83h5.018v9.647h7.332v-9.624h1.833c2.318.024 4.629-.253 6.875-.825 2.162-.496 4.213-1.39 6.049-2.635 1.76-1.173 3.22-2.742 4.262-4.583 1.092-2.125 1.642-4.486 1.604-6.874.12-3.043-.713-6.047-2.383-8.593zm-30.04-20.21h10.861c1.007-.001 2.012.091 3.002.275.902.188 1.764.538 2.543 1.031.73.459 1.33 1.098 1.741 1.856.476.943.697 1.994.642 3.048.156 1.831-.598 3.621-2.016 4.789-1.504 1.015-3.298 1.514-5.11 1.421h-11.755zm20.049 31.324c-.436.858-1.093 1.585-1.902 2.108-.832.527-1.758.893-2.726 1.077-1.072.213-2.162.32-3.254.32h-12.419l.114-14.481h12.626c2.156-.102 4.285.519 6.049 1.764 1.653 1.46 2.506 3.625 2.291 5.82.03 1.178-.238 2.345-.779 3.392z" fill="none" stroke="#5E94BF" stroke-width="2"/><g fill="#5E94BF"><path d="m113.885 110.552c2.075-.702 3.357-2.38 3.357-4.73 0-3.539-2.533-5.492-6.316-5.492h-9.581v21.663h10.008c4.027 0 6.651-2.319 6.651-6.072 0-2.776-1.556-4.607-4.119-5.369zm-9.702-7.964h6.163c2.655 0 4.15 1.19 4.15 3.387 0 2.227-1.557 3.539-4.15 3.539h-6.163zm0 17.147v-7.963h6.316c2.959 0 4.698 1.556 4.698 3.997 0 2.471-1.647 3.966-4.729 3.966z"/><path d="m136.341 100.33h-16.415v2.38h6.804v19.283h2.807v-19.283h6.804z"/><path d="m147.661 99.842c-6.621 0-10.435 4.729-10.435 11.289 0 6.591 3.875 11.35 10.282 11.35 3.143 0 5.37-1.037 8.147-3.753l-1.709-1.891c-2.441 2.227-4.058 3.173-6.499 3.173-4.393 0-7.353-3.692-7.353-8.848 0-5.187 2.899-8.848 7.536-8.848 1.983 0 3.692.61 6.011 2.563l1.617-1.923c-2.593-2.227-4.79-3.112-7.597-3.112z"/></g><path d="m210.485 134.019-10.305 39.048-8.84 3.139-2.798 10.801 8.605-3.033-5.937 22.675 59.788.236 4.002-14.307-37.479-.104 4.838-17.838 11.064-4.106 3.007-10.566-11.272 3.871 7.872-29.685z" fill="none" stroke="#5E94BF" stroke-width="2"/><path d="m202.516 233.804h-2.715v20.729h12.408v-2.277h-9.693z" fill="#5E94BF"/><path d="m226.544 233.804h-15.707v2.278h6.511v18.451h2.685v-18.451h6.511z" fill="#5E94BF"/><path d="m237.375 233.337c-6.335 0-9.984 4.525-9.984 10.802 0 6.307 3.707 10.861 9.838 10.861 3.007 0 5.139-.993 7.795-3.591l-1.635-1.81c-2.335 2.131-3.883 3.036-6.218 3.036-4.204 0-7.036-3.532-7.036-8.466 0-4.964 2.773-8.467 7.211-8.467 1.898 0 3.533.584 5.751 2.452l1.548-1.839c-2.482-2.131-4.584-2.978-7.27-2.978z" fill="#5E94BF"/><path d="m50.192 171.106-22.271-37.087-22.271 37.087 22.271 13.064z" fill="none" stroke="#5E94BF" stroke-width="2"/><path d="m49.608 176.084-21.687 12.713-21.687-12.713 21.687 30.801z" fill="none" stroke="#5E94BF" stroke-width="2"/><path d="m15.932 233.337h-14.432v21.663h14.706v-2.349h-11.868v-7.628h10.8v-2.349h-10.8v-6.987h11.594z" fill="#5E94BF"/><path d="m34.94 233.337h-16.415v2.38h6.804v19.283h2.807v-19.283h6.804z" fill="#5E94BF"/><path d="m55.626 233.337h-2.837v9.245h-11.625v-9.245h-2.837v21.663h2.837v-10.069h11.625v10.069h2.837z" fill="#5E94BF"/></svg>
