<svg height="256" viewBox="0 0 256 256" width="256" xmlns="http://www.w3.org/2000/svg"><g fill="none" stroke="#888" stroke-width="2"><path d="m222.78 178.901h-172.401c-3.594 0-6.513-2.912-6.513-6.506v-87.79c0-3.594 2.919-6.506 6.513-6.506h172.401c3.6 0 6.506 2.912 6.506 6.506v87.79c0 3.594-2.906 6.506-6.506 6.506z"/><path d="m43.838 145.616h-31.513v-34.229h31.513z"/><path d="m229.002 125.267-3.087 3.799h-5.58v-3.087c0-.356-.119-.593-.356-.831-.238-.237-.475-.356-.831-.356h-7.124c-.356 0-.594.119-.831.356l-3.681 3.918h-12.348c-1.543 0-2.73 1.188-2.73 2.612v30.039c0 1.425 1.187 2.612 2.73 2.612h46.78c1.424-.119 2.731-1.187 2.731-2.612v-34.313c0-1.425-1.188-2.612-2.731-2.612h-11.992c-.356 0-.712.119-.95.475z"/></g></svg>
