<svg height="256" viewBox="0 0 256 256" width="256" xmlns="http://www.w3.org/2000/svg"><g fill="none" stroke="#888" stroke-width="2"><path d="m65.906 72.083h125.188c1.34 0 2.427 1.343 2.427 3v104.5c0 1.657-1.087 3-2.427 3h-125.188c-1.34 0-2.427-1.343-2.427-3v-104.5c0-1.657 1.087-3 2.427-3z"/><path d="m80.5 62.083v-23.133" stroke-linecap="round"/><path d="m77.954 32.804c1.406-1.405 3.686-1.405 5.092 0 1.405 1.406 1.405 3.686 0 5.092-1.406 1.405-3.686 1.405-5.092 0-1.405-1.406-1.405-3.686 0-5.092"/><path d="m112.5 62.083v-23.133" stroke-linecap="round"/><path d="m109.954 32.804c1.406-1.405 3.686-1.405 5.092 0 1.405 1.406 1.405 3.686 0 5.092-1.406 1.405-3.686 1.405-5.092 0-1.405-1.406-1.405-3.686 0-5.092"/><path d="m144.5 62.083v-23.133" stroke-linecap="round"/><path d="m141.954 32.804c1.406-1.405 3.686-1.405 5.092 0 1.405 1.406 1.405 3.686 0 5.092-1.406 1.405-3.686 1.405-5.092 0-1.405-1.406-1.405-3.686 0-5.092"/><path d="m176.5 62.083v-23.133" stroke-linecap="round"/><path d="m173.954 32.804c1.406-1.405 3.686-1.405 5.092 0 1.405 1.406 1.405 3.686 0 5.092-1.406 1.405-3.686 1.405-5.092 0-1.405-1.406-1.405-3.686 0-5.092"/><path d="m80.5 192.583v23.134" stroke-linecap="round"/><path d="m83.046 221.862c-1.406 1.406-3.686 1.406-5.092 0-1.405-1.406-1.405-3.685 0-5.091 1.406-1.406 3.686-1.406 5.092 0 1.405 1.406 1.405 3.685 0 5.091"/><path d="m112.5 192.583v23.134" stroke-linecap="round"/><path d="m115.046 221.862c-1.406 1.406-3.686 1.406-5.092 0-1.405-1.406-1.405-3.685 0-5.091 1.406-1.406 3.686-1.406 5.092 0 1.405 1.406 1.405 3.685 0 5.091"/><path d="m144.5 192.583v23.134" stroke-linecap="round"/><path d="m147.046 221.862c-1.406 1.406-3.686 1.406-5.092 0-1.405-1.406-1.405-3.685 0-5.091 1.406-1.406 3.686-1.406 5.092 0 1.405 1.406 1.405 3.685 0 5.091"/><path d="m176.5 192.583v23.134" stroke-linecap="round"/><path d="m179.046 221.862c-1.406 1.406-3.686 1.406-5.092 0-1.405-1.406-1.405-3.685 0-5.091 1.406-1.406 3.686-1.406 5.092 0 1.405 1.406 1.405 3.685 0 5.091"/><path d="m53.479 159.333h-23.133" stroke-linecap="round"/><path d="m24.2 161.879c-1.406-1.406-1.406-3.685 0-5.091s3.686-1.406 5.091 0c1.406 1.406 1.406 3.685 0 5.091-1.405 1.406-3.685 1.406-5.091 0"/><path d="m53.479 127.333h-23.133" stroke-linecap="round"/><path d="m24.2 129.879c-1.406-1.406-1.406-3.685 0-5.091s3.686-1.406 5.091 0c1.406 1.406 1.406 3.685 0 5.091-1.405 1.406-3.685 1.406-5.091 0"/><path d="m53.479 95.333h-23.133" stroke-linecap="round"/><path d="m24.2 97.879c-1.406-1.406-1.406-3.685 0-5.091s3.686-1.406 5.091 0c1.406 1.406 1.406 3.685 0 5.091-1.405 1.406-3.685 1.406-5.091 0"/><path d="m203.521 95.333h23.133" stroke-linecap="round"/><path d="m232.8 92.788c1.406 1.406 1.406 3.685 0 5.091s-3.686 1.406-5.091 0c-1.406-1.406-1.406-3.685 0-5.091 1.405-1.406 3.685-1.406 5.091 0"/><path d="m203.521 127.333h23.133" stroke-linecap="round"/><path d="m232.8 124.788c1.406 1.406 1.406 3.685 0 5.091s-3.686 1.406-5.091 0c-1.406-1.406-1.406-3.685 0-5.091 1.405-1.406 3.685-1.406 5.091 0"/><path d="m203.521 159.333h23.133" stroke-linecap="round"/><path d="m232.8 156.788c1.406 1.406 1.406 3.685 0 5.091s-3.686 1.406-5.091 0c-1.406-1.406-1.406-3.685 0-5.091 1.405-1.406 3.685-1.406 5.091 0"/><g stroke-linejoin="round"><path d="m132.528 121.286c-3.792-3.742-5.289-9.23-3.922-14.38 1.368-5.149 5.39-9.171 10.54-10.539 5.149-1.367 10.637.129 14.379 3.922 5.627 5.826 5.546 15.086-.181 20.813s-14.987 5.808-20.813.181zm0 0-33.221 33.221" stroke-linecap="round"/><path d="m114.08 139.673 7.149 7.149-4.289 4.29-7.15-7.15z"/><path d="m106.394 147.358 7.15 7.15-4.29 4.289-7.149-7.149z"/></g></g></svg>
