<svg height="256" viewBox="0 0 256 256" width="256" xmlns="http://www.w3.org/2000/svg"><g fill="none" stroke="#5E94BF" stroke-width="2"><path d="m89.693 26.406v209.284"/><path d="m89.709 26.406c0-2.814 2.282-5.096 5.097-5.096"/><path d="m18.988 174.55v-77.854c0-1.623 1.315-2.941 2.938-2.941h39.645c1.623 0 2.938 1.318 2.938 2.941v77.854c0 1.626-1.315 2.938-2.938 2.938h-39.645c-1.623 0-2.938-1.312-2.938-2.938z"/><path d="m34.019 93.742v-14.23h15.458v14.23z"/><path d="m120.362 78.422h117.65"/><path d="m238.012 117.152h-117.65c-1.555 0-2.816-1.261-2.816-2.817v-33.096c0-1.556 1.261-2.817 2.816-2.817"/><path d="m120.362 139.848h117.65"/><path d="m238.012 178.578h-117.65c-1.555 0-2.816-1.261-2.816-2.817v-33.096c0-1.556 1.261-2.817 2.816-2.817"/></g><path d="m139.001 91.056h-3.015v4.542l-4.033-1.454-.908 2.652 4.287 1.417-2.798 3.452 2.289 1.78 2.652-3.633 2.798 3.706 2.289-1.781-2.834-3.524 4.287-1.417-.908-2.652-4.106 1.454z" fill="#5E94BF"/><path d="m154.878 91.056h-3.016v4.542l-4.033-1.454-.908 2.652 4.287 1.417-2.797 3.452 2.289 1.78 2.652-3.633 2.797 3.706 2.289-1.781-2.834-3.524 4.287-1.417-.908-2.652-4.105 1.454z" fill="#5E94BF"/><path d="m170.754 91.056h-3.016v4.542l-4.032-1.454-.909 2.652 4.287 1.417-2.797 3.452 2.289 1.78 2.652-3.633 2.797 3.706 2.289-1.781-2.834-3.524 4.287-1.417-.908-2.652-4.105 1.454z" fill="#5E94BF"/><path d="m186.63 91.056h-3.015v4.542l-4.033-1.454-.908 2.652 4.287 1.417-2.798 3.452 2.289 1.78 2.652-3.633 2.798 3.706 2.288-1.781-2.833-3.524 4.287-1.417-.909-2.652-4.105 1.454z" fill="#5E94BF"/><path d="m139.001 152.482h-3.015v4.542l-4.033-1.453-.908 2.652 4.287 1.417-2.798 3.451 2.289 1.78 2.652-3.633 2.798 3.706 2.289-1.78-2.834-3.524 4.287-1.417-.908-2.652-4.106 1.453z" fill="#5E94BF"/><path d="m154.878 152.482h-3.016v4.542l-4.033-1.453-.908 2.652 4.287 1.417-2.797 3.451 2.289 1.78 2.652-3.633 2.797 3.706 2.289-1.78-2.834-3.524 4.287-1.417-.908-2.652-4.105 1.453z" fill="#5E94BF"/><path d="m170.754 152.482h-3.016v4.542l-4.032-1.453-.909 2.652 4.287 1.417-2.797 3.451 2.289 1.78 2.652-3.633 2.797 3.706 2.289-1.78-2.834-3.524 4.287-1.417-.908-2.652-4.105 1.453z" fill="#5E94BF"/><path d="m186.63 152.482h-3.015v4.542l-4.033-1.453-.908 2.652 4.287 1.417-2.798 3.451 2.289 1.78 2.652-3.633 2.798 3.706 2.288-1.78-2.833-3.524 4.287-1.417-.909-2.652-4.105 1.453z" fill="#5E94BF"/><path d="m36.443 124.41c0-3.619 2.375-6.554 5.305-6.554" fill="none" stroke="#5E94BF" stroke-width="2"/><path d="m47.054 124.41c0-3.619-2.375-6.554-5.306-6.554" fill="none" stroke="#5E94BF" stroke-width="2"/><path d="m33.691 127.227h16.117c1.582 0 2.865 1.118 2.865 2.497v12.556c0 1.379-1.283 2.497-2.865 2.497h-16.117c-1.583 0-2.866-1.118-2.866-2.497v-12.556c0-1.379 1.283-2.497 2.866-2.497z" fill="none" stroke="#5E94BF" stroke-width="2"/><path d="m41.249 135.401c-1.186 0-2.147-.962-2.147-2.148s.961-2.147 2.147-2.147 2.148.961 2.148 2.147-.962 2.148-2.148 2.148z" fill="#5E94BF"/><path d="m41.785 135.4s-1.288 3.358-1.288 3.358h2.505s-1.217-3.358-1.217-3.358z" fill="none" stroke="#5E94BF" stroke-width="2"/><path d="m94.112 21.31h143.9" fill="none" stroke="#5E94BF" stroke-width="2"/><path d="m89.693 42.817h148.319" fill="none" stroke="#5E94BF" stroke-width="2"/><path d="m105.874 37.084c-2.462 0-4.459-1.997-4.459-4.46s1.997-4.459 4.459-4.459c2.463 0 4.46 1.996 4.46 4.459s-1.997 4.46-4.46 4.46z" fill="none" stroke="#5E94BF" stroke-width="2"/><path d="m121.482 37.084c-2.463 0-4.459-1.997-4.459-4.46s1.996-4.459 4.459-4.459 4.46 1.996 4.46 4.459-1.997 4.46-4.46 4.46z" fill="none" stroke="#5E94BF" stroke-width="2"/></svg>
