<?xml version="1.0" encoding="utf-8"?>
<!-- Generator: Adobe Illustrator 23.0.6, SVG Export Plug-In . SVG Version: 6.00 Build 0)  -->
<svg version="1.1" id="Ebene_1" xmlns="http://www.w3.org/2000/svg" xmlns:xlink="http://www.w3.org/1999/xlink" x="0px" y="0px"
	 viewBox="0 0 256 256" style="enable-background:new 0 0 256 256;" xml:space="preserve">
<style type="text/css">
	.st0{display:none;}
	.st1{display:inline;}
	.st2{fill:none;stroke:#AAAAAA;stroke-width:2;}
	.st3{display:inline;fill:none;stroke:#AAAAAA;stroke-width:2;}
	.st4{fill:#AAAAAA;}
	.st5{fill:none;stroke:#F5A04C;stroke-width:2;stroke-miterlimit:10;}
	.st6{fill:#F5A04C;}
</style>
<g class="st0">
	<g class="st1">
		<path class="st2" d="M94,102.6c0-17.3,13.8-31.3,30.8-31.3"/>
		<path class="st2" d="M155.6,102.6c0-17.3-13.8-31.3-30.8-31.3"/>
	</g>
	<path class="st3" d="M90.8,103.4h68.1c6.7,0,12.1,4.7,12.1,10.6v53c0,5.8-5.4,10.6-12.1,10.6H90.8c-6.7,0-12.1-4.7-12.1-10.6v-53.1
		C78.6,108.1,84.1,103.4,90.8,103.4z"/>
	<path class="st3" d="M139.2,142.7c-1.1-1.5-2.6-2.6-4.4-3c1.3-0.6,2.4-1.5,3.3-2.6c0.8-1.2,1.2-2.6,1.1-4.1
		c0.1-1.3-0.2-2.6-0.7-3.8c-0.5-1-1.2-1.8-2.1-2.5c-1-0.7-2.1-1.1-3.2-1.4c-1.4-0.3-2.8-0.4-4.2-0.4h-0.7v-6.3h-4.5v6.3h-3.1v-6.2
		l-4.4-0.1v6.2H116h-6.9v4.5h4.7l-0.2,23.3h-4.7v4.5h6.9h0.3v6h4.5v-6h3.1v5.9h4.5v-6h1.1c1.4,0,2.8-0.2,4.2-0.5
		c1.3-0.3,2.6-0.8,3.7-1.6c1.1-0.7,2-1.7,2.6-2.8c0.7-1.3,1-2.7,1-4.2C140.7,146.1,140.2,144.2,139.2,142.7L139.2,142.7z
		 M120.9,130.4h6.6c0.6,0,1.2,0.1,1.8,0.2c0.5,0.1,1.1,0.3,1.6,0.6c0.4,0.3,0.8,0.7,1.1,1.1c0.3,0.6,0.4,1.2,0.4,1.9
		c0.1,1.1-0.4,2.2-1.2,2.9c-0.9,0.6-2,0.9-3.1,0.9h-7.2L120.9,130.4z M133.1,149.5c-0.3,0.5-0.7,1-1.2,1.3s-1.1,0.5-1.7,0.7
		c-0.7,0.1-1.3,0.2-2,0.2h-7.6l0.1-8.8h7.7c1.3-0.1,2.6,0.3,3.7,1.1c1,0.9,1.5,2.2,1.4,3.5C133.6,148.1,133.5,148.8,133.1,149.5z"/>
	<polyline class="st3" points="28.7,108.2 77.2,137 49.9,145 	"/>
	<polyline class="st3" points="96.5,199.1 124.6,178.9 143.5,195.6 	"/>
	<g class="st1">
		<line class="st2" x1="145.1" y1="197.3" x2="147.7" y2="199.5"/>
		<circle class="st4" cx="147.7" cy="199.4" r="1"/>
	</g>
	<g class="st1">
		<line class="st2" x1="199.5" y1="134.7" x2="202.8" y2="133.8"/>
		<circle class="st4" cx="202.8" cy="133.8" r="1"/>
	</g>
	<g class="st1">
		<line class="st2" x1="46.8" y1="145.9" x2="43.6" y2="146.9"/>
		<circle class="st4" cx="43.6" cy="146.9" r="1"/>
	</g>
	<polyline class="st3" points="220.5,163.8 173,142.4 197.7,135.2 	"/>
</g>
<polyline class="st5" points="11.6,81.3 88.7,116.2 45.8,134 "/>
<line class="st5" x1="41.1" y1="136" x2="36.1" y2="138.2"/>
<circle class="st6" cx="36.1" cy="138.2" r="1"/>
<polyline class="st5" points="243.4,181 178,151.4 220.9,133.6 "/>
<line class="st5" x1="225.6" y1="131.6" x2="230.5" y2="129.4"/>
<circle class="st6" cx="230.6" cy="129.4" r="1"/>
<path class="st5" d="M171.2,132.2c-3.4-4.7-8.1-8.1-13.7-9.4c4.1-1.9,7.5-4.7,10.3-8.1c2.5-3.7,3.7-8.1,3.4-12.8
	c0.3-4.1-0.6-8.1-2.2-11.9c-1.6-3.1-3.7-5.6-6.6-7.8c-3.1-2.2-6.6-3.4-10-4.4c-4.4-0.9-8.7-1.2-13.1-1.2h-2.2V57h-14.1v19.7h-9.7
	V57.3L99.6,57v19.4h-0.9H77.1v14.1h14.7l-0.6,72.8H76.5v14.1h21.6H99V196h14.1v-18.7h9.7v18.4h14.1v-18.4h3.4
	c4.4,0,8.7-0.6,13.1-1.6c4.1-0.9,8.1-2.5,11.6-5c3.4-2.2,6.2-5.3,8.1-8.7c2.2-4.1,3.1-8.4,3.1-13.1
	C175.8,142.6,174.3,136.9,171.2,132.2L171.2,132.2z M114,93.5h20.6c1.9,0,3.7,0.3,5.6,0.6c1.6,0.3,3.4,0.9,5,1.9
	c1.2,0.9,2.5,2.2,3.4,3.4c0.9,1.9,1.2,3.7,1.2,5.9c0.3,3.4-1.2,6.9-3.7,9.1c-2.8,1.9-6.2,2.8-9.7,2.8H114L114,93.5z M152.1,153.2
	c-0.9,1.6-2.2,3.1-3.7,4.1s-3.4,1.6-5.3,2.2c-2.2,0.3-4.1,0.6-6.2,0.6h-23.4l0.3-27.5h24c4.1-0.3,8.1,0.9,11.6,3.4
	c3.1,2.8,4.7,6.9,4.4,10.9C153.7,149.1,153,151.3,152.1,153.2z"/>
</svg>
