<svg height="256" viewBox="0 0 256 256" width="256" xmlns="http://www.w3.org/2000/svg"><g fill="none" stroke="#888" stroke-width="2"><path d="m230.726 179.025h-172.827c-3.602 0-6.529-2.919-6.529-6.522v-88.006c0-3.603 2.927-6.522 6.529-6.522h172.827c3.609 0 6.522 2.919 6.522 6.522v88.006c0 3.603-2.913 6.522-6.522 6.522z"/><path d="m51.342 145.659h-31.59v-34.315h31.59z"/><path d="m196.187 95.687c-3.838 0-6.949-3.111-6.949-6.949"/><path d="m182.288 95.687c3.838 0 6.95-3.111 6.95-6.949"/><path d="m196.187 95.687c-3.838 0-6.949 3.112-6.949 6.95"/><path d="m182.288 95.687c3.838 0 6.95 3.112 6.95 6.95"/><path d="m225.87 99.944c-6.189 0-11.206-5.017-11.206-11.206"/><path d="m203.458 99.944c6.189 0 11.206-5.017 11.206-11.206"/><path d="m225.87 99.944c-6.189 0-11.206 5.017-11.206 11.206"/><path d="m203.458 99.944c6.189 0 11.206 5.017 11.206 11.206"/></g></svg>
