<?xml version="1.0" encoding="utf-8"?>
<!-- Generator: Adobe Illustrator 22.0.1, SVG Export Plug-In . SVG Version: 6.00 Build 0)  -->
<svg version="1.1" id="Ebene_1" xmlns="http://www.w3.org/2000/svg" xmlns:xlink="http://www.w3.org/1999/xlink" x="0px" y="0px"
	 viewBox="0 0 256 256" style="enable-background:new 0 0 256 256;" xml:space="preserve">
<style type="text/css">
	.st0{display:none;}
	.st1{display:inline;fill-opacity:0;stroke:#BBBBBB;}
	.st2{display:inline;fill-opacity:0;stroke:#BBBBBB;stroke-width:1.5;}
	.st3{display:inline;}
	.st4{fill-opacity:0;stroke:#5E94BF;stroke-width:1.5;}
	.st5{display:inline;fill-opacity:0;stroke:#5E94BF;stroke-width:1.5;}
	.st6{fill-opacity:0;stroke:#BBBBBB;stroke-width:1.5;}
	.st7{fill:none;stroke:#AAAAAA;stroke-width:2;stroke-miterlimit:10;}
	.st8{fill:#AAAAAA;}
</style>
<g id="Layer_1">
</g>
<g id="Layer_7" class="st0">
	<path class="st1" d="M36.5,39.1h184.1v178.8H36.5V39.1z"/>
</g>
<g id="Layer_2" class="st0">
	<path class="st2" d="M164.5,189.7L56.8,127.5c-2.2-1.3-3-4.2-1.7-6.4l31.7-54.8c1.3-2.2,4.2-3,6.4-1.7l107.7,62.2
		c2.2,1.3,3,4.2,1.7,6.4L170.9,188C169.6,190.2,166.7,191,164.5,189.7z"/>
	<path class="st2" d="M64.7,104.4L45,93l12.3-21.4L77.1,83L64.7,104.4z"/>
</g>
<g id="Layer_3" class="st0">
	<g class="st3">
		<g>
			<path class="st4" d="M159.3,204.6c0.6,0.4,0.9,1.2,0.5,1.8"/>
			<path class="st4" d="M159.3,204.6c-0.6-0.4-1.4-0.1-1.8,0.5"/>
			<path class="st4" d="M155.6,205.6c0.6,0.4,1.5,0.1,1.8-0.5"/>
			<path class="st4" d="M155.6,205.6c-0.6-0.4-0.9-1.2-0.5-1.8"/>
			<path class="st4" d="M154.6,201.9c0.6,0.4,0.9,1.2,0.5,1.8"/>
			<path class="st4" d="M154.6,201.9c-0.6-0.4-1.5-0.1-1.8,0.5"/>
			<path class="st4" d="M151,202.9c0.6,0.4,1.4,0.1,1.8-0.5"/>
			<path class="st4" d="M151,202.9c-0.6-0.4-0.9-1.2-0.5-1.8"/>
			<path class="st4" d="M150,199.3c0.6,0.4,0.9,1.2,0.5,1.8"/>
			<path class="st4" d="M150,199.3c-0.6-0.4-1.5-0.1-1.8,0.5"/>
			<path class="st4" d="M146.4,200.3c0.6,0.4,1.4,0.1,1.8-0.5"/>
			<path class="st4" d="M146.4,200.3c-0.6-0.4-0.9-1.2-0.5-1.8"/>
			<path class="st4" d="M145.4,196.6c0.6,0.4,0.9,1.2,0.5,1.8"/>
			<path class="st4" d="M145.4,196.6c-0.6-0.4-1.4-0.1-1.8,0.5"/>
			<path class="st4" d="M141.8,197.6c0.6,0.4,1.5,0.1,1.8-0.5"/>
			<path class="st4" d="M141.8,197.6c-0.6-0.4-0.9-1.2-0.5-1.8"/>
			<path class="st4" d="M140.8,194c0.6,0.4,0.9,1.2,0.5,1.8"/>
			<path class="st4" d="M140.8,194c-0.6-0.4-1.5-0.1-1.8,0.5"/>
			<path class="st4" d="M137.2,194.9c0.6,0.4,1.5,0.1,1.8-0.5"/>
			<path class="st4" d="M137.2,194.9c-0.6-0.4-0.9-1.2-0.5-1.8"/>
			<path class="st4" d="M136.2,191.3c0.6,0.4,0.9,1.2,0.5,1.8"/>
			<path class="st4" d="M136.2,191.3c-0.6-0.4-1.4-0.1-1.8,0.5"/>
			<path class="st4" d="M132.6,192.3c0.6,0.4,1.5,0.1,1.8-0.5"/>
			<path class="st4" d="M132.6,192.3c-0.6-0.4-0.9-1.2-0.5-1.8"/>
			<path class="st4" d="M131.6,188.7c0.6,0.4,0.9,1.2,0.5,1.8"/>
			<path class="st4" d="M131.6,188.7c-0.6-0.4-1.4-0.1-1.8,0.5"/>
			<path class="st4" d="M127.9,189.6c0.6,0.4,1.5,0.1,1.8-0.5"/>
			<path class="st4" d="M127.9,189.6c-0.6-0.4-0.9-1.2-0.5-1.8"/>
			<path class="st4" d="M127,186c0.6,0.4,0.9,1.2,0.5,1.8"/>
			<path class="st4" d="M127,186c-0.6-0.4-1.5-0.1-1.8,0.5"/>
			<path class="st4" d="M123.3,187c0.6,0.4,1.5,0.1,1.8-0.5"/>
			<path class="st4" d="M123.3,187c-0.6-0.4-0.9-1.2-0.5-1.8"/>
			<path class="st4" d="M122.4,183.3c0.6,0.4,0.9,1.2,0.5,1.8"/>
			<path class="st4" d="M122.4,183.3c-0.6-0.4-1.5-0.1-1.8,0.5"/>
			<path class="st4" d="M118.7,184.3c0.6,0.4,1.5,0.1,1.8-0.5"/>
			<path class="st4" d="M118.7,184.3c-0.6-0.4-0.9-1.2-0.5-1.8"/>
			<path class="st4" d="M117.7,180.7c0.6,0.4,0.9,1.2,0.5,1.8"/>
			<path class="st4" d="M117.7,180.7c-0.6-0.4-1.5-0.1-1.8,0.5"/>
			<path class="st4" d="M114.1,181.7c0.6,0.4,1.4,0.1,1.8-0.5"/>
			<path class="st4" d="M114.1,181.7c-0.6-0.4-0.9-1.2-0.5-1.8"/>
			<path class="st4" d="M113.1,178c0.6,0.4,0.9,1.2,0.5,1.8"/>
			<path class="st4" d="M113.1,178c-0.6-0.4-1.5-0.1-1.8,0.5"/>
			<path class="st4" d="M109.5,179c0.6,0.4,1.5,0.1,1.8-0.5"/>
			<path class="st4" d="M109.5,179c-0.6-0.4-0.9-1.2-0.5-1.8"/>
			<path class="st4" d="M108.5,175.4c0.6,0.4,0.9,1.2,0.5,1.8"/>
			<path class="st4" d="M108.5,175.4c-0.6-0.4-1.4-0.1-1.8,0.5"/>
			<path class="st4" d="M104.9,176.4c0.6,0.4,1.5,0.1,1.8-0.5"/>
			<path class="st4" d="M104.9,176.4c-0.6-0.4-0.9-1.2-0.5-1.8"/>
		</g>
		<g>
			<path class="st4" d="M103.9,172.7c0.6,0.4,0.9,1.2,0.5,1.8"/>
			<path class="st4" d="M103.9,172.7c-0.6-0.4-1.5-0.1-1.8,0.5"/>
			<path class="st4" d="M100.3,173.7c0.6,0.4,1.5,0.1,1.8-0.5"/>
			<path class="st4" d="M100.3,173.7c-0.6-0.4-0.9-1.2-0.5-1.8"/>
			<path class="st4" d="M99.3,170.1c0.6,0.4,0.9,1.2,0.5,1.8"/>
			<path class="st4" d="M99.3,170.1c-0.6-0.4-1.5-0.1-1.8,0.5"/>
			<path class="st4" d="M95.6,171.1c0.6,0.4,1.5,0.1,1.8-0.5"/>
			<path class="st4" d="M95.6,171.1c-0.6-0.4-0.9-1.2-0.5-1.8"/>
			<path class="st4" d="M94.7,167.4c0.6,0.4,0.9,1.2,0.5,1.8"/>
			<path class="st4" d="M94.7,167.4c-0.6-0.4-1.5-0.1-1.8,0.5"/>
			<path class="st4" d="M91,168.4c0.6,0.4,1.4,0.1,1.8-0.5"/>
			<path class="st4" d="M91,168.4c-0.6-0.4-0.9-1.2-0.5-1.8"/>
			<path class="st4" d="M90.1,164.8c0.6,0.4,0.9,1.2,0.5,1.8"/>
			<path class="st4" d="M90.1,164.8c-0.6-0.4-1.5-0.1-1.8,0.5"/>
			<path class="st4" d="M86.4,165.7c0.6,0.4,1.5,0.1,1.8-0.5"/>
			<path class="st4" d="M86.4,165.7c-0.6-0.4-0.9-1.2-0.5-1.8"/>
			<path class="st4" d="M85.4,162.1c0.6,0.4,0.9,1.2,0.5,1.8"/>
			<path class="st4" d="M85.4,162.1c-0.6-0.4-1.4-0.1-1.8,0.5"/>
			<path class="st4" d="M81.8,163.1c0.6,0.4,1.5,0.1,1.8-0.5"/>
			<path class="st4" d="M81.8,163.1c-0.6-0.4-0.9-1.2-0.5-1.8"/>
			<path class="st4" d="M80.8,159.5c0.6,0.4,0.9,1.2,0.5,1.8"/>
			<path class="st4" d="M80.8,159.5c-0.6-0.4-1.5-0.1-1.8,0.5"/>
			<path class="st4" d="M77.2,160.4c0.6,0.4,1.5,0.1,1.8-0.5"/>
			<path class="st4" d="M77.2,160.4c-0.6-0.4-0.9-1.2-0.5-1.8"/>
			<path class="st4" d="M76.2,156.8c0.6,0.4,0.9,1.2,0.5,1.8"/>
			<path class="st4" d="M76.2,156.8c-0.6-0.4-1.5-0.1-1.8,0.5"/>
			<path class="st4" d="M72.6,157.8c0.6,0.4,1.4,0.1,1.8-0.5"/>
			<path class="st4" d="M72.6,157.8c-0.6-0.4-0.9-1.2-0.5-1.8"/>
			<path class="st4" d="M71.6,154.1c0.6,0.4,0.9,1.2,0.5,1.8"/>
			<path class="st4" d="M71.6,154.1c-0.6-0.4-1.5-0.1-1.8,0.5"/>
			<path class="st4" d="M68,155.1c0.6,0.4,1.5,0.1,1.8-0.5"/>
			<path class="st4" d="M68,155.1c-0.6-0.4-0.9-1.2-0.5-1.8"/>
			<path class="st4" d="M67,151.5c0.6,0.4,0.9,1.2,0.5,1.8"/>
			<path class="st4" d="M67,151.5c-0.6-0.4-1.4-0.1-1.8,0.5"/>
			<path class="st4" d="M63.4,152.5c0.6,0.4,1.5,0.1,1.8-0.5"/>
			<path class="st4" d="M63.4,152.5c-0.6-0.4-0.9-1.2-0.5-1.8"/>
			<path class="st4" d="M62.4,148.8c0.6,0.4,0.9,1.2,0.5,1.8"/>
			<path class="st4" d="M62.4,148.8c-0.6-0.4-1.5-0.1-1.8,0.5"/>
			<path class="st4" d="M58.7,149.8c0.6,0.4,1.5,0.1,1.8-0.5"/>
			<path class="st4" d="M58.7,149.8c-0.6-0.4-0.9-1.2-0.5-1.8"/>
			<path class="st4" d="M57.8,146.2c0.6,0.4,0.9,1.2,0.5,1.8"/>
			<path class="st4" d="M57.8,146.2c-0.6-0.4-1.4-0.1-1.8,0.5"/>
			<path class="st4" d="M54.1,147.2c0.6,0.4,1.5,0.1,1.8-0.5"/>
			<path class="st4" d="M54.1,147.2c-0.6-0.4-0.9-1.2-0.5-1.8"/>
			<path class="st4" d="M53.1,143.5c0.6,0.4,0.9,1.2,0.5,1.8"/>
			<path class="st4" d="M53.1,143.5c-0.6-0.4-1.5-0.1-1.8,0.5"/>
			<path class="st4" d="M49.5,144.5c0.6,0.4,1.5,0.1,1.8-0.5"/>
			<path class="st4" d="M49.5,144.5c-0.6-0.4-0.9-1.2-0.5-1.8"/>
		</g>
	</g>
	<g class="st3">
		<g>
			<path class="st4" d="M211.3,112.5c0.6,0.4,0.9,1.2,0.5,1.8"/>
			<path class="st4" d="M211.3,112.5c-0.6-0.4-1.4-0.1-1.8,0.5"/>
			<path class="st4" d="M207.7,113.5c0.6,0.4,1.5,0.1,1.8-0.5"/>
			<path class="st4" d="M207.7,113.5c-0.6-0.4-0.9-1.2-0.5-1.8"/>
			<path class="st4" d="M206.7,109.8c0.6,0.4,0.9,1.2,0.5,1.8"/>
			<path class="st4" d="M206.7,109.8c-0.6-0.4-1.5-0.1-1.8,0.5"/>
			<path class="st4" d="M203,110.8c0.6,0.4,1.4,0.1,1.8-0.5"/>
			<path class="st4" d="M203,110.8c-0.6-0.4-0.9-1.2-0.5-1.8"/>
			<path class="st4" d="M202.1,107.2c0.6,0.4,0.9,1.2,0.5,1.8"/>
			<path class="st4" d="M202.1,107.2c-0.6-0.4-1.5-0.1-1.8,0.5"/>
			<path class="st4" d="M198.4,108.2c0.6,0.4,1.5,0.1,1.8-0.5"/>
			<path class="st4" d="M198.4,108.2c-0.6-0.4-0.9-1.2-0.5-1.8"/>
			<path class="st4" d="M197.5,104.5c0.6,0.4,0.9,1.2,0.5,1.8"/>
			<path class="st4" d="M197.5,104.5c-0.6-0.4-1.5-0.1-1.8,0.5"/>
			<path class="st4" d="M193.8,105.5c0.6,0.4,1.4,0.1,1.8-0.5"/>
			<path class="st4" d="M193.8,105.5c-0.6-0.4-0.9-1.2-0.5-1.8"/>
			<path class="st4" d="M192.8,101.9c0.6,0.4,0.9,1.2,0.5,1.8"/>
			<path class="st4" d="M192.8,101.9c-0.6-0.4-1.4-0.1-1.8,0.5"/>
			<path class="st4" d="M189.2,102.9c0.6,0.4,1.5,0.1,1.8-0.5"/>
			<path class="st4" d="M189.2,102.9c-0.6-0.4-0.9-1.2-0.5-1.8"/>
			<path class="st4" d="M188.2,99.2c0.6,0.4,0.9,1.2,0.5,1.8"/>
			<path class="st4" d="M188.2,99.2c-0.6-0.4-1.5-0.1-1.8,0.5"/>
			<path class="st4" d="M184.6,100.2c0.6,0.4,1.5,0.1,1.8-0.5"/>
			<path class="st4" d="M184.6,100.2c-0.6-0.4-0.9-1.2-0.5-1.8"/>
			<path class="st4" d="M183.6,96.6c0.6,0.4,0.9,1.2,0.5,1.8"/>
			<path class="st4" d="M183.6,96.6c-0.6-0.4-1.4-0.1-1.8,0.5"/>
			<path class="st4" d="M180,97.5c0.6,0.4,1.5,0.1,1.8-0.5"/>
			<path class="st4" d="M180,97.5c-0.6-0.4-0.9-1.2-0.5-1.8"/>
			<path class="st4" d="M179,93.9c0.6,0.4,0.9,1.2,0.5,1.8"/>
			<path class="st4" d="M179,93.9c-0.6-0.4-1.5-0.1-1.8,0.5"/>
			<path class="st4" d="M175.4,94.9c0.6,0.4,1.4,0.1,1.8-0.5"/>
			<path class="st4" d="M175.4,94.9c-0.6-0.4-0.9-1.2-0.5-1.8"/>
			<path class="st4" d="M174.4,91.3c0.6,0.4,0.9,1.2,0.5,1.8"/>
			<path class="st4" d="M174.4,91.3c-0.6-0.4-1.5-0.1-1.8,0.5"/>
			<path class="st4" d="M170.8,92.2c0.6,0.4,1.4,0.1,1.8-0.5"/>
			<path class="st4" d="M170.8,92.2c-0.6-0.4-0.9-1.2-0.5-1.8"/>
			<path class="st4" d="M169.8,88.6c0.6,0.4,0.9,1.2,0.5,1.8"/>
			<path class="st4" d="M169.8,88.6c-0.6-0.4-1.5-0.1-1.8,0.5"/>
			<path class="st4" d="M166.1,89.6c0.6,0.4,1.4,0.1,1.8-0.5"/>
			<path class="st4" d="M166.1,89.6c-0.6-0.4-0.9-1.2-0.5-1.8"/>
			<path class="st4" d="M165.2,85.9c0.6,0.4,0.9,1.2,0.5,1.8"/>
			<path class="st4" d="M165.2,85.9c-0.6-0.4-1.4-0.1-1.8,0.5"/>
			<path class="st4" d="M161.5,86.9c0.6,0.4,1.5,0.1,1.8-0.5"/>
			<path class="st4" d="M161.5,86.9c-0.6-0.4-0.9-1.2-0.5-1.8"/>
			<path class="st4" d="M160.5,83.3c0.6,0.4,0.9,1.2,0.5,1.8"/>
			<path class="st4" d="M160.5,83.3c-0.6-0.4-1.4-0.1-1.8,0.5"/>
			<path class="st4" d="M156.9,84.3c0.6,0.4,1.5,0.1,1.8-0.5"/>
			<path class="st4" d="M156.9,84.3c-0.6-0.4-0.9-1.2-0.5-1.8"/>
		</g>
		<g>
			<path class="st4" d="M155.9,80.6c0.6,0.4,0.9,1.2,0.5,1.8"/>
			<path class="st4" d="M155.9,80.6c-0.6-0.4-1.5-0.1-1.8,0.5"/>
			<path class="st4" d="M152.3,81.6c0.6,0.4,1.4,0.1,1.8-0.5"/>
			<path class="st4" d="M152.3,81.6c-0.6-0.4-0.9-1.2-0.5-1.8"/>
			<path class="st4" d="M151.3,78c0.6,0.4,0.9,1.2,0.5,1.8"/>
			<path class="st4" d="M151.3,78c-0.6-0.4-1.5-0.1-1.8,0.5"/>
			<path class="st4" d="M147.7,79c0.6,0.4,1.4,0.1,1.8-0.5"/>
			<path class="st4" d="M147.7,79c-0.6-0.4-0.9-1.2-0.5-1.8"/>
			<path class="st4" d="M146.7,75.3c0.6,0.4,0.9,1.2,0.5,1.8"/>
			<path class="st4" d="M146.7,75.3c-0.6-0.4-1.4-0.1-1.8,0.5"/>
			<path class="st4" d="M143.1,76.3c0.6,0.4,1.4,0.1,1.8-0.5"/>
			<path class="st4" d="M143.1,76.3c-0.6-0.4-0.9-1.2-0.5-1.8"/>
			<path class="st4" d="M142.1,72.7c0.6,0.4,0.9,1.2,0.5,1.8"/>
			<path class="st4" d="M142.1,72.7c-0.6-0.4-1.4-0.1-1.8,0.5"/>
			<path class="st4" d="M138.4,73.7c0.6,0.4,1.4,0.1,1.8-0.5"/>
			<path class="st4" d="M138.4,73.7c-0.6-0.4-0.9-1.2-0.5-1.8"/>
			<path class="st4" d="M137.5,70c0.6,0.4,0.9,1.2,0.5,1.8"/>
			<path class="st4" d="M137.5,70c-0.6-0.4-1.4-0.1-1.8,0.5"/>
			<path class="st4" d="M133.8,71c0.6,0.4,1.5,0.1,1.8-0.5"/>
			<path class="st4" d="M133.8,71c-0.6-0.4-0.9-1.2-0.5-1.8"/>
			<path class="st4" d="M132.9,67.4c0.6,0.4,0.9,1.2,0.5,1.8"/>
			<path class="st4" d="M132.9,67.4c-0.6-0.4-1.4-0.1-1.8,0.5"/>
			<path class="st4" d="M129.2,68.3c0.6,0.4,1.5,0.1,1.8-0.5"/>
			<path class="st4" d="M129.2,68.3c-0.6-0.4-0.9-1.2-0.5-1.8"/>
			<path class="st4" d="M128.2,64.7c0.6,0.4,0.9,1.2,0.5,1.8"/>
			<path class="st4" d="M128.2,64.7c-0.6-0.4-1.5-0.1-1.8,0.5"/>
			<path class="st4" d="M124.6,65.7c0.6,0.4,1.4,0.1,1.8-0.5"/>
			<path class="st4" d="M124.6,65.7c-0.6-0.4-0.9-1.2-0.5-1.8"/>
			<path class="st4" d="M123.6,62.1c0.6,0.4,0.9,1.2,0.5,1.8"/>
			<path class="st4" d="M123.6,62.1c-0.6-0.4-1.5-0.1-1.8,0.5"/>
			<path class="st4" d="M120,63c0.6,0.4,1.4,0.1,1.8-0.5"/>
			<path class="st4" d="M120,63c-0.6-0.4-0.9-1.2-0.5-1.8"/>
			<path class="st4" d="M119,59.4c0.6,0.4,0.9,1.2,0.5,1.8"/>
			<path class="st4" d="M119,59.4c-0.6-0.4-1.5-0.1-1.8,0.5"/>
			<path class="st4" d="M115.4,60.4c0.6,0.4,1.5,0.1,1.8-0.5"/>
			<path class="st4" d="M115.4,60.4c-0.6-0.4-0.9-1.2-0.5-1.8"/>
			<path class="st4" d="M114.4,56.7c0.6,0.4,0.9,1.2,0.5,1.8"/>
			<path class="st4" d="M114.4,56.7c-0.6-0.4-1.4-0.1-1.8,0.5"/>
			<path class="st4" d="M110.8,57.7c0.6,0.4,1.5,0.1,1.8-0.5"/>
			<path class="st4" d="M110.8,57.7c-0.6-0.4-0.9-1.2-0.5-1.8"/>
			<path class="st4" d="M109.8,54.1c0.6,0.4,0.9,1.2,0.5,1.8"/>
			<path class="st4" d="M109.8,54.1c-0.6-0.4-1.5-0.1-1.8,0.5"/>
			<path class="st4" d="M106.2,55.1c0.6,0.4,1.5,0.1,1.8-0.5"/>
			<path class="st4" d="M106.2,55.1c-0.6-0.4-0.9-1.2-0.5-1.8"/>
			<path class="st4" d="M105.2,51.4c0.6,0.4,0.9,1.2,0.5,1.8"/>
			<path class="st4" d="M105.2,51.4c-0.6-0.4-1.5-0.1-1.8,0.5"/>
			<path class="st4" d="M101.5,52.4c0.6,0.4,1.5,0.1,1.8-0.5"/>
			<path class="st4" d="M101.5,52.4c-0.6-0.4-0.9-1.2-0.5-1.8"/>
		</g>
	</g>
</g>
<g id="Layer_4" class="st0">
	<path class="st2" d="M143.6,43.8l55.1,31.8c4.6,2.6,6.1,8.4,3.5,13l-31.2,54l-26.3,45.6l-6.6,11.4c-2.6,4.5-8.4,6.1-13,3.5
		l-89.4-51.6"/>
</g>
<g id="Layer_5" class="st0">
	<path class="st5" d="M164.3,144.2l-6.2,2.4l-6.5-3.8l2.1-3.6c0.2-0.4,0.3-0.8,0.1-1.2c-0.1-0.4-0.3-0.7-0.7-1l-8.3-4.8
		c-0.4-0.2-0.8-0.3-1.2-0.1l-6.9,2.1l-14.4-8.3c-1.8-1-4-0.5-5,1.2L97,162.2c-1,1.7-0.4,3.9,1.4,4.9l54.7,31.6c1.7,0.8,4,0.5,5-1.2
		l23.2-40.1c1-1.7,0.4-3.9-1.4-4.9l-14-8.1C165.3,144,164.8,143.9,164.3,144.2z"/>
</g>
<g id="Layer_6" class="st0">
	<path class="st2" d="M177.4,87.3l25.7,14.8c0.3,0.1,0.2,0.7,0,1.1l-20.7,35.9c-0.3,0.5-0.7,0.8-1,0.6L155.6,125
		c-0.3-0.1-0.2-0.7,0-1.1L176.4,88C176.7,87.5,177.2,87.2,177.4,87.3z"/>
	<g class="st3">
		<path class="st6" d="M145.3,75.1l28.9,16.7"/>
		<path class="st6" d="M157.8,120L129,103.3c-0.3-0.2-0.3-0.6-0.1-1l15.6-26.9c0.2-0.4,0.6-0.5,0.9-0.4"/>
	</g>
	<path class="st2" d="M154,85.2l4.6,2.6c0.3,0.2,0.4,0.7,0.1,1.2l-3.8,6.6c-0.3,0.5-0.8,0.7-1.1,0.5l-4.6-2.6
		c-0.3-0.2-0.4-0.7-0.1-1.2l3.8-6.6C153.2,85.3,153.7,85,154,85.2z"/>
	<path class="st2" d="M146.9,97.5l4.6,2.6c0.3,0.2,0.4,0.7,0.1,1.2l-3.8,6.6c-0.3,0.5-0.8,0.7-1.1,0.5l-4.6-2.6
		c-0.3-0.2-0.4-0.7-0.1-1.2l3.8-6.6C146.1,97.6,146.6,97.3,146.9,97.5z"/>
	<path class="st2" d="M132.9,39.1L36.5,196.7"/>
	<path class="st2" d="M138.4,136.3c2.1,0.3,1.3,0,2.7,0.6l79.4,45.9"/>
	<path class="st2" d="M135.2,217.5l-30.5-17.6c-2.2-1.3-3-4.2-1.7-6.4l31.7-54.8c1-1.7,2-1.9,3.7-2.3"/>
	<path class="st2" d="M125,155.4L105.3,144L93,165.4l19.7,11.4"/>
</g>
<g id="Layer_8" class="st0">
	<path id="BTC" class="st2" d="M101.3,84.4c-1.6-2.2-3.9-3.8-6.5-4.5c1.9-0.8,3.6-2.2,4.9-3.9c1.2-1.8,1.7-3.9,1.7-6
		c0.1-1.9-0.3-3.8-1.1-5.6c-0.7-1.5-1.7-2.7-3.1-3.7s-3.1-1.7-4.8-2.1c-2-0.4-4.1-0.6-6.2-0.6h-1v-9.4h-6.6V58H74v-9.2l-6.5-0.1v9.2
		H67H56.8v6.6h6.9l-0.3,34.6l-7-0.1v6.6h10.2l0,0H67v8.9h6.6v-8.9h4.5v8.7h6.6v-8.7h1.7c2.1,0,4.2-0.2,6.2-0.7
		c2-0.4,3.8-1.3,5.5-2.4c1.6-1.1,2.9-2.5,3.8-4.1c1-1.9,1.5-4.1,1.4-6.2C103.5,89.4,102.8,86.7,101.3,84.4z M74.2,66.2H84
		c0.9,0,1.8,0.1,2.7,0.2c0.8,0.2,1.6,0.5,2.3,0.9c0.7,0.4,1.2,1,1.6,1.7c0.4,0.9,0.6,1.8,0.6,2.8c0.1,1.7-0.5,3.3-1.8,4.3
		c-1.4,0.9-3,1.4-4.6,1.3H74.1L74.2,66.2z M92.3,94.4c-0.4,0.8-1,1.4-1.7,1.9c-0.8,0.5-1.6,0.8-2.5,1c-1,0.2-2,0.3-2.9,0.3H73.9
		L74,84.5h11.4c1.9-0.1,3.9,0.5,5.5,1.6c1.5,1.3,2.3,3.3,2.1,5.3C93,92.5,92.7,93.5,92.3,94.4z"/>
	<g id="ETH" class="st3">
		<path class="st6" d="M204.2,82.2l-20.1-33.5L164,82.2L184.1,94L204.2,82.2z"/>
		<path class="st6" d="M203.7,86.7l-19.6,11.5l-19.6-11.5l19.6,27.8L203.7,86.7z"/>
	</g>
	<path id="LTC" class="st2" d="M119.4,144.2l-8.3,31.5l-7.1,2.5l-2.3,8.7l6.9-2.4l-4.8,18.3L152,203l3.2-11.5l-30.2-0.1l4-14.4
		l8.9-3.3l2.4-8.5l-9.1,3.1l6.4-24L119.4,144.2z"/>
</g>
<path class="st7" d="M51.4,175l0.1-86.4c0-1.8,1.5-3.3,3.3-3.3h44c1.8,0,3.3,1.5,3.3,3.3l-0.2,86.4c0,1.8-1.5,3.3-3.3,3.3h-44
	C52.9,178.3,51.4,176.8,51.4,175z"/>
<path class="st7" d="M68.2,85.4V69.6h17.2v15.8"/>
<g>
	<path class="st7" d="M129,98.8h83.5"/>
	<path class="st7" d="M212.6,126.3H129c-1.1,0-2-0.9-2-2v-23.5c0-1.1,0.9-2,2-2"/>
	<path class="st7" d="M129,142.5h83.5"/>
	<path class="st7" d="M212.6,170H129c-1.1,0-2-0.9-2-2v-23.5c0-1.1,0.9-2,2-2"/>
</g>
<path class="st8" d="M142.1,107.7H140v3.2l-2.9-1l-0.6,1.9l3,1l-2,2.5l1.6,1.3l1.9-2.6l2,2.6l1.6-1.3l-2-2.5l3-1l-0.6-1.9l-2.9,1
	V107.7z"/>
<path class="st8" d="M153.4,107.7h-2.1v3.2l-2.9-1l-0.6,1.9l3,1l-2,2.5l1.6,1.3l1.9-2.6l2,2.6l1.6-1.3l-2-2.5l3-1l-0.6-1.9l-2.9,1
	V107.7z"/>
<path class="st8" d="M164.7,107.7h-2.1v3.2l-2.9-1l-0.6,1.9l3,1l-2,2.5l1.6,1.3l1.9-2.6l2,2.6l1.6-1.3l-2-2.5l3-1l-0.6-1.9l-2.9,1
	V107.7z"/>
<path class="st8" d="M175.9,107.7h-2.1v3.2l-2.9-1l-0.6,1.9l3,1l-2,2.5l1.6,1.3l1.9-2.6l2,2.6l1.6-1.3l-2-2.5l3-1l-0.6-1.9l-2.9,1
	V107.7z"/>
<path class="st8" d="M142.1,151.3H140v3.2l-2.9-1l-0.6,1.9l3,1l-2,2.5l1.6,1.3l1.9-2.6l2,2.6l1.6-1.3l-2-2.5l3-1l-0.6-1.9l-2.9,1
	V151.3z"/>
<path class="st8" d="M153.4,151.3h-2.1v3.2l-2.9-1l-0.6,1.9l3,1l-2,2.5l1.6,1.3l1.9-2.6l2,2.6l1.6-1.3l-2-2.5l3-1l-0.6-1.9l-2.9,1
	V151.3z"/>
<path class="st8" d="M164.7,151.3h-2.1v3.2l-2.9-1l-0.6,1.9l3,1l-2,2.5l1.6,1.3l1.9-2.6l2,2.6l1.6-1.3l-2-2.5l3-1l-0.6-1.9l-2.9,1
	V151.3z"/>
<path class="st8" d="M175.9,151.3h-2.1v3.2l-2.9-1l-0.6,1.9l3,1l-2,2.5l1.6,1.3l1.9-2.6l2,2.6l1.6-1.3l-2-2.5l3-1l-0.6-1.9l-2.9,1
	V151.3z"/>
<path class="st7" d="M88.7,145.6h-26v-18.3c0-1.7,1.3-3,3-3h20c1.7,0,3,1.3,3,3V145.6z"/>
<path class="st7" d="M87.2,121.4c0-6.2-5-11.2-11.2-11.2s-11.2,5-11.2,11.2v2.5"/>
</svg>
