<?xml version="1.0" encoding="utf-8"?>
<!-- Generator: Adobe Illustrator 22.0.1, SVG Export Plug-In . SVG Version: 6.00 Build 0)  -->
<svg version="1.1" xmlns="http://www.w3.org/2000/svg" xmlns:xlink="http://www.w3.org/1999/xlink" x="0px" y="0px"
	 viewBox="0 0 256 256" style="enable-background:new 0 0 256 256;" xml:space="preserve">
<style type="text/css">
	.st0{display:none;}
	.st1{display:inline;fill-opacity:0;stroke:#BBBBBB;}
	.st2{display:inline;fill-opacity:0;stroke:#BBBBBB;stroke-width:1.5;}
	.st3{display:inline;}
	.st4{fill-opacity:0;stroke:#5E94BF;stroke-width:1.5;}
	.st5{display:inline;fill-opacity:0;stroke:#5E94BF;stroke-width:1.5;}
	.st6{fill-opacity:0;stroke:#BBBBBB;stroke-width:1.5;}
	.st7{fill:none;stroke:#888888;stroke-width:2;stroke-miterlimit:10;}
	.st8{fill:#888888;}
</style>
<g id="Ebene_2_1_">
	<g id="Layer_1">
	</g>
	<g id="Layer_7" class="st0">
		<path class="st1" d="M36.5,39.1h184.1v178.8H36.5V39.1z"/>
	</g>
	<g id="Layer_2" class="st0">
		<path class="st2" d="M164.5,189.7L56.8,127.5c-2.2-1.3-3-4.2-1.7-6.4l31.7-54.8c1.3-2.2,4.2-3,6.4-1.7l107.7,62.2
			c2.2,1.3,3,4.2,1.7,6.4L170.9,188C169.6,190.2,166.7,191,164.5,189.7z"/>
		<path class="st2" d="M64.7,104.4L45,93l12.3-21.4L77.1,83L64.7,104.4z"/>
	</g>
	<g id="Layer_3" class="st0">
		<g class="st3">
			<g>
				<path class="st4" d="M159.3,204.6c0.6,0.4,0.9,1.2,0.5,1.8"/>
				<path class="st4" d="M159.3,204.6c-0.6-0.4-1.4-0.1-1.8,0.5"/>
				<path class="st4" d="M155.6,205.6c0.6,0.4,1.5,0.1,1.8-0.5"/>
				<path class="st4" d="M155.6,205.6c-0.6-0.4-0.9-1.2-0.5-1.8"/>
				<path class="st4" d="M154.6,201.9c0.6,0.4,0.9,1.2,0.5,1.8"/>
				<path class="st4" d="M154.6,201.9c-0.6-0.4-1.5-0.1-1.8,0.5"/>
				<path class="st4" d="M151,202.9c0.6,0.4,1.4,0.1,1.8-0.5"/>
				<path class="st4" d="M151,202.9c-0.6-0.4-0.9-1.2-0.5-1.8"/>
				<path class="st4" d="M150,199.3c0.6,0.4,0.9,1.2,0.5,1.8"/>
				<path class="st4" d="M150,199.3c-0.6-0.4-1.5-0.1-1.8,0.5"/>
				<path class="st4" d="M146.4,200.3c0.6,0.4,1.4,0.1,1.8-0.5"/>
				<path class="st4" d="M146.4,200.3c-0.6-0.4-0.9-1.2-0.5-1.8"/>
				<path class="st4" d="M145.4,196.6c0.6,0.4,0.9,1.2,0.5,1.8"/>
				<path class="st4" d="M145.4,196.6c-0.6-0.4-1.4-0.1-1.8,0.5"/>
				<path class="st4" d="M141.8,197.6c0.6,0.4,1.5,0.1,1.8-0.5"/>
				<path class="st4" d="M141.8,197.6c-0.6-0.4-0.9-1.2-0.5-1.8"/>
				<path class="st4" d="M140.8,194c0.6,0.4,0.9,1.2,0.5,1.8"/>
				<path class="st4" d="M140.8,194c-0.6-0.4-1.5-0.1-1.8,0.5"/>
				<path class="st4" d="M137.2,194.9c0.6,0.4,1.5,0.1,1.8-0.5"/>
				<path class="st4" d="M137.2,194.9c-0.6-0.4-0.9-1.2-0.5-1.8"/>
				<path class="st4" d="M136.2,191.3c0.6,0.4,0.9,1.2,0.5,1.8"/>
				<path class="st4" d="M136.2,191.3c-0.6-0.4-1.4-0.1-1.8,0.5"/>
				<path class="st4" d="M132.6,192.3c0.6,0.4,1.5,0.1,1.8-0.5"/>
				<path class="st4" d="M132.6,192.3c-0.6-0.4-0.9-1.2-0.5-1.8"/>
				<path class="st4" d="M131.6,188.7c0.6,0.4,0.9,1.2,0.5,1.8"/>
				<path class="st4" d="M131.6,188.7c-0.6-0.4-1.4-0.1-1.8,0.5"/>
				<path class="st4" d="M127.9,189.6c0.6,0.4,1.5,0.1,1.8-0.5"/>
				<path class="st4" d="M127.9,189.6c-0.6-0.4-0.9-1.2-0.5-1.8"/>
				<path class="st4" d="M127,186c0.6,0.4,0.9,1.2,0.5,1.8"/>
				<path class="st4" d="M127,186c-0.6-0.4-1.5-0.1-1.8,0.5"/>
				<path class="st4" d="M123.3,187c0.6,0.4,1.5,0.1,1.8-0.5"/>
				<path class="st4" d="M123.3,187c-0.6-0.4-0.9-1.2-0.5-1.8"/>
				<path class="st4" d="M122.4,183.3c0.6,0.4,0.9,1.2,0.5,1.8"/>
				<path class="st4" d="M122.4,183.3c-0.6-0.4-1.5-0.1-1.8,0.5"/>
				<path class="st4" d="M118.7,184.3c0.6,0.4,1.5,0.1,1.8-0.5"/>
				<path class="st4" d="M118.7,184.3c-0.6-0.4-0.9-1.2-0.5-1.8"/>
				<path class="st4" d="M117.7,180.7c0.6,0.4,0.9,1.2,0.5,1.8"/>
				<path class="st4" d="M117.7,180.7c-0.6-0.4-1.5-0.1-1.8,0.5"/>
				<path class="st4" d="M114.1,181.7c0.6,0.4,1.4,0.1,1.8-0.5"/>
				<path class="st4" d="M114.1,181.7c-0.6-0.4-0.9-1.2-0.5-1.8"/>
				<path class="st4" d="M113.1,178c0.6,0.4,0.9,1.2,0.5,1.8"/>
				<path class="st4" d="M113.1,178c-0.6-0.4-1.5-0.1-1.8,0.5"/>
				<path class="st4" d="M109.5,179c0.6,0.4,1.5,0.1,1.8-0.5"/>
				<path class="st4" d="M109.5,179c-0.6-0.4-0.9-1.2-0.5-1.8"/>
				<path class="st4" d="M108.5,175.4c0.6,0.4,0.9,1.2,0.5,1.8"/>
				<path class="st4" d="M108.5,175.4c-0.6-0.4-1.4-0.1-1.8,0.5"/>
				<path class="st4" d="M104.9,176.4c0.6,0.4,1.5,0.1,1.8-0.5"/>
				<path class="st4" d="M104.9,176.4c-0.6-0.4-0.9-1.2-0.5-1.8"/>
			</g>
			<g>
				<path class="st4" d="M103.9,172.7c0.6,0.4,0.9,1.2,0.5,1.8"/>
				<path class="st4" d="M103.9,172.7c-0.6-0.4-1.5-0.1-1.8,0.5"/>
				<path class="st4" d="M100.3,173.7c0.6,0.4,1.5,0.1,1.8-0.5"/>
				<path class="st4" d="M100.3,173.7c-0.6-0.4-0.9-1.2-0.5-1.8"/>
				<path class="st4" d="M99.3,170.1c0.6,0.4,0.9,1.2,0.5,1.8"/>
				<path class="st4" d="M99.3,170.1c-0.6-0.4-1.5-0.1-1.8,0.5"/>
				<path class="st4" d="M95.6,171.1c0.6,0.4,1.5,0.1,1.8-0.5"/>
				<path class="st4" d="M95.6,171.1c-0.6-0.4-0.9-1.2-0.5-1.8"/>
				<path class="st4" d="M94.7,167.4c0.6,0.4,0.9,1.2,0.5,1.8"/>
				<path class="st4" d="M94.7,167.4c-0.6-0.4-1.5-0.1-1.8,0.5"/>
				<path class="st4" d="M91,168.4c0.6,0.4,1.4,0.1,1.8-0.5"/>
				<path class="st4" d="M91,168.4c-0.6-0.4-0.9-1.2-0.5-1.8"/>
				<path class="st4" d="M90.1,164.8c0.6,0.4,0.9,1.2,0.5,1.8"/>
				<path class="st4" d="M90.1,164.8c-0.6-0.4-1.5-0.1-1.8,0.5"/>
				<path class="st4" d="M86.4,165.7c0.6,0.4,1.5,0.1,1.8-0.5"/>
				<path class="st4" d="M86.4,165.7c-0.6-0.4-0.9-1.2-0.5-1.8"/>
				<path class="st4" d="M85.4,162.1c0.6,0.4,0.9,1.2,0.5,1.8"/>
				<path class="st4" d="M85.4,162.1c-0.6-0.4-1.4-0.1-1.8,0.5"/>
				<path class="st4" d="M81.8,163.1c0.6,0.4,1.5,0.1,1.8-0.5"/>
				<path class="st4" d="M81.8,163.1c-0.6-0.4-0.9-1.2-0.5-1.8"/>
				<path class="st4" d="M80.8,159.5c0.6,0.4,0.9,1.2,0.5,1.8"/>
				<path class="st4" d="M80.8,159.5c-0.6-0.4-1.5-0.1-1.8,0.5"/>
				<path class="st4" d="M77.2,160.4c0.6,0.4,1.5,0.1,1.8-0.5"/>
				<path class="st4" d="M77.2,160.4c-0.6-0.4-0.9-1.2-0.5-1.8"/>
				<path class="st4" d="M76.2,156.8c0.6,0.4,0.9,1.2,0.5,1.8"/>
				<path class="st4" d="M76.2,156.8c-0.6-0.4-1.5-0.1-1.8,0.5"/>
				<path class="st4" d="M72.6,157.8c0.6,0.4,1.4,0.1,1.8-0.5"/>
				<path class="st4" d="M72.6,157.8c-0.6-0.4-0.9-1.2-0.5-1.8"/>
				<path class="st4" d="M71.6,154.1c0.6,0.4,0.9,1.2,0.5,1.8"/>
				<path class="st4" d="M71.6,154.1c-0.6-0.4-1.5-0.1-1.8,0.5"/>
				<path class="st4" d="M68,155.1c0.6,0.4,1.5,0.1,1.8-0.5"/>
				<path class="st4" d="M68,155.1c-0.6-0.4-0.9-1.2-0.5-1.8"/>
				<path class="st4" d="M67,151.5c0.6,0.4,0.9,1.2,0.5,1.8"/>
				<path class="st4" d="M67,151.5c-0.6-0.4-1.4-0.1-1.8,0.5"/>
				<path class="st4" d="M63.4,152.5c0.6,0.4,1.5,0.1,1.8-0.5"/>
				<path class="st4" d="M63.4,152.5c-0.6-0.4-0.9-1.2-0.5-1.8"/>
				<path class="st4" d="M62.4,148.8c0.6,0.4,0.9,1.2,0.5,1.8"/>
				<path class="st4" d="M62.4,148.8c-0.6-0.4-1.5-0.1-1.8,0.5"/>
				<path class="st4" d="M58.7,149.8c0.6,0.4,1.5,0.1,1.8-0.5"/>
				<path class="st4" d="M58.7,149.8c-0.6-0.4-0.9-1.2-0.5-1.8"/>
				<path class="st4" d="M57.8,146.2c0.6,0.4,0.9,1.2,0.5,1.8"/>
				<path class="st4" d="M57.8,146.2c-0.6-0.4-1.4-0.1-1.8,0.5"/>
				<path class="st4" d="M54.1,147.2c0.6,0.4,1.5,0.1,1.8-0.5"/>
				<path class="st4" d="M54.1,147.2c-0.6-0.4-0.9-1.2-0.5-1.8"/>
				<path class="st4" d="M53.1,143.5c0.6,0.4,0.9,1.2,0.5,1.8"/>
				<path class="st4" d="M53.1,143.5c-0.6-0.4-1.5-0.1-1.8,0.5"/>
				<path class="st4" d="M49.5,144.5c0.6,0.4,1.5,0.1,1.8-0.5"/>
				<path class="st4" d="M49.5,144.5c-0.6-0.4-0.9-1.2-0.5-1.8"/>
			</g>
		</g>
		<g class="st3">
			<g>
				<path class="st4" d="M211.3,112.5c0.6,0.4,0.9,1.2,0.5,1.8"/>
				<path class="st4" d="M211.3,112.5c-0.6-0.4-1.4-0.1-1.8,0.5"/>
				<path class="st4" d="M207.7,113.5c0.6,0.4,1.5,0.1,1.8-0.5"/>
				<path class="st4" d="M207.7,113.5c-0.6-0.4-0.9-1.2-0.5-1.8"/>
				<path class="st4" d="M206.7,109.8c0.6,0.4,0.9,1.2,0.5,1.8"/>
				<path class="st4" d="M206.7,109.8c-0.6-0.4-1.5-0.1-1.8,0.5"/>
				<path class="st4" d="M203,110.8c0.6,0.4,1.4,0.1,1.8-0.5"/>
				<path class="st4" d="M203,110.8c-0.6-0.4-0.9-1.2-0.5-1.8"/>
				<path class="st4" d="M202.1,107.2c0.6,0.4,0.9,1.2,0.5,1.8"/>
				<path class="st4" d="M202.1,107.2c-0.6-0.4-1.5-0.1-1.8,0.5"/>
				<path class="st4" d="M198.4,108.2c0.6,0.4,1.5,0.1,1.8-0.5"/>
				<path class="st4" d="M198.4,108.2c-0.6-0.4-0.9-1.2-0.5-1.8"/>
				<path class="st4" d="M197.5,104.5c0.6,0.4,0.9,1.2,0.5,1.8"/>
				<path class="st4" d="M197.5,104.5c-0.6-0.4-1.5-0.1-1.8,0.5"/>
				<path class="st4" d="M193.8,105.5c0.6,0.4,1.4,0.1,1.8-0.5"/>
				<path class="st4" d="M193.8,105.5c-0.6-0.4-0.9-1.2-0.5-1.8"/>
				<path class="st4" d="M192.8,101.9c0.6,0.4,0.9,1.2,0.5,1.8"/>
				<path class="st4" d="M192.8,101.9c-0.6-0.4-1.4-0.1-1.8,0.5"/>
				<path class="st4" d="M189.2,102.9c0.6,0.4,1.5,0.1,1.8-0.5"/>
				<path class="st4" d="M189.2,102.9c-0.6-0.4-0.9-1.2-0.5-1.8"/>
				<path class="st4" d="M188.2,99.2c0.6,0.4,0.9,1.2,0.5,1.8"/>
				<path class="st4" d="M188.2,99.2c-0.6-0.4-1.5-0.1-1.8,0.5"/>
				<path class="st4" d="M184.6,100.2c0.6,0.4,1.5,0.1,1.8-0.5"/>
				<path class="st4" d="M184.6,100.2c-0.6-0.4-0.9-1.2-0.5-1.8"/>
				<path class="st4" d="M183.6,96.6c0.6,0.4,0.9,1.2,0.5,1.8"/>
				<path class="st4" d="M183.6,96.6c-0.6-0.4-1.4-0.1-1.8,0.5"/>
				<path class="st4" d="M180,97.5c0.6,0.4,1.5,0.1,1.8-0.5"/>
				<path class="st4" d="M180,97.5c-0.6-0.4-0.9-1.2-0.5-1.8"/>
				<path class="st4" d="M179,93.9c0.6,0.4,0.9,1.2,0.5,1.8"/>
				<path class="st4" d="M179,93.9c-0.6-0.4-1.5-0.1-1.8,0.5"/>
				<path class="st4" d="M175.4,94.9c0.6,0.4,1.4,0.1,1.8-0.5"/>
				<path class="st4" d="M175.4,94.9c-0.6-0.4-0.9-1.2-0.5-1.8"/>
				<path class="st4" d="M174.4,91.3c0.6,0.4,0.9,1.2,0.5,1.8"/>
				<path class="st4" d="M174.4,91.3c-0.6-0.4-1.5-0.1-1.8,0.5"/>
				<path class="st4" d="M170.8,92.2c0.6,0.4,1.4,0.1,1.8-0.5"/>
				<path class="st4" d="M170.8,92.2c-0.6-0.4-0.9-1.2-0.5-1.8"/>
				<path class="st4" d="M169.8,88.6c0.6,0.4,0.9,1.2,0.5,1.8"/>
				<path class="st4" d="M169.8,88.6c-0.6-0.4-1.5-0.1-1.8,0.5"/>
				<path class="st4" d="M166.1,89.6c0.6,0.4,1.4,0.1,1.8-0.5"/>
				<path class="st4" d="M166.1,89.6c-0.6-0.4-0.9-1.2-0.5-1.8"/>
				<path class="st4" d="M165.2,85.9c0.6,0.4,0.9,1.2,0.5,1.8"/>
				<path class="st4" d="M165.2,85.9c-0.6-0.4-1.4-0.1-1.8,0.5"/>
				<path class="st4" d="M161.5,86.9c0.6,0.4,1.5,0.1,1.8-0.5"/>
				<path class="st4" d="M161.5,86.9c-0.6-0.4-0.9-1.2-0.5-1.8"/>
				<path class="st4" d="M160.5,83.3c0.6,0.4,0.9,1.2,0.5,1.8"/>
				<path class="st4" d="M160.5,83.3c-0.6-0.4-1.4-0.1-1.8,0.5"/>
				<path class="st4" d="M156.9,84.3c0.6,0.4,1.5,0.1,1.8-0.5"/>
				<path class="st4" d="M156.9,84.3c-0.6-0.4-0.9-1.2-0.5-1.8"/>
			</g>
			<g>
				<path class="st4" d="M155.9,80.6c0.6,0.4,0.9,1.2,0.5,1.8"/>
				<path class="st4" d="M155.9,80.6c-0.6-0.4-1.5-0.1-1.8,0.5"/>
				<path class="st4" d="M152.3,81.6c0.6,0.4,1.4,0.1,1.8-0.5"/>
				<path class="st4" d="M152.3,81.6c-0.6-0.4-0.9-1.2-0.5-1.8"/>
				<path class="st4" d="M151.3,78c0.6,0.4,0.9,1.2,0.5,1.8"/>
				<path class="st4" d="M151.3,78c-0.6-0.4-1.5-0.1-1.8,0.5"/>
				<path class="st4" d="M147.7,79c0.6,0.4,1.4,0.1,1.8-0.5"/>
				<path class="st4" d="M147.7,79c-0.6-0.4-0.9-1.2-0.5-1.8"/>
				<path class="st4" d="M146.7,75.3c0.6,0.4,0.9,1.2,0.5,1.8"/>
				<path class="st4" d="M146.7,75.3c-0.6-0.4-1.4-0.1-1.8,0.5"/>
				<path class="st4" d="M143.1,76.3c0.6,0.4,1.4,0.1,1.8-0.5"/>
				<path class="st4" d="M143.1,76.3c-0.6-0.4-0.9-1.2-0.5-1.8"/>
				<path class="st4" d="M142.1,72.7c0.6,0.4,0.9,1.2,0.5,1.8"/>
				<path class="st4" d="M142.1,72.7c-0.6-0.4-1.4-0.1-1.8,0.5"/>
				<path class="st4" d="M138.4,73.7c0.6,0.4,1.4,0.1,1.8-0.5"/>
				<path class="st4" d="M138.4,73.7c-0.6-0.4-0.9-1.2-0.5-1.8"/>
				<path class="st4" d="M137.5,70c0.6,0.4,0.9,1.2,0.5,1.8"/>
				<path class="st4" d="M137.5,70c-0.6-0.4-1.4-0.1-1.8,0.5"/>
				<path class="st4" d="M133.8,71c0.6,0.4,1.5,0.1,1.8-0.5"/>
				<path class="st4" d="M133.8,71c-0.6-0.4-0.9-1.2-0.5-1.8"/>
				<path class="st4" d="M132.9,67.4c0.6,0.4,0.9,1.2,0.5,1.8"/>
				<path class="st4" d="M132.9,67.4c-0.6-0.4-1.4-0.1-1.8,0.5"/>
				<path class="st4" d="M129.2,68.3c0.6,0.4,1.5,0.1,1.8-0.5"/>
				<path class="st4" d="M129.2,68.3c-0.6-0.4-0.9-1.2-0.5-1.8"/>
				<path class="st4" d="M128.2,64.7c0.6,0.4,0.9,1.2,0.5,1.8"/>
				<path class="st4" d="M128.2,64.7c-0.6-0.4-1.5-0.1-1.8,0.5"/>
				<path class="st4" d="M124.6,65.7c0.6,0.4,1.4,0.1,1.8-0.5"/>
				<path class="st4" d="M124.6,65.7c-0.6-0.4-0.9-1.2-0.5-1.8"/>
				<path class="st4" d="M123.6,62.1c0.6,0.4,0.9,1.2,0.5,1.8"/>
				<path class="st4" d="M123.6,62.1c-0.6-0.4-1.5-0.1-1.8,0.5"/>
				<path class="st4" d="M120,63c0.6,0.4,1.4,0.1,1.8-0.5"/>
				<path class="st4" d="M120,63c-0.6-0.4-0.9-1.2-0.5-1.8"/>
				<path class="st4" d="M119,59.4c0.6,0.4,0.9,1.2,0.5,1.8"/>
				<path class="st4" d="M119,59.4c-0.6-0.4-1.5-0.1-1.8,0.5"/>
				<path class="st4" d="M115.4,60.4c0.6,0.4,1.5,0.1,1.8-0.5"/>
				<path class="st4" d="M115.4,60.4c-0.6-0.4-0.9-1.2-0.5-1.8"/>
				<path class="st4" d="M114.4,56.7c0.6,0.4,0.9,1.2,0.5,1.8"/>
				<path class="st4" d="M114.4,56.7c-0.6-0.4-1.4-0.1-1.8,0.5"/>
				<path class="st4" d="M110.8,57.7c0.6,0.4,1.5,0.1,1.8-0.5"/>
				<path class="st4" d="M110.8,57.7c-0.6-0.4-0.9-1.2-0.5-1.8"/>
				<path class="st4" d="M109.8,54.1c0.6,0.4,0.9,1.2,0.5,1.8"/>
				<path class="st4" d="M109.8,54.1c-0.6-0.4-1.5-0.1-1.8,0.5"/>
				<path class="st4" d="M106.2,55.1c0.6,0.4,1.5,0.1,1.8-0.5"/>
				<path class="st4" d="M106.2,55.1c-0.6-0.4-0.9-1.2-0.5-1.8"/>
				<path class="st4" d="M105.2,51.4c0.6,0.4,0.9,1.2,0.5,1.8"/>
				<path class="st4" d="M105.2,51.4c-0.6-0.4-1.5-0.1-1.8,0.5"/>
				<path class="st4" d="M101.5,52.4c0.6,0.4,1.5,0.1,1.8-0.5"/>
				<path class="st4" d="M101.5,52.4c-0.6-0.4-0.9-1.2-0.5-1.8"/>
			</g>
		</g>
	</g>
	<g id="Layer_4" class="st0">
		<path class="st2" d="M143.6,43.8l55.1,31.8c4.6,2.6,6.1,8.4,3.5,13l-31.2,54l-26.3,45.6l-6.6,11.4c-2.6,4.5-8.4,6.1-13,3.5
			l-89.4-51.6"/>
	</g>
	<g id="Layer_5" class="st0">
		<path class="st5" d="M164.3,144.2l-6.2,2.4l-6.5-3.8l2.1-3.6c0.2-0.4,0.3-0.8,0.1-1.2c-0.1-0.4-0.3-0.7-0.7-1l-8.3-4.8
			c-0.4-0.2-0.8-0.3-1.2-0.1l-6.9,2.1l-14.4-8.3c-1.8-1-4-0.5-5,1.2L97,162.2c-1,1.7-0.4,3.9,1.4,4.9l54.7,31.6c1.7,0.8,4,0.5,5-1.2
			l23.2-40.1c1-1.7,0.4-3.9-1.4-4.9l-14-8.1C165.3,144,164.8,143.9,164.3,144.2z"/>
	</g>
	<g id="Layer_6" class="st0">
		<path class="st2" d="M177.4,87.3l25.7,14.8c0.3,0.1,0.2,0.7,0,1.1l-20.7,35.9c-0.3,0.5-0.7,0.8-1,0.6L155.6,125
			c-0.3-0.1-0.2-0.7,0-1.1L176.4,88C176.7,87.5,177.2,87.2,177.4,87.3z"/>
		<g class="st3">
			<path class="st6" d="M145.3,75.1l28.9,16.7"/>
			<path class="st6" d="M157.8,120L129,103.3c-0.3-0.2-0.3-0.6-0.1-1l15.6-26.9c0.2-0.4,0.6-0.5,0.9-0.4"/>
		</g>
		<path class="st2" d="M154,85.2l4.6,2.6c0.3,0.2,0.4,0.7,0.1,1.2l-3.8,6.6c-0.3,0.5-0.8,0.7-1.1,0.5l-4.6-2.6
			c-0.3-0.2-0.4-0.7-0.1-1.2l3.8-6.6C153.2,85.3,153.7,85,154,85.2z"/>
		<path class="st2" d="M146.9,97.5l4.6,2.6c0.3,0.2,0.4,0.7,0.1,1.2l-3.8,6.6c-0.3,0.5-0.8,0.7-1.1,0.5l-4.6-2.6
			c-0.3-0.2-0.4-0.7-0.1-1.2l3.8-6.6C146.1,97.6,146.6,97.3,146.9,97.5z"/>
		<path class="st2" d="M132.9,39.1L36.5,196.7"/>
		<path class="st2" d="M138.4,136.3c2.1,0.3,1.3,0,2.7,0.6l79.4,45.9"/>
		<path class="st2" d="M135.2,217.5l-30.5-17.6c-2.2-1.3-3-4.2-1.7-6.4l31.7-54.8c1-1.7,2-1.9,3.7-2.3"/>
		<path class="st2" d="M125,155.4L105.3,144L93,165.4l19.7,11.4"/>
	</g>
	<path id="BTC" class="st7" d="M92,87.8c-1.8-2.5-4.4-4.3-7.3-5c2.2-0.9,4-2.4,5.4-4.4c1.3-2,1.9-4.3,1.9-6.7
		c0.1-2.2-0.3-4.3-1.2-6.3c-0.8-1.6-2-3.1-3.4-4.1c-1.6-1.1-3.4-1.9-5.3-2.3c-2.3-0.5-4.6-0.7-6.9-0.7H74V47.9h-7.4v10.4h-5.1V48.1
		L54.2,48v10.3h-0.5H42.3v7.4H50l-0.3,38.7l-7.8-0.1v7.4h11.4l0,0h0.4v9.9h7.4v-9.9h5.1v9.7h7.4v-9.7h1.9c2.3,0,4.7-0.3,6.9-0.8
		c2.2-0.5,4.3-1.4,6.1-2.7c1.8-1.2,3.3-2.8,4.3-4.6c1.1-2.1,1.7-4.5,1.6-6.9C94.6,93.4,93.7,90.4,92,87.8z M61.7,67.4h11
		c1,0,2,0.1,3,0.3c0.9,0.2,1.8,0.5,2.6,1c0.7,0.5,1.3,1.1,1.8,1.9c0.5,1,0.7,2,0.6,3.1c0.2,1.9-0.6,3.7-2,4.8
		c-1.5,1-3.3,1.5-5.2,1.4H61.6L61.7,67.4z M81.9,99.1c-0.4,0.9-1.1,1.6-1.9,2.1s-1.8,0.9-2.8,1.1c-1.1,0.2-2.2,0.3-3.3,0.3H61.4
		L61.5,88h12.8c2.2-0.1,4.3,0.5,6.1,1.8c1.7,1.5,2.5,3.7,2.3,5.9C82.8,96.8,82.5,98,81.9,99.1z"/>
	<g>
		<path class="st8" d="M194.4,53.6l20.3,33.9l-20.3,12l-20.3-12L194.4,53.6 M194.4,49.7l-1.7,2.9l-20.3,33.9l-1,1.7l1.7,1l20.3,12
			l1,0.6l1-0.6l20.3-12l1.7-1l-1-1.7l-20.3-33.9L194.4,49.7L194.4,49.7z"/>
	</g>
	<g>
		<path class="st8" d="M210.6,98.6l-16.2,23l-16.2-23l16.2,9.5L210.6,98.6 M217.6,92.2l-7.9,4.6l-15.2,8.9l-15.2-8.9l-7.9-4.6
			l5.3,7.5l16.2,23l1.6,2.3l1.6-2.3l16.2-23L217.6,92.2L217.6,92.2z"/>
	</g>
</g>
<g id="Ebene_3">
	<g>
		<path class="st8" d="M119.5,148.7l15.1,0.1l-6.6,24.8l9.1-3.1l-1.4,5l-8.9,3.3l-4.6,17l30.3,0.1l-2.4,8.5l-45.2-0.2l5-19.1l-7,2.4
			l1.4-5.2l7.1-2.6L119.5,148.7 M118,146.7l-0.4,1.5l-7.8,30l-6.1,2.2l-1,0.4l-0.3,1L101,187l-1,3.6l3.6-1.2l3.5-1.2l-4.1,15.5
			l-0.7,2.5l2.6,0l45.2,0.2l1.5,0l0.4-1.5l2.4-8.5l0.7-2.5l-2.6,0l-27.7-0.1l3.7-13.5l7.9-2.9l1-0.4l0.3-1l1.4-5l1-3.6l-3.6,1.2
			l-5.5,1.9l5.6-21.2l0.7-2.5l-2.6,0l-15.1-0.1L118,146.7L118,146.7z"/>
	</g>
</g>
</svg>
