<?xml version="1.0" encoding="utf-8"?>
<!-- Generator: Adobe Illustrator 22.0.1, SVG Export Plug-In . SVG Version: 6.00 Build 0)  -->
<svg version="1.1" id="Ebene_1" xmlns="http://www.w3.org/2000/svg" xmlns:xlink="http://www.w3.org/1888/xlink" x="0px" y="0px"
	 viewBox="0 0 256 256" style="enable-background:new 0 0 256 256;" xml:space="preserve">
<style type="text/css">
	.st0{display:none;}
	.st1{display:inline;fill-opacity:0;stroke:#BBBBBB;}
	.st2{display:inline;}
	.st3{fill-opacity:0;stroke:#5E94BF;}
	.st4{display:inline;fill-opacity:0;stroke:#CCCCCC;}
	.st5{display:inline;fill-opacity:0;stroke:#5E94BF;}
	.st6{fill:none;stroke:#888888;stroke-width:2;stroke-miterlimit:10;}
	.st7{fill:#888888;}
</style>
<g id="Layer_1">
</g>
<g id="Layer_7" class="st0">
	<path class="st1" d="M36.5,39.1h184.1v178.8H36.5V39.1z"/>
</g>
<g id="Layer_2" class="st0">
	<path class="st1" d="M164.5,189.7L56.8,127.5c-2.2-1.3-3-4.2-1.7-6.4l31.7-54.8c1.3-2.2,4.2-3,6.4-1.7l107.7,62.2
		c2.2,1.3,3,4.2,1.7,6.4L170.9,188C169.6,190.2,166.7,191,164.5,189.7z"/>
	<path class="st1" d="M64.7,104.4L45,93l12.3-21.4L77.1,83L64.7,104.4z"/>
</g>
<g id="Layer_3" class="st0">
	<g class="st2">
		<g>
			<path class="st3" d="M159.3,204.6c0.6,0.4,0.9,1.2,0.5,1.8"/>
			<path class="st3" d="M159.3,204.6c-0.6-0.4-1.4-0.1-1.8,0.5"/>
			<path class="st3" d="M155.6,205.6c0.6,0.4,1.5,0.1,1.8-0.5"/>
			<path class="st3" d="M155.6,205.6c-0.6-0.4-0.9-1.2-0.5-1.8"/>
			<path class="st3" d="M154.6,201.9c0.6,0.4,0.9,1.2,0.5,1.8"/>
			<path class="st3" d="M154.6,201.9c-0.6-0.4-1.5-0.1-1.8,0.5"/>
			<path class="st3" d="M151,202.9c0.6,0.4,1.4,0.1,1.8-0.5"/>
			<path class="st3" d="M151,202.9c-0.6-0.4-0.9-1.2-0.5-1.8"/>
			<path class="st3" d="M150,199.3c0.6,0.4,0.9,1.2,0.5,1.8"/>
			<path class="st3" d="M150,199.3c-0.6-0.4-1.5-0.1-1.8,0.5"/>
			<path class="st3" d="M146.4,200.3c0.6,0.4,1.4,0.1,1.8-0.5"/>
			<path class="st3" d="M146.4,200.3c-0.6-0.4-0.9-1.2-0.5-1.8"/>
			<path class="st3" d="M145.4,196.6c0.6,0.4,0.9,1.2,0.5,1.8"/>
			<path class="st3" d="M145.4,196.6c-0.6-0.4-1.4-0.1-1.8,0.5"/>
			<path class="st3" d="M141.8,197.6c0.6,0.4,1.5,0.1,1.8-0.5"/>
			<path class="st3" d="M141.8,197.6c-0.6-0.4-0.9-1.2-0.5-1.8"/>
			<path class="st3" d="M140.8,194c0.6,0.4,0.9,1.2,0.5,1.8"/>
			<path class="st3" d="M140.8,194c-0.6-0.4-1.5-0.1-1.8,0.5"/>
			<path class="st3" d="M137.2,194.9c0.6,0.4,1.5,0.1,1.8-0.5"/>
			<path class="st3" d="M137.2,194.9c-0.6-0.4-0.9-1.2-0.5-1.8"/>
			<path class="st3" d="M136.2,191.3c0.6,0.4,0.9,1.2,0.5,1.8"/>
			<path class="st3" d="M136.2,191.3c-0.6-0.4-1.4-0.1-1.8,0.5"/>
			<path class="st3" d="M132.6,192.3c0.6,0.4,1.5,0.1,1.8-0.5"/>
			<path class="st3" d="M132.6,192.3c-0.6-0.4-0.9-1.2-0.5-1.8"/>
			<path class="st3" d="M131.6,188.7c0.6,0.4,0.9,1.2,0.5,1.8"/>
			<path class="st3" d="M131.6,188.7c-0.6-0.4-1.4-0.1-1.8,0.5"/>
			<path class="st3" d="M127.9,189.6c0.6,0.4,1.5,0.1,1.8-0.5"/>
			<path class="st3" d="M127.9,189.6c-0.6-0.4-0.9-1.2-0.5-1.8"/>
			<path class="st3" d="M127,186c0.6,0.4,0.9,1.2,0.5,1.8"/>
			<path class="st3" d="M127,186c-0.6-0.4-1.5-0.1-1.8,0.5"/>
			<path class="st3" d="M123.3,187c0.6,0.4,1.5,0.1,1.8-0.5"/>
			<path class="st3" d="M123.3,187c-0.6-0.4-0.9-1.2-0.5-1.8"/>
			<path class="st3" d="M122.4,183.3c0.6,0.4,0.9,1.2,0.5,1.8"/>
			<path class="st3" d="M122.4,183.3c-0.6-0.4-1.5-0.1-1.8,0.5"/>
			<path class="st3" d="M118.7,184.3c0.6,0.4,1.5,0.1,1.8-0.5"/>
			<path class="st3" d="M118.7,184.3c-0.6-0.4-0.9-1.2-0.5-1.8"/>
			<path class="st3" d="M117.7,180.7c0.6,0.4,0.9,1.2,0.5,1.8"/>
			<path class="st3" d="M117.7,180.7c-0.6-0.4-1.5-0.1-1.8,0.5"/>
			<path class="st3" d="M114.1,181.7c0.6,0.4,1.4,0.1,1.8-0.5"/>
			<path class="st3" d="M114.1,181.7c-0.6-0.4-0.9-1.2-0.5-1.8"/>
			<path class="st3" d="M113.1,178c0.6,0.4,0.9,1.2,0.5,1.8"/>
			<path class="st3" d="M113.1,178c-0.6-0.4-1.5-0.1-1.8,0.5"/>
			<path class="st3" d="M109.5,179c0.6,0.4,1.5,0.1,1.8-0.5"/>
			<path class="st3" d="M109.5,179c-0.6-0.4-0.9-1.2-0.5-1.8"/>
			<path class="st3" d="M108.5,175.4c0.6,0.4,0.9,1.2,0.5,1.8"/>
			<path class="st3" d="M108.5,175.4c-0.6-0.4-1.4-0.1-1.8,0.5"/>
			<path class="st3" d="M104.9,176.4c0.6,0.4,1.5,0.1,1.8-0.5"/>
			<path class="st3" d="M104.9,176.4c-0.6-0.4-0.9-1.2-0.5-1.8"/>
		</g>
		<g>
			<path class="st3" d="M103.9,172.7c0.6,0.4,0.9,1.2,0.5,1.8"/>
			<path class="st3" d="M103.9,172.7c-0.6-0.4-1.5-0.1-1.8,0.5"/>
			<path class="st3" d="M100.3,173.7c0.6,0.4,1.5,0.1,1.8-0.5"/>
			<path class="st3" d="M100.3,173.7c-0.6-0.4-0.9-1.2-0.5-1.8"/>
			<path class="st3" d="M99.3,170.1c0.6,0.4,0.9,1.2,0.5,1.8"/>
			<path class="st3" d="M99.3,170.1c-0.6-0.4-1.5-0.1-1.8,0.5"/>
			<path class="st3" d="M95.6,171.1c0.6,0.4,1.5,0.1,1.8-0.5"/>
			<path class="st3" d="M95.6,171.1c-0.6-0.4-0.9-1.2-0.5-1.8"/>
			<path class="st3" d="M94.7,167.4c0.6,0.4,0.9,1.2,0.5,1.8"/>
			<path class="st3" d="M94.7,167.4c-0.6-0.4-1.5-0.1-1.8,0.5"/>
			<path class="st3" d="M91,168.4c0.6,0.4,1.4,0.1,1.8-0.5"/>
			<path class="st3" d="M91,168.4c-0.6-0.4-0.9-1.2-0.5-1.8"/>
			<path class="st3" d="M90.1,164.8c0.6,0.4,0.9,1.2,0.5,1.8"/>
			<path class="st3" d="M90.1,164.8c-0.6-0.4-1.5-0.1-1.8,0.5"/>
			<path class="st3" d="M86.4,165.7c0.6,0.4,1.5,0.1,1.8-0.5"/>
			<path class="st3" d="M86.4,165.7c-0.6-0.4-0.9-1.2-0.5-1.8"/>
			<path class="st3" d="M85.4,162.1c0.6,0.4,0.9,1.2,0.5,1.8"/>
			<path class="st3" d="M85.4,162.1c-0.6-0.4-1.4-0.1-1.8,0.5"/>
			<path class="st3" d="M81.8,163.1c0.6,0.4,1.5,0.1,1.8-0.5"/>
			<path class="st3" d="M81.8,163.1c-0.6-0.4-0.9-1.2-0.5-1.8"/>
			<path class="st3" d="M80.8,159.5c0.6,0.4,0.9,1.2,0.5,1.8"/>
			<path class="st3" d="M80.8,159.5c-0.6-0.4-1.5-0.1-1.8,0.5"/>
			<path class="st3" d="M77.2,160.4c0.6,0.4,1.5,0.1,1.8-0.5"/>
			<path class="st3" d="M77.2,160.4c-0.6-0.4-0.9-1.2-0.5-1.8"/>
			<path class="st3" d="M76.2,156.8c0.6,0.4,0.9,1.2,0.5,1.8"/>
			<path class="st3" d="M76.2,156.8c-0.6-0.4-1.5-0.1-1.8,0.5"/>
			<path class="st3" d="M72.6,157.8c0.6,0.4,1.4,0.1,1.8-0.5"/>
			<path class="st3" d="M72.6,157.8c-0.6-0.4-0.9-1.2-0.5-1.8"/>
			<path class="st3" d="M71.6,154.1c0.6,0.4,0.9,1.2,0.5,1.8"/>
			<path class="st3" d="M71.6,154.1c-0.6-0.4-1.5-0.1-1.8,0.5"/>
			<path class="st3" d="M68,155.1c0.6,0.4,1.5,0.1,1.8-0.5"/>
			<path class="st3" d="M68,155.1c-0.6-0.4-0.9-1.2-0.5-1.8"/>
			<path class="st3" d="M67,151.5c0.6,0.4,0.9,1.2,0.5,1.8"/>
			<path class="st3" d="M67,151.5c-0.6-0.4-1.4-0.1-1.8,0.5"/>
			<path class="st3" d="M63.4,152.5c0.6,0.4,1.5,0.1,1.8-0.5"/>
			<path class="st3" d="M63.4,152.5c-0.6-0.4-0.9-1.2-0.5-1.8"/>
			<path class="st3" d="M62.4,148.8c0.6,0.4,0.9,1.2,0.5,1.8"/>
			<path class="st3" d="M62.4,148.8c-0.6-0.4-1.5-0.1-1.8,0.5"/>
			<path class="st3" d="M58.7,149.8c0.6,0.4,1.5,0.1,1.8-0.5"/>
			<path class="st3" d="M58.7,149.8c-0.6-0.4-0.9-1.2-0.5-1.8"/>
			<path class="st3" d="M57.8,146.2c0.6,0.4,0.9,1.2,0.5,1.8"/>
			<path class="st3" d="M57.8,146.2c-0.6-0.4-1.4-0.1-1.8,0.5"/>
			<path class="st3" d="M54.1,147.2c0.6,0.4,1.5,0.1,1.8-0.5"/>
			<path class="st3" d="M54.1,147.2c-0.6-0.4-0.9-1.2-0.5-1.8"/>
			<path class="st3" d="M53.1,143.5c0.6,0.4,0.9,1.2,0.5,1.8"/>
			<path class="st3" d="M53.1,143.5c-0.6-0.4-1.5-0.1-1.8,0.5"/>
			<path class="st3" d="M49.5,144.5c0.6,0.4,1.5,0.1,1.8-0.5"/>
			<path class="st3" d="M49.5,144.5c-0.6-0.4-0.9-1.2-0.5-1.8"/>
		</g>
	</g>
	<g class="st2">
		<g>
			<path class="st3" d="M211.3,112.5c0.6,0.4,0.9,1.2,0.5,1.8"/>
			<path class="st3" d="M211.3,112.5c-0.6-0.4-1.4-0.1-1.8,0.5"/>
			<path class="st3" d="M207.7,113.5c0.6,0.4,1.5,0.1,1.8-0.5"/>
			<path class="st3" d="M207.7,113.5c-0.6-0.4-0.9-1.2-0.5-1.8"/>
			<path class="st3" d="M206.7,109.8c0.6,0.4,0.9,1.2,0.5,1.8"/>
			<path class="st3" d="M206.7,109.8c-0.6-0.4-1.5-0.1-1.8,0.5"/>
			<path class="st3" d="M203,110.8c0.6,0.4,1.4,0.1,1.8-0.5"/>
			<path class="st3" d="M203,110.8c-0.6-0.4-0.9-1.2-0.5-1.8"/>
			<path class="st3" d="M202.1,107.2c0.6,0.4,0.9,1.2,0.5,1.8"/>
			<path class="st3" d="M202.1,107.2c-0.6-0.4-1.5-0.1-1.8,0.5"/>
			<path class="st3" d="M198.4,108.2c0.6,0.4,1.5,0.1,1.8-0.5"/>
			<path class="st3" d="M198.4,108.2c-0.6-0.4-0.9-1.2-0.5-1.8"/>
			<path class="st3" d="M197.5,104.5c0.6,0.4,0.9,1.2,0.5,1.8"/>
			<path class="st3" d="M197.5,104.5c-0.6-0.4-1.5-0.1-1.8,0.5"/>
			<path class="st3" d="M193.8,105.5c0.6,0.4,1.4,0.1,1.8-0.5"/>
			<path class="st3" d="M193.8,105.5c-0.6-0.4-0.9-1.2-0.5-1.8"/>
			<path class="st3" d="M192.8,101.9c0.6,0.4,0.9,1.2,0.5,1.8"/>
			<path class="st3" d="M192.8,101.9c-0.6-0.4-1.4-0.1-1.8,0.5"/>
			<path class="st3" d="M189.2,102.9c0.6,0.4,1.5,0.1,1.8-0.5"/>
			<path class="st3" d="M189.2,102.9c-0.6-0.4-0.9-1.2-0.5-1.8"/>
			<path class="st3" d="M188.2,99.2c0.6,0.4,0.9,1.2,0.5,1.8"/>
			<path class="st3" d="M188.2,99.2c-0.6-0.4-1.5-0.1-1.8,0.5"/>
			<path class="st3" d="M184.6,100.2c0.6,0.4,1.5,0.1,1.8-0.5"/>
			<path class="st3" d="M184.6,100.2c-0.6-0.4-0.9-1.2-0.5-1.8"/>
			<path class="st3" d="M183.6,96.6c0.6,0.4,0.9,1.2,0.5,1.8"/>
			<path class="st3" d="M183.6,96.6c-0.6-0.4-1.4-0.1-1.8,0.5"/>
			<path class="st3" d="M180,97.5c0.6,0.4,1.5,0.1,1.8-0.5"/>
			<path class="st3" d="M180,97.5c-0.6-0.4-0.9-1.2-0.5-1.8"/>
			<path class="st3" d="M179,93.9c0.6,0.4,0.9,1.2,0.5,1.8"/>
			<path class="st3" d="M179,93.9c-0.6-0.4-1.5-0.1-1.8,0.5"/>
			<path class="st3" d="M175.4,94.9c0.6,0.4,1.4,0.1,1.8-0.5"/>
			<path class="st3" d="M175.4,94.9c-0.6-0.4-0.9-1.2-0.5-1.8"/>
			<path class="st3" d="M174.4,91.3c0.6,0.4,0.9,1.2,0.5,1.8"/>
			<path class="st3" d="M174.4,91.3c-0.6-0.4-1.5-0.1-1.8,0.5"/>
			<path class="st3" d="M170.8,92.2c0.6,0.4,1.4,0.1,1.8-0.5"/>
			<path class="st3" d="M170.8,92.2c-0.6-0.4-0.9-1.2-0.5-1.8"/>
			<path class="st3" d="M169.8,88.6c0.6,0.4,0.9,1.2,0.5,1.8"/>
			<path class="st3" d="M169.8,88.6c-0.6-0.4-1.5-0.1-1.8,0.5"/>
			<path class="st3" d="M166.1,89.6c0.6,0.4,1.4,0.1,1.8-0.5"/>
			<path class="st3" d="M166.1,89.6c-0.6-0.4-0.9-1.2-0.5-1.8"/>
			<path class="st3" d="M165.2,85.9c0.6,0.4,0.9,1.2,0.5,1.8"/>
			<path class="st3" d="M165.2,85.9c-0.6-0.4-1.4-0.1-1.8,0.5"/>
			<path class="st3" d="M161.5,86.9c0.6,0.4,1.5,0.1,1.8-0.5"/>
			<path class="st3" d="M161.5,86.9c-0.6-0.4-0.9-1.2-0.5-1.8"/>
			<path class="st3" d="M160.5,83.3c0.6,0.4,0.9,1.2,0.5,1.8"/>
			<path class="st3" d="M160.5,83.3c-0.6-0.4-1.4-0.1-1.8,0.5"/>
			<path class="st3" d="M156.9,84.3c0.6,0.4,1.5,0.1,1.8-0.5"/>
			<path class="st3" d="M156.9,84.3c-0.6-0.4-0.9-1.2-0.5-1.8"/>
		</g>
		<g>
			<path class="st3" d="M155.9,80.6c0.6,0.4,0.9,1.2,0.5,1.8"/>
			<path class="st3" d="M155.9,80.6c-0.6-0.4-1.5-0.1-1.8,0.5"/>
			<path class="st3" d="M152.3,81.6c0.6,0.4,1.4,0.1,1.8-0.5"/>
			<path class="st3" d="M152.3,81.6c-0.6-0.4-0.9-1.2-0.5-1.8"/>
			<path class="st3" d="M151.3,78c0.6,0.4,0.9,1.2,0.5,1.8"/>
			<path class="st3" d="M151.3,78c-0.6-0.4-1.5-0.1-1.8,0.5"/>
			<path class="st3" d="M147.7,79c0.6,0.4,1.4,0.1,1.8-0.5"/>
			<path class="st3" d="M147.7,79c-0.6-0.4-0.9-1.2-0.5-1.8"/>
			<path class="st3" d="M146.7,75.3c0.6,0.4,0.9,1.2,0.5,1.8"/>
			<path class="st3" d="M146.7,75.3c-0.6-0.4-1.4-0.1-1.8,0.5"/>
			<path class="st3" d="M143.1,76.3c0.6,0.4,1.4,0.1,1.8-0.5"/>
			<path class="st3" d="M143.1,76.3c-0.6-0.4-0.9-1.2-0.5-1.8"/>
			<path class="st3" d="M142.1,72.7c0.6,0.4,0.9,1.2,0.5,1.8"/>
			<path class="st3" d="M142.1,72.7c-0.6-0.4-1.4-0.1-1.8,0.5"/>
			<path class="st3" d="M138.4,73.7c0.6,0.4,1.4,0.1,1.8-0.5"/>
			<path class="st3" d="M138.4,73.7c-0.6-0.4-0.9-1.2-0.5-1.8"/>
			<path class="st3" d="M137.5,70c0.6,0.4,0.9,1.2,0.5,1.8"/>
			<path class="st3" d="M137.5,70c-0.6-0.4-1.4-0.1-1.8,0.5"/>
			<path class="st3" d="M133.8,71c0.6,0.4,1.5,0.1,1.8-0.5"/>
			<path class="st3" d="M133.8,71c-0.6-0.4-0.9-1.2-0.5-1.8"/>
			<path class="st3" d="M132.9,67.4c0.6,0.4,0.9,1.2,0.5,1.8"/>
			<path class="st3" d="M132.9,67.4c-0.6-0.4-1.4-0.1-1.8,0.5"/>
			<path class="st3" d="M129.2,68.3c0.6,0.4,1.5,0.1,1.8-0.5"/>
			<path class="st3" d="M129.2,68.3c-0.6-0.4-0.9-1.2-0.5-1.8"/>
			<path class="st3" d="M128.2,64.7c0.6,0.4,0.9,1.2,0.5,1.8"/>
			<path class="st3" d="M128.2,64.7c-0.6-0.4-1.5-0.1-1.8,0.5"/>
			<path class="st3" d="M124.6,65.7c0.6,0.4,1.4,0.1,1.8-0.5"/>
			<path class="st3" d="M124.6,65.7c-0.6-0.4-0.9-1.2-0.5-1.8"/>
			<path class="st3" d="M123.6,62.1c0.6,0.4,0.9,1.2,0.5,1.8"/>
			<path class="st3" d="M123.6,62.1c-0.6-0.4-1.5-0.1-1.8,0.5"/>
			<path class="st3" d="M120,63c0.6,0.4,1.4,0.1,1.8-0.5"/>
			<path class="st3" d="M120,63c-0.6-0.4-0.9-1.2-0.5-1.8"/>
			<path class="st3" d="M119,59.4c0.6,0.4,0.9,1.2,0.5,1.8"/>
			<path class="st3" d="M119,59.4c-0.6-0.4-1.5-0.1-1.8,0.5"/>
			<path class="st3" d="M115.4,60.4c0.6,0.4,1.5,0.1,1.8-0.5"/>
			<path class="st3" d="M115.4,60.4c-0.6-0.4-0.9-1.2-0.5-1.8"/>
			<path class="st3" d="M114.4,56.7c0.6,0.4,0.9,1.2,0.5,1.8"/>
			<path class="st3" d="M114.4,56.7c-0.6-0.4-1.4-0.1-1.8,0.5"/>
			<path class="st3" d="M110.8,57.7c0.6,0.4,1.5,0.1,1.8-0.5"/>
			<path class="st3" d="M110.8,57.7c-0.6-0.4-0.9-1.2-0.5-1.8"/>
			<path class="st3" d="M109.8,54.1c0.6,0.4,0.9,1.2,0.5,1.8"/>
			<path class="st3" d="M109.8,54.1c-0.6-0.4-1.5-0.1-1.8,0.5"/>
			<path class="st3" d="M106.2,55.1c0.6,0.4,1.5,0.1,1.8-0.5"/>
			<path class="st3" d="M106.2,55.1c-0.6-0.4-0.9-1.2-0.5-1.8"/>
			<path class="st3" d="M105.2,51.4c0.6,0.4,0.9,1.2,0.5,1.8"/>
			<path class="st3" d="M105.2,51.4c-0.6-0.4-1.5-0.1-1.8,0.5"/>
			<path class="st3" d="M101.5,52.4c0.6,0.4,1.5,0.1,1.8-0.5"/>
			<path class="st3" d="M101.5,52.4c-0.6-0.4-0.9-1.2-0.5-1.8"/>
		</g>
	</g>
</g>
<g id="Layer_4" class="st0">
	<path class="st4" d="M143.6,43.8l55.1,31.8c4.6,2.6,6.1,8.4,3.5,13l-31.2,54l-26.3,45.6l-6.6,11.4c-2.6,4.5-8.4,6.1-13,3.5
		l-89.4-51.6"/>
</g>
<g id="Layer_5" class="st0">
	<path class="st5" d="M164.3,144.2l-6.2,2.4l-6.5-3.8l2.1-3.6c0.2-0.4,0.3-0.8,0.1-1.2c-0.1-0.4-0.3-0.7-0.7-1l-8.3-4.8
		c-0.4-0.2-0.8-0.3-1.2-0.1l-6.9,2.1l-14.4-8.3c-1.8-1-4-0.5-5,1.2L97,162.2c-1,1.7-0.4,3.9,1.4,4.9l54.7,31.6c1.7,0.8,4,0.5,5-1.2
		l23.2-40.1c1-1.7,0.4-3.9-1.4-4.9l-14-8.1C165.3,144,164.8,143.9,164.3,144.2z"/>
</g>
<path class="st6" d="M108,63l29.6,0.1c0.3,0,0.5,0.5,0.5,1l-0.2,41.5c0,0.6-0.2,1-0.5,1l-29.6-0.1c-0.3,0-0.5-0.5-0.5-1l0.2-41.5
	C107.5,63.5,107.7,63,108,63z"/>
<g>
	<path class="st6" d="M74,68.3l33.3,0.1"/>
	<path class="st6" d="M107.2,101.1L73.9,101c-0.3,0-0.6-0.3-0.6-0.8l0.1-31.1c0-0.4,0.3-0.8,0.6-0.8"/>
</g>
<g>
	<path class="st7" d="M90.6,74.8v5.6h-2.7v-5.6H90.6 M91.9,72.8h-5.3c-0.3,0-0.6,0.4-0.7,1v7.6c0,0.5,0.3,1,0.7,1h5.3
		c0.4,0,0.7-0.4,0.7-1v-7.6C92.6,73.3,92.3,72.8,91.9,72.8L91.9,72.8z"/>
</g>
<g>
	<path class="st7" d="M90.6,89v5.6h-2.7V89H90.6 M91.9,87h-5.3c-0.4,0-0.7,0.4-0.7,1v7.6c0,0.5,0.3,1,0.7,1h5.3c0.4,0,0.7-0.4,0.7-1
		V88C92.6,87.5,92.3,87,91.9,87L91.9,87z"/>
</g>
<path class="st6" d="M98.3,125.1c2-0.8,1.1-0.6,2.6-0.8l91.7-0.1"/>
<path class="st6" d="M136.2,197H101c-2.6,0-4.7-2.1-4.7-4.7L96.2,129c0-2,0.8-2.6,2.1-3.9"/>
<path class="st6" d="M96.2,148.3H73.5V173h22.7"/>
<g id="Layer_8" class="st0">
</g>
</svg>
