<?xml version="1.0" encoding="utf-8"?>
<!-- Generator: Adobe Illustrator 22.0.1, SVG Export Plug-In . SVG Version: 6.00 Build 0)  -->
<svg version="1.1" id="Ebene_1" xmlns="http://www.w3.org/2000/svg" xmlns:xlink="http://www.w3.org/1999/xlink" x="0px" y="0px"
	 viewBox="0 0 256 256" style="enable-background:new 0 0 256 256;" xml:space="preserve">
<style type="text/css">
	.st0{fill:none;stroke:#888888;stroke-width:2;stroke-miterlimit:10;}
</style>
<path class="st0" d="M183.4,146L72.3,209.2c-5.6,3.2-12.7,1.2-15.8-4.3l-26.3-46.3c-3.2-5.6-1.2-12.7,4.3-15.8l111.2-63.3
	c5.6-3.2,12.7-1.2,15.8,4.3l26.3,46.3C191,135.7,189,142.8,183.4,146z"/>
<path class="st0" d="M78.7,200c3.4-2,4.6-6.3,2.7-9.8c-2-3.4-6.3-4.6-9.8-2.7l-8.4,4.8c-3.4,2-4.6,6.3-2.7,9.8
	c2,3.4,6.3,4.6,9.8,2.7L78.7,200z"/>
<path class="st0" d="M161.6,83.9l42-23.7c1.3-0.7,3-0.3,3.8,1.1l22.9,40.7c0.7,1.3,0.3,3-1.1,3.8l-42.1,23.7"/>
</svg>
