<?xml version="1.0" encoding="utf-8"?>
<!-- Generator: Adobe Illustrator 22.0.1, SVG Export Plug-In . SVG Version: 6.00 Build 0)  -->
<svg version="1.1" id="Ebene_1" xmlns="http://www.w3.org/2000/svg" xmlns:xlink="http://www.w3.org/1999/xlink" x="0px" y="0px"
	 viewBox="0 0 256 256" style="enable-background:new 0 0 256 256;" xml:space="preserve">
<style type="text/css">
	.st0{fill:none;stroke:#888888;stroke-width:2;}
</style>
<g id="Ebene_1_1_">
	<path class="st0" d="M114.5,131.1c16.7,10.8,35.1,20.6,48.5,33.4l-1.3,1.5c-0.4,0.4-0.5,1.1-0.2,1.6l8,16.1c2.2,4.4,7,6.9,11.9,6.1
		c4.9-0.8,8.6-4.7,9.3-9.6c0.6-4.9-2-9.6-6.5-11.7l-16.4-7.5c-0.5-0.2-1.2-0.1-1.6,0.3l-2.2,2.1c-7.4-8-13.7-22.1-21.9-35.6
		c-9.2-15.1-18.7-30.7-28-39.8c-17-16.4-44.8-29.5-55.2-21.8c-2,1.5-3.1,3.8-3,6.6c0.1,10.4,15.5,28.8,35.7,42.9
		C99,121.1,106.9,126.2,114.5,131.1z"/>
</g>
<g id="Ebene_2_1_">
</g>
</svg>
