<?xml version="1.0" encoding="utf-8"?>
<!-- Generator: Adobe Illustrator 22.0.1, SVG Export Plug-In . SVG Version: 6.00 Build 0)  -->
<svg version="1.1" id="Ebene_1" xmlns="http://www.w3.org/2000/svg" xmlns:xlink="http://www.w3.org/1999/xlink" x="0px" y="0px"
	 viewBox="0 0 256 256" style="enable-background:new 0 0 256 256;" xml:space="preserve">
<style type="text/css">
	.st0{fill:none;stroke:#888888;stroke-width:3;}
</style>
<path class="st0" d="M179.8,135.3c-3.8-5.4-9.4-9.2-15.7-10.8c4.7-2,8.7-5.2,11.7-9.3c2.8-4.3,4.2-9.3,4-14.4
	c0.2-4.6-0.7-9.2-2.5-13.5c-1.7-3.5-4.2-6.6-7.4-8.8c-3.5-2.4-7.4-4.1-11.5-5c-4.9-1-9.9-1.6-14.9-1.5h-2.3V49.4h-15.9v22.4h-10.9
	V49.8l-15.7-0.3v22.1h-1H72.9v15.9h16.7l-0.7,83.1L72,170.3v15.9h24.6h0.9v21.3h15.9v-21.3h10.9v20.9h15.9v-20.9h4
	c5,0.1,10-0.5,14.9-1.8c4.7-1.1,9.1-3,13.1-5.7c3.8-2.5,7-6,9.3-9.9c2.4-4.6,3.6-9.7,3.5-14.9C185.2,147.3,183.4,140.8,179.8,135.3z
	 M114.6,91.4h23.6c2.2,0,4.4,0.2,6.5,0.6c2,0.4,3.8,1.2,5.5,2.2c1.6,1,2.9,2.4,3.8,4c1,2.1,1.5,4.3,1.4,6.6c0.3,4-1.3,7.9-4.4,10.4
	c-3.3,2.2-7.2,3.3-11.1,3.1h-25.5L114.6,91.4z M158.1,159.4c-0.9,1.9-2.4,3.4-4.1,4.6c-1.8,1.1-3.8,1.9-5.9,2.3
	c-2.3,0.5-4.7,0.7-7.1,0.7h-27l0.2-31.4h27.4c4.7-0.2,9.3,1.1,13.1,3.8c3.6,3.2,5.4,7.9,5,12.6C159.8,154.6,159.3,157.1,158.1,159.4
	L158.1,159.4z"/>
</svg>
