<?xml version="1.0" encoding="utf-8"?>
<!-- Generator: Adobe Illustrator 23.0.6, SVG Export Plug-In . SVG Version: 6.00 Build 0)  -->
<svg version="1.1" id="Ebene_1" xmlns="http://www.w3.org/2000/svg" xmlns:xlink="http://www.w3.org/1999/xlink" x="0px" y="0px"
	 viewBox="0 0 256 256" style="enable-background:new 0 0 256 256;" xml:space="preserve">
<style type="text/css">
	.st0{fill:none;stroke:#888888;stroke-width:2;}
</style>
<g>
	<path class="st0" d="M137.9,237.2l-11.4-28.8l-10.8-11.1l-14.1-15.9l-9.7-18.3l-6.9-9.1l-9.3-11l-7.9-12l-10-13.3l-5.6-5.6
		l-2.9-6.1l0.5-5.5l-1.8-6.3L47.6,90l-7.8-15.1l-0.7-3.8l2.3-3.5l4.8-2.1l5.8,0.8l7.4,3.5l8.4,6.4l5.8,7.2l3.4,6.1l1.5,2.3l0.2,2.2"
		/>
	<path class="st0" d="M75,94l4.2,0.3l4.2,3.1l5.2,5.4l4,5l0.5,1.5"/>
	<path class="st0" d="M91,110.3l1.4-0.6h1.4l2.9,1.7l3.2,2.1l8.4,2.3l5.2-0.7l9.8-7.7l2.1-3.3l1.2-3l0.3-3.2l2-2.7l3.1-2.8"/>
	<path class="st0" d="M127.1,97.9c0,0,0-3.2-0.2-3.6c-0.2-0.5,0.5-7.2,0.5-7.2l1.6-8l2-6.1l-1.6-4.9c0,0-1.8-7.4-1.8-7.8
		c0-0.4,0.8-8.5,0.8-8.5"/>
	<path class="st0" d="M128.7,65.6l-3.4-3l-3.1-5.1l-0.6-3.2"/>
	<path class="st0" d="M130.8,72.9l-3.3,3.2l-4.7,3.1l-4.4,0.9l-4.8-1l-4.2-2.4c0,0-1.7-4.1-1.7-4.4c0-0.4,0.5-4.8,0.5-4.8l3.1-6.5
		l6.6-11l4.9-5.9l2.7-2l4.5-3.8l8.1-5.4l6.3-1.9l6.2,0.4l5.7,1.4l2.3,2.1l2.8,6.6l3.4,10l3.5,9.2l3.7,6.6"/>
	<path class="st0" d="M159.1,35.5l3.5-2.5l5-0.8l5.1,0.7l6.2,3.8l4.4,6.1l5,9.1l4,10.4l5.2,9.5"/>
	<path class="st0" d="M190.3,57.4l6,4.8l4.9,6.1l6.8,8.5l6.5,6.3l5,4.5l3.7,5.3l3.1,5.7l1.4,3.6"/>
	<path class="st0" d="M225.3,96.9l6,3.9l3.7,6.2l2.1,6.2l-1.2,8l-4.9,13.8l-4.7,13.7l-7.7,19.8l-2.5,9.2l-4,8.5l-2.4,8.7l0.9,9.8
		l4,8.2"/>
	<path class="st0" d="M47.6,89.6l2.9-2.8l1.7-4.7l-0.8-6.1l-1.9-3.7l-2.9-1.5l-4-1.2l-2.8,0.8"/>
	<path class="st0" d="M102.8,59.4H34.9c-1.4,0-2.6-1.1-2.6-2.6V22.3c0-1.4,1.1-2.6,2.6-2.6h67.8c1.4,0,2.6,1.1,2.6,2.6v34.5
		C105.3,58.3,104.2,59.4,102.8,59.4z"/>
	<path class="st0" d="M32.3,46.3H20V32.9h12.4V46.3z"/>
</g>
</svg>
