<?xml version="1.0" encoding="utf-8"?>
<!-- Generator: Adobe Illustrator 22.0.1, SVG Export Plug-In . SVG Version: 6.00 Build 0)  -->
<svg version="1.1" id="Ebene_1" xmlns="http://www.w3.org/2000/svg" xmlns:xlink="http://www.w3.org/1999/xlink" x="0px" y="0px"
	 viewBox="0 0 256 256" style="enable-background:new 0 0 256 256;" xml:space="preserve">
<style type="text/css">
	.st0{fill:none;stroke:#888888;stroke-width:2;}
</style>
<g>
	<path class="st0" d="M132.8,85.6h58.4c0.6,0,1,0.9,1,2v81.8c0,1.1-0.5,2-1,2h-58.4c-0.6,0-1-0.9-1-2V87.6
		C131.8,86.5,132.2,85.6,132.8,85.6z"/>
	<path class="st0" d="M65.9,96.4h64.7c0.6,0,1.2,0.7,1.2,1.5v61.3c0,0.8-0.5,1.5-1.2,1.5H65.9c-0.6,0-1.2-0.7-1.2-1.5V97.9
		C64.7,97,65.2,96.4,65.9,96.4z"/>
	<path class="st0" d="M90.8,105h10.4c0.7,0,1.3,0.9,1.3,2v15c0,1.1-0.6,2-1.3,2H90.8c-0.7,0-1.3-0.9-1.3-2v-15
		C89.5,105.9,90.1,105,90.8,105z"/>
	<path class="st0" d="M90.8,133h10.4c0.7,0,1.3,0.9,1.3,2v15c0,1.1-0.6,2-1.3,2H90.8c-0.7,0-1.3-0.9-1.3-2v-15
		C89.5,133.9,90.1,133,90.8,133z"/>
</g>
</svg>
