<svg height="24" viewBox="0 0 195 195" width="24" xmlns="http://www.w3.org/2000/svg">
  <path d="m23.512 51.916c.241-2.382-.667-4.735-2.445-6.338l-18.112-21.819v-3.259h56.238l43.469 95.333 38.217-95.333h53.611v3.259l-15.485 14.848c-1.336 1.018-1.998 2.69-1.721 4.346v109.094c-.277 1.656.385 3.328 1.721 4.346l15.123 14.848v3.259h-76.071v-3.259l15.667-15.21c1.54-1.539 1.54-1.992 1.54-4.346v-88.181l-43.56 110.634h-5.886l-50.714-110.634v74.148c-.423 3.118.612 6.256 2.807 8.511l20.376 24.716v3.259h-57.777v-3.259l20.376-24.716c2.179-2.259 3.154-5.418 2.626-8.511z" fill="#fff" />
</svg>
