<?xml version="1.0" encoding="UTF-8"?>
<!DOCTYPE svg PUBLIC "-//W3C//DTD SVG 1.1//EN" "http://www.w3.org/Graphics/SVG/1.1/DTD/svg11.dtd">
<svg version="1.1" xmlns="http://www.w3.org/2000/svg" xmlns:xlink="http://www.w3.org/1999/xlink" x="0" y="0" width="24.99" height="24.99" viewBox="0, 0, 24.99, 24.99">
  <g id="Layer_2">
    <path d="M0,0 L24.99,0 L24.99,24.99 L0,24.99 L0,0 z" fill="#FFFFFF"/>
  </g>
  <g id="Layer_1" display="none">
    <path d="M0,0 L0,25 L25,25 L25,0 z M15.17,12.5 L13.42,12.5 L13.42,18.74 L10.83,18.74 L10.83,12.5 L9.59,12.5 L9.59,10.29 L10.83,10.29 L10.83,8.87 C10.772,8.161 11.028,7.462 11.53,6.958 C12.033,6.454 12.731,6.195 13.44,6.25 L15.37,6.25 L15.37,8.4 L14,8.4 C13.842,8.389 13.687,8.451 13.58,8.567 C13.473,8.684 13.425,8.843 13.45,9 L13.45,10.29 L15.45,10.29 z" fill="#333333"/>
  </g>
  <g id="Layer_3">
    <path d="M0.012,0 L0.012,24.967 L8.56,24.967 C8.717,24.984 8.873,24.936 8.994,24.835 C9.114,24.733 9.188,24.587 9.198,24.431 C9.231,23.566 9.198,22.697 9.198,21.855 C8.593,21.913 7.985,21.939 7.377,21.934 C6.123,21.954 4.99,21.187 4.543,20.015 C4.262,19.249 3.733,18.598 3.04,18.166 C2.905,18.078 2.785,17.971 2.684,17.847 C2.55,17.689 2.573,17.528 2.79,17.481 C3.007,17.429 3.231,17.418 3.451,17.449 C4.24,17.62 4.916,18.127 5.301,18.836 C6.025,20.169 7.679,20.684 9.032,19.997 C9.127,19.964 9.203,19.891 9.24,19.798 C9.345,19.179 9.628,18.604 10.054,18.143 C9.541,18.05 9.069,17.981 8.602,17.87 C7.268,17.633 6.059,16.936 5.185,15.9 C4.511,15.004 4.098,13.938 3.992,12.821 C3.757,11.059 3.969,9.413 5.176,8.008 C5.24,7.92 5.264,7.809 5.241,7.703 C4.955,6.739 4.971,5.712 5.287,4.758 C5.444,4.24 5.486,4.217 6.013,4.295 L6.105,4.295 C7.134,4.522 8.107,4.947 8.972,5.548 C9.1,5.629 9.253,5.66 9.402,5.636 C11.497,5.12 13.687,5.12 15.782,5.636 C15.925,5.654 16.07,5.623 16.194,5.548 C16.656,5.294 17.118,5.003 17.632,4.762 C18.191,4.463 18.814,4.304 19.449,4.3 C19.584,4.312 19.705,4.39 19.772,4.508 C20.177,5.513 20.233,6.624 19.934,7.666 C19.915,7.8 19.943,7.938 20.013,8.054 C20.37,8.585 20.679,9.147 20.938,9.732 C21.496,11.493 21.341,13.402 20.508,15.049 C19.772,16.617 18.404,17.407 16.809,17.824 C16.259,17.962 15.699,18.046 15.112,18.161 C15.884,18.966 16.004,19.95 15.99,20.981 C15.976,22.012 15.99,23.108 15.99,24.172 C15.99,24.685 16.212,24.972 16.605,24.99 L24.978,24.99 L24.978,0 z" fill="#333333" id="icon-social-github"/>
    <path d="M-0.359,24.516 L8.703,24.516 L8.703,26.766 L-0.359,26.766 L-0.359,24.516 z" fill="#333132"/>
  </g>
</svg>
