<?xml version="1.0" encoding="UTF-8"?>
<!DOCTYPE svg PUBLIC "-//W3C//DTD SVG 1.1//EN" "http://www.w3.org/Graphics/SVG/1.1/DTD/svg11.dtd">
<svg version="1.1" xmlns="http://www.w3.org/2000/svg" xmlns:xlink="http://www.w3.org/1999/xlink" x="0" y="0" width="54" height="54" viewBox="0, 0, 54, 54">
  <g id="Layer_1">
    <path d="M42.15,39.72 L42.15,29.18 C42.15,23.54 39.15,20.91 35.15,20.91 C32.899,20.812 30.779,21.966 29.64,23.91 L29.64,21.31 L23.5,21.31 C23.58,23.03 23.5,39.69 23.5,39.69 L29.61,39.69 L29.61,29.46 C29.587,28.952 29.655,28.444 29.81,27.96 C30.288,26.612 31.57,25.716 33,25.73 C35.21,25.73 36.09,27.42 36.09,29.89 L36.09,39.72 z M17.06,18.83 C18.268,18.948 19.438,18.369 20.079,17.338 C20.719,16.308 20.719,15.002 20.079,13.972 C19.438,12.941 18.268,12.362 17.06,12.48 C15.884,12.404 14.763,12.984 14.146,13.987 C13.528,14.991 13.517,16.253 14.115,17.268 C14.713,18.283 15.823,18.884 17,18.83 z M20.12,39.72 L20.12,21.34 L14,21.34 L14,39.72 z M0,0 L54,0 L54,54 L0,54 z" fill="#333132"/>
  </g>
</svg>
