<svg height="24.99" viewBox="0 0 24.99 24.99" width="24.99" xmlns="http://www.w3.org/2000/svg"><path d="m0 0h24.99v24.99h-24.99z" fill="#333"/><path d="m-.005-.005v24.995h25v-24.995zm17.46 9.998v.33c-.02 2.651-1.479 5.082-3.81 6.348-2.33 1.266-5.164 1.167-7.4-.259.203.015.407.015.61 0 1.135.005 2.24-.368 3.14-1.06-1.097-.018-2.059-.734-2.39-1.78.158.033.319.05.48.05.229-.004.457-.035.68-.09-1.19-.26-2.034-1.321-2.02-2.539.356.197.753.307 1.16.32-1.126-.752-1.473-2.25-.79-3.42 1.301 1.601 3.22 2.575 5.28 2.68-.044-.194-.067-.391-.07-.59.005-1.051.65-1.992 1.628-2.378.977-.385 2.091-.136 2.812.628.573-.117 1.123-.327 1.63-.62-.198.581-.599 1.071-1.13 1.38.508-.055 1.004-.19 1.47-.4-.338.541-.771 1.016-1.28 1.4z" fill="#fff"/></svg>
