<svg height="256" viewBox="0 0 256 256" width="256" xmlns="http://www.w3.org/2000/svg"><g fill="none" stroke="#aaa" stroke-linecap="round" stroke-linejoin="round" stroke-width="2"><path d="m86.178 118.886s-1.897-24.777-1.897-24.777 19.877-19.229 19.877-19.229l16.182-40.499 43.296-26.605 16.324 5.71 1.906 10.536 21.749 6.509s-6.973 61.913-6.372 61.913 14.591 20.037 14.591 20.037l16.579 16.787-11.881 55.525-13.152 11.679-11.081 12.669-13.124-7.731-8.935 27.967-17.856 14.15s-15.561-21.992-15.561-21.992-20.408-18.574-20.408-18.574l1.04 24.619-10.679-7.863-7.839-9.98-20.658 4.54-14.646 24.596-23.56 10.351-11.486-32.71 15.763-2.437 13.813-.333.351-14.982-12.185-11.276 12.933-6.295 20.445-13.124 5.707-11.476 12.468-3.204 37.555-4.704 7.105-19.415 18.405-14.568 11.93-11.046-25.812 2.859-.586-19.742s14.051-25.206 14.107-21.431c.055 3.776-11.496-2.894-11.496-2.894s-20.271 68.095-20.271 68.095l-18.613.847z"/><path d="m47.512 167.772 2.691-17.663-15.143-16.859 3.094-8.734s17.143-4.719 17.143-4.719-1.588 17.898-1.588 17.898l12.813 22.008 7.569 3.909-21.332 9.991z"/></g></svg>
