<svg height="256" viewBox="0 0 256 256" width="256" xmlns="http://www.w3.org/2000/svg"><path d="m5.174 106.01.323 74.874 61.892 31.409 17.995-4.613-30.433-83.546 13.878 3.562 7.986-5.015 19.685 47.193s13.951 26.287 13.951 26.287 13.048 10.117 13.048 10.117l1.539 29.452 10.563-.659 25.175-9.359 25.979-16.176s21.719-8.143 21.719-8.143 22.317-30.352 22.317-30.352l-17.543-10.904-7.563-19.344-4.074 10.022-25.756 5.228s-11.638-18.49-11.638-18.49-9.161-20.026-9.161-20.026l12.626-2.333 28.757 26.403s12.049-11.821 12.049-11.821 8.7 18.013 8.7 18.013l34.638-6.501-14.78-51.537s2.273-19.12 2.273-19.12-12.401-12.215-12.401-12.215l-45.554 7.254-27.117-25.085-22.022-.696-17.866-14.112-13.011 3.869-15.363-1.126-14.971-7.25-27.819 7.496-27.347-4.454 7.026 38.263 13.712 6.722s12.852-3.551 12.852-3.551 16.298.067 16.298.067l12.898 15.238s-13.559 25.749-13.559 25.749-15.008-.686-15.008-.686-16.786 4.108-16.786 4.108z" fill="none" stroke="#aaa" stroke-width="2"/></svg>