<svg height="256" viewBox="0 0 256 256" width="256" xmlns="http://www.w3.org/2000/svg"><g fill="none" stroke="#aaa" stroke-linecap="round" stroke-linejoin="round" stroke-width="2"><path d="m138.232 249.224-5.873-6.325-6.212-1.577-5.718-4.071-5.69.245-12.281-7.138-6.944-11.78-6.604-8.496-3.403 1.494-2.815-5.243-4.254-1.803-2.873-6.363-3.182-5.148-.436-17.094 2.133-4.006-7.134-4.305-6-13.313-13.853-11.456-14.324-4.594-6.354 2.083-2.295 5.63-12.687 9.469 7.069-10.256-5.825.259-2.862-5.147-2.056-.644s-2.228-1.624-2.403-1.881c-.176-.257.143-4.699.143-4.699l6.871-5.502-.369-3.381-7.041 1.573 1.261-8.036 4.334-.942s-6.957-7.68-6.957-7.68 5.433-5.431 5.433-5.431l9.753-7.188 7.621 1.923 8.543 3.305 7.103.654 11.061 4.849 10.418-5.04 6.976 2.399 7.639-2.351 7.657 5.016 7.652 5.158 12.836-1.045 7.544 1.232 10.413-8.513 10.356 17.081-6.858 6.612-3.958 5.458-3.631 11.095 2.513 1.247s3.534 4.655 3.534 4.655 9.303 5.315 9.303 5.315l4.617.806 4.655 10.597.204-9.051 7.093-5.197s-5.061-6.579-5.061-6.579.446-10.981.446-10.981l7.964-1.238s5.905 5.247 5.905 5.247 4.361 7.339 4.361 7.339l6.283-1.3 3.518 8.961s8.291 7.798 8.291 7.798-15.837 20.873-15.837 20.873l-7.747 2.415-.565 4.876-5.312.881-3.286 5.995.12 4.597-8.214 7.521.967 12.53-2.129 1.178-3.477-9.566-7.041-1.445-3.738 2.694s-7.888.163-7.888.163-3.445 3.002-3.445 3.002l-.05 2.904-.359 8.05 4.053 4.877 6.624-.993 3.864-4.128 3.033.478-1.587 9.159 5.126.184 2.337 9.583z"/><path d="m155.788 116.59-9.458-16.213-12.379 1.318s-5.728-11.148-5.728-11.148 9.72-6.346 9.72-6.346l9.645 4.604 11.115 7.428s7.29 9.515 7.29 9.515 8.84 11.589 8.84 11.589l-5.501 18.926-15.376-10.347z"/><path d="m197.946 138.905-10.495-22.806-.351-25.348-12.393-23.266s-9.304-.101-9.304-.101-7.105-8.554-7.105-8.554l2.382-10.95 7.632-1.663-.162-9.905s-.928-5.567-.928-5.567 8.352-12.959 8.352-12.959l25.731-2.443 5.202-7.567 46.895 18.474-15.586 22.292s4.594 13.81 4.594 13.81-3.605 28.023-3.605 28.023-11.438 19.796-11.438 19.796l-19.039 5.206-.29 23.461z"/><path d="m124.417 74.086-5.88-48.5 15.697-12.421 15.173 9.403.823 22.548s-11.24 2.836-11.24 2.836 5.885 27.152 5.885 27.152-10.495 2.548-11.527 2.882c-1.032.335-8.931-3.9-8.931-3.9z"/></g></svg>