<svg height="256" viewBox="0 0 256 256" width="256" xmlns="http://www.w3.org/2000/svg"><path d="m98.237 248.617-17.525-30.02 11.452-36.771s-5.329-13.7-5.329-13.7 6.936-18.619 6.936-18.619l-.225-12.641 3.586-33.804s-18.073-14.763-18.073-14.763-15.977-29.832-15.977-29.832l4.432-17.023s8.114-11.88 8.114-11.88-1.704-10.618-1.704-10.618l-12.056 1.645-.225-4.513 18.26-1.11 12.934-7.192 10.79 3.63s18.546-.409 18.546-.409 15.721 14.97 15.721 14.97l18.855 6.829 7.075 14.906s21.754 5.449 22.638 5.355c.883-.094 18.843 7.193 18.843 7.193l1.819 6.303-13.136 21.154.204 33.556-29.205 10.525-14.581 30.956-28.417 11.854-15.754 28.378-3.13 19.662 1.978 26.586z" fill="none" stroke="#aaa" stroke-width="2"/></svg>