<svg height="256" viewBox="0 0 256 256" width="256" xmlns="http://www.w3.org/2000/svg"><g fill="none" stroke="#aaa" stroke-width="2"><g stroke-linecap="round" stroke-linejoin="round"><path d="m63.294 154.352-2.563-2.76-2.712-.688-2.495-1.777-2.483.107-5.36-3.115-3.031-5.142-2.883-3.708-1.485.652-1.228-2.288-1.857-.787-1.254-2.777-1.389-2.247-.19-7.46.931-1.749-3.113-1.879-2.619-5.81-6.046-5-6.252-2.005-2.773.909-1.002 2.457-5.537 4.133 3.085-4.476-2.542.112-1.249-2.246-.898-.281s-.972-.709-1.048-.821c-.077-.112.062-2.051.062-2.051l2.999-2.401-.161-1.476-3.073.687.55-3.507 1.892-.412s-3.037-3.351-3.037-3.351 2.371-2.371 2.371-2.371l4.257-3.137 3.327.839 3.728 1.443 3.1.285 4.828 2.117 4.546-2.2 3.045 1.047 3.334-1.026 3.342 2.189 3.34 2.251 5.602-.456 3.293.538 4.544-3.716 4.52 7.455-2.993 2.886-1.728 2.382-1.584 4.843 1.097.544s1.542 2.031 1.542 2.031 4.06 2.32 4.06 2.32l2.015.352 2.032 4.625.089-3.95 3.096-2.269s-2.209-2.871-2.209-2.871.194-4.793.194-4.793l3.476-.54s2.578 2.29 2.578 2.29 1.903 3.203 1.903 3.203l2.742-.567 1.535 3.911s3.619 3.403 3.619 3.403-6.912 9.11-6.912 9.11l-3.381 1.054-.247 2.129-2.318.384-1.434 2.616.052 2.007-3.585 3.282.422 5.469-.929.514-1.518-4.175-3.073-.631-1.631 1.176s-3.443.072-3.443.072-1.503 1.309-1.503 1.309l-.022 1.268-.157 3.513 1.769 2.129 2.891-.434 1.687-1.801 1.323.209-.692 3.997 2.237.08 1.02 4.183z"/><path d="m70.956 96.465-4.128-7.076-5.403.575s-2.5-4.865-2.5-4.865 4.243-2.77 4.243-2.77l4.209 2.009 4.852 3.242s3.181 4.153 3.181 4.153 3.858 5.058 3.858 5.058l-2.401 8.26-6.711-4.516z"/><path d="m89.356 106.204-4.581-9.953-.153-11.063-5.409-10.155s-4.06-.044-4.06-.044-3.101-3.733-3.101-3.733l1.039-4.779 3.331-.726-.071-4.323s-.404-2.43-.404-2.43 3.645-5.656 3.645-5.656l11.23-1.066 2.27-3.302 20.467 8.062-6.802 9.73s2.005 6.027 2.005 6.027-1.573 12.231-1.573 12.231-4.992 8.639-4.992 8.639l-8.31 2.272-.127 10.24z"/><path d="m57.264 77.914-2.566-21.168 6.851-5.421 6.622 4.104.359 9.841s-4.905 1.238-4.905 1.238 2.568 11.85 2.568 11.85-4.58 1.112-5.031 1.258c-.45.147-3.898-1.702-3.898-1.702z"/></g><path d="m73.087 207.887-4.03-6.904 2.634-8.457s-1.226-3.151-1.226-3.151 1.595-4.281 1.595-4.281l-.051-2.908.824-7.774s-4.156-3.395-4.156-3.395-3.675-6.861-3.675-6.861l1.02-3.915s1.866-2.732 1.866-2.732-.392-2.442-.392-2.442l-2.773.378-.052-1.038 4.2-.255 2.974-1.654 2.482.835s4.265-.094 4.265-.094 3.616 3.443 3.616 3.443l4.336 1.57 1.627 3.428s5.003 1.253 5.206 1.232c.204-.022 4.334 1.654 4.334 1.654l.418 1.45-3.021 4.865.047 7.717-6.716 2.42-3.354 7.12-6.535 2.726-3.623 6.526-.72 4.522.455 6.114z"/><path d="m124.071 105.829s-.354-4.621-.354-4.621 3.707-3.586 3.707-3.586l3.018-7.553 8.075-4.962 3.044 1.065.355 1.965 4.057 1.214s-1.301 11.546-1.189 11.546 2.721 3.737 2.721 3.737l3.092 3.131-2.216 10.355-2.452 2.178-2.067 2.363-2.447-1.442-1.667 5.216-3.33 2.639s-2.902-4.102-2.902-4.102-3.806-3.464-3.806-3.464l.194 4.591-1.991-1.466-1.462-1.861-3.853.847-2.731 4.587-4.394 1.93-2.142-6.1 2.939-.455 2.577-.062.065-2.794-2.272-2.103 2.411-1.174 3.813-2.447 1.065-2.141 2.325-.597 7.004-.877 1.325-3.621 3.432-2.717 2.225-2.06-4.814.533-.109-3.682s2.62-4.7 2.631-3.996c.01.704-2.144-.54-2.144-.54s-3.781 12.699-3.781 12.699l-3.471.158z"/><path d="m116.86 114.946.502-3.294-2.824-3.145.577-1.628s3.197-.88 3.197-.88-.296 3.337-.296 3.337l2.389 4.105 1.412.729-3.978 1.863z"/><path d="m140.651 136.582.035 8.247 6.817 3.46 1.982-.508-3.352-9.202 1.529.392.879-.552 2.169 5.198s1.536 2.895 1.536 2.895 1.437 1.114 1.437 1.114l.17 3.244 1.163-.072 2.773-1.031 2.862-1.782s2.392-.897 2.392-.897 2.458-3.343 2.458-3.343l-1.932-1.201-.833-2.13-.449 1.103-2.837.576s-1.282-2.036-1.282-2.036-1.009-2.206-1.009-2.206l1.391-.257 3.167 2.908s1.327-1.302 1.327-1.302.959 1.984.959 1.984l3.815-.716-1.628-5.676s.25-2.106.25-2.106-1.366-1.346-1.366-1.346l-5.017.799-2.987-2.763-2.426-.076-1.967-1.555-1.434.426-1.692-.124-1.649-.798-3.064.825-3.012-.49.774 4.214 1.51.741s1.416-.391 1.416-.391 1.795.007 1.795.007l1.421 1.678s-1.494 2.836-1.494 2.836-1.653-.075-1.653-.075-1.849.452-1.849.452z"/><path d="m149.597 93.247 7.001 10.608-.034 13.683 11.443 6.086 2.415 10.413s6.966 11.996 6.966 11.996 2.683-.506 2.683-.506l.627-4.478 6.67-5.159 3.451 5.333 1.535-.586 6.604 4.66 1.751-2.849-1.261-5.611 7.385-2.214 3.186-4.429s-2.084-8.419-2.084-8.419 2.053-.733 2.053-.733l3.538 5.186s1.655-1.126 1.655-1.126-.756-3.677-.756-3.677l7.17-6.796 1.178-7.774-3.905-2.661 5.434-4.674s7.811.592 7.811.592 7.097-4.877 7.097-4.877l1.219.052-4.526 6.105-1.563 7.926 4.631-2.01s.081-4.958.081-4.958.647-3.365.647-3.365l4.207-.124 8.561-13.671-7.257-4.995-5.435 3.727s-3.857-3.948-3.857-3.948-4.706-.192-4.706-.192-5.209-4.431-5.357-3.619c-.147.812-3.864.661-3.864.661l-4.791 3.371-3.64-2.007-.188-4.317-10.595-.409-1.642-1.583 2.782-3.808s-6.944-5.102-6.944-5.102-2.763.507-2.763.507l-7.322 6.215-4.312 4.565-2.284-.305-.811 2.753-6.786-1.195s-1.601 9.314-1.601 9.314-3.565-2.328-3.565-2.328l-3.693 2.207-5.348 1.112-6.305 3.729z"/><path d="m215.828 134.152 3.567-2.383 5.228-2.291 2.643-6.633s2.182 2.81 2.182 2.81-1.985 6.611-1.985 6.611l-5.801.87-3.327 2.307z"/><path d="m228.716 119.883.718-3.637 5.367 1.846-3.474 2.888z"/><path d="m190.05 152.23 2.939 3.595s3.071 5.702 3.071 5.266c0-.435 1.762-3.098 1.762-3.098s-2.298-3.288-2.298-3.288l.369-2.166-3.006-3.408s.129-2.139.129-2.139z"/><path d="m201.079 164.294s3.518-2.285 3.518-2.285 1.488-1.535 1.488-1.535l1.712 1.04-1.201 1.605.916 1.417-1.342 2.762-3.446.403z"/><path d="m211.022 177.12-3.589 4.208-6.354 3.017s.742 10.079.778 10.289c.037.209-.638 2.814-.638 2.814l2.469.918 2.643-1.292s10.361-2.437 10.361-2.437 3.96 3.582 3.96 3.582l1.866-.683s2.42 4.221 2.42 4.221 4.914 1.029 4.914 1.029 5.457-1.795 5.457-1.795l.33-7.492 1.164-3.504-5.578-7.968-4.273-7.796-1.797-.285-1.577 5.529-3.352-2.062.009-2.386-3.915-.765z"/><path d="m217.461 163.266 3.882 1.72 1.57 1.984 2.692-.649 1.605.739.947-1.567-6.971-4.378z"/><path d="m128.16 134.443-5.14.376-2.769.98-2.982.175s-1.749 1.573-1.749 1.573-1.504 1.623-1.504 1.623l.006 1.323-2.226 1.726-1.598 2.709-1.425 2.718.525 1.128.196 1.214s-1.102 2.317-.99 2.333c.112.017.651 1.816.776 1.943s5.123 5.008 5.123 5.008 3.179-.099 3.219-.131c.04-.031 1.065.106 1.065.106s2.401-.475 2.401-.475l2.464-.598.814.407.417.768 2.319.213 1.483 1.756s-1.309 1.748-1.313 2.019c-.003.271.38 1.904.38 1.904s3.062 5.788 3.062 5.788-1.239 5.117-1.239 5.117l.713 1.168 1.056 2.033.406 2.898 2.303 4.752.356 1.775s1.209.085 1.209.085 3.647-.525 3.647-.525l3.075-2.125 1.912-3.023-.478-1.853 1.1-.061 1.433-1.061v-1.114l-.423-1.945 4.095-3.621-.111-2.805-.672-2.244-.348-2.357 8.724-10.722-.714-1.943-3.861 1.971-3.536-3.759-4.079.443-9.695-4.576 1.765-8.885-1.197-.393-1.005 1.666-6.572-4.218z"/></g></svg>