<?xml version="1.0" encoding="utf-8"?>
<!-- Generator: Adobe Illustrator 22.0.1, SVG Export Plug-In . SVG Version: 6.00 Build 0)  -->
<svg version="1.1" id="Ebene_1" xmlns="http://www.w3.org/2000/svg" xmlns:xlink="http://www.w3.org/1999/xlink" x="0px" y="0px"
	 viewBox="0 0 256 256" style="enable-background:new 0 0 256 256;" xml:space="preserve">
<style type="text/css">
	.st0{fill:none;stroke:#888888;stroke-width:2;}
</style>
<path class="st0" d="M173,155.9l-10-8.1v-14.7h8.1c0.9,0,1.6-0.3,2.2-0.9c0.6-0.6,0.9-1.2,0.9-2.2v-18.7c0-0.9-0.3-1.6-0.9-2.2
	L163,99.5V67.1c0-4.1-3.1-7.2-6.9-7.2H77.2c-3.7,0-6.9,3.1-6.9,7.2v122.9c0.3,3.7,3.1,7.2,6.9,7.2h90.1c3.7,0,6.9-3.1,6.9-7.2v-31.5
	C174.2,157.5,173.9,156.6,173,155.9L173,155.9z"/>
</svg>
