<?xml version="1.0" encoding="utf-8"?>
<!-- Generator: Adobe Illustrator 22.0.1, SVG Export Plug-In . SVG Version: 6.00 Build 0)  -->
<svg version="1.1" id="Ebene_1" xmlns="http://www.w3.org/2000/svg" xmlns:xlink="http://www.w3.org/1999/xlink" x="0px" y="0px"
	 viewBox="0 0 256 256" style="enable-background:new 0 0 256 256;" xml:space="preserve">
<style type="text/css">
	.st0{fill:none;stroke:#888888;stroke-width:2;}
</style>
<path class="st0" d="M111,50.4l-3,0.8c-16.3,4.6-30.9,14.5-41.3,28c-10.7,13.9-16.3,30.6-16.3,48.2c0,21.1,8.2,41,23.2,56
	c14.9,14.9,34.8,23.2,56,23.2c17.6,0,34.3-5.7,48.2-16.3c13.5-10.4,23.4-25,28-41.3l0.8-3L111,50.4z M111.5,50.9l94.5,94.4
	c-3.1,0.4-25.3,1.9-28.5,1.9c-37.9,0-68.2-33.6-68.2-71.5C109.2,72.6,111.1,54.1,111.5,50.9z"/>
</svg>
