<svg height="256" viewBox="0 0 256 256" width="256" xmlns="http://www.w3.org/2000/svg"><g fill="none" stroke="#888" stroke-width="3"><path d="m114.511 54.644 22.259 5.964c.769.206 1.225.996 1.019 1.764l-2.796 10.434c-.206.768-.996 1.224-1.764 1.019l-22.26-5.965c-.768-.206-1.224-.995-1.018-1.764l2.796-10.434c.206-.768.995-1.224 1.764-1.018z"/><path d="m111.803 60.786s-27.5-4.25-43.25-1.5-11.25-13.75 4.5-11.75 38.75 13.25 38.75 13.25z"/><path d="m135.803 67.536s61.5 32.25 12.75 88.75 46.75 78.25 49.5 14.5-24-86.25-62.25-103.25z"/></g></svg>
