<?xml version="1.0" encoding="utf-8"?>
<!-- Generator: Adobe Illustrator 22.0.1, SVG Export Plug-In . SVG Version: 6.00 Build 0)  -->
<svg version="1.1" id="Ebene_1" xmlns="http://www.w3.org/2000/svg" xmlns:xlink="http://www.w3.org/1999/xlink" x="0px" y="0px"
	 viewBox="0 0 256 256" style="enable-background:new 0 0 256 256;" xml:space="preserve">
<style type="text/css">
	.st0{fill:none;stroke:#888888;stroke-width:2;}
</style>
<g>
	<path class="st0" d="M62.4,53.9l19.8-5.3c1.1-0.3,2.2,0.3,2.4,1.4l2,7.5c0.3,1.1-0.3,2.2-1.4,2.5l-19.8,5.3
		c-1.1,0.3-2.2-0.3-2.4-1.4l-2-7.5C60.7,55.3,61.3,54.2,62.4,53.9L62.4,53.9z"/>
	<path class="st0" d="M174.3,193.4l20.2,3.4c1.1,0.2,1.8,1.2,1.6,2.3l-1.3,7.6c-0.2,1.1-1.2,1.8-2.3,1.6l-20.2-3.4
		c-1.1-0.2-1.8-1.2-1.6-2.3l1.3-7.6C172.1,193.9,173.2,193.2,174.3,193.4L174.3,193.4z"/>
	<path class="st0" d="M85.5,53.6c0,0,70.1-24.7,59.5,46.5c-14.2,95.5,26.7,99,26.7,99"/>
</g>
<path class="st0" d="M196.2,200.6l3.7,0.6c0.5,0.1,0.8,0.5,0.7,1l-0.6,3.3c-0.1,0.5-0.5,0.8-1,0.7l-3.7-0.6"/>
</svg>
