<svg xmlns="http://www.w3.org/2000/svg" viewBox="0 0 151.49 51.04"><defs><style>.cls-1{fill:#bbb;}.cls-2{fill:#1e1e1c;}</style></defs><title>BB_desktop_App_right</title><g id="Ebene_2" data-name="Ebene 2"><g id="Ebene_1-2" data-name="Ebene 1"><path class="cls-1" d="M7.18,27c5.4,0,8.48,3.91,8.48,9.58s-3.08,9.58-8.48,9.58H0V27ZM2.51,29.09v15H6.77c4,0,6.35-2.78,6.35-7.5s-2.32-7.51-6.35-7.51Z"/><path class="cls-1" d="M30.51,43.81c-1.92,2-3.54,2.75-5.81,2.75-4,0-6.56-2.78-6.56-6.94s2.51-7.1,6.35-7.1,6,2.43,6,6.4c0,.35,0,.7-.05,1h-10c.13,2.69,1.59,4.67,4.29,4.67a4.59,4.59,0,0,0,2.16-.49,10.66,10.66,0,0,0,2.24-1.73Zm-10-5.59h7.67c-.11-2.35-1.46-3.84-3.73-3.84S20.87,35.76,20.52,38.22Z"/><path class="cls-1" d="M43.44,34.47,42.17,36A6.07,6.07,0,0,0,38,34.41c-1.76,0-2.92.81-2.92,2,.16,1.19.73,1.33,3.57,2,3.59.84,5,1.81,5,4.08,0,2.48-2.11,4.13-5.32,4.13a8.38,8.38,0,0,1-6.13-2.48l1.38-1.52c1.91,1.6,3.13,2.08,4.78,2.08s3-.81,3-2.1-1.14-1.76-3.73-2.32c-3.69-.84-4.75-1.49-4.83-3.76s2.11-3.94,5.16-3.94A7.86,7.86,0,0,1,43.44,34.47Z"/><path class="cls-1" d="M51.11,39.51l-2.4,2.43v4.24H46.39V27h2.32v12.3l6.15-6.42h2.73L52.7,38l5.43,8.18H55.56Z"/><path class="cls-1" d="M67.42,46a8.1,8.1,0,0,1-2.73.46c-2.46,0-3.43-1.13-3.43-3.32V34.65H58.78V32.9h2.48V28.45h2.32V32.9h3.59v1.75H63.58v8.18c0,1.19.46,1.62,1.57,1.62a7.38,7.38,0,0,0,1.91-.32Z"/><path class="cls-1" d="M81.56,39.54c0,4.13-2.72,7-6.58,7s-6.56-2.89-6.56-7,2.72-7,6.56-7S81.56,35.41,81.56,39.54Zm-10.77,0c0,3,1.62,5.08,4.19,5.08s4.21-2.06,4.21-5.08S77.54,34.47,75,34.47,70.79,36.52,70.79,39.54Z"/><path class="cls-1" d="M97,39.51c0,4.19-2.45,7-5.86,7a5,5,0,0,1-4.4-2.1V51H84.37V32.9h2.19V35a4.91,4.91,0,0,1,4.53-2.43C94.5,32.55,97,35.38,97,39.51Zm-2.37,0c0-3-1.49-5-3.84-5s-4.13,1.89-4.13,5,1.68,5,4.13,5S94.58,42.54,94.58,39.51Z"/><path class="cls-1" d="M116.91,41.29h-8.59l-1.75,4.89h-2.51L111,27h3.27l7,19.16h-2.56Zm-.73-2.1-.89-2.51c-1.33-3.64-2.22-6.26-2.7-7.8-.3,1-.65,2.1-1.11,3.43l-1,2.8-.57,1.6-.89,2.48Z"/><path class="cls-1" d="M136.05,39.51c0,4.19-2.46,7-5.86,7a5,5,0,0,1-4.4-2.1V51h-2.32V32.9h2.19V35a4.91,4.91,0,0,1,4.53-2.43C133.59,32.55,136.05,35.38,136.05,39.51Zm-2.38,0c0-3-1.48-5-3.83-5s-4.13,1.89-4.13,5,1.67,5,4.13,5C132.13,44.53,133.67,42.54,133.67,39.51Z"/><path class="cls-1" d="M151.49,39.51c0,4.19-2.45,7-5.86,7a5,5,0,0,1-4.4-2.1V51h-2.32V32.9h2.19V35a4.91,4.91,0,0,1,4.53-2.43C149,32.55,151.49,35.38,151.49,39.51Zm-2.37,0c0-3-1.49-5-3.84-5s-4.13,1.89-4.13,5,1.68,5,4.13,5S149.12,42.54,149.12,39.51Z"/><path class="cls-2" d="M73.18,17.71c2.41,0,3.69-1.11,3.69-3s-1.31-3-3.69-3H68.43v6ZM68.43,8.49h4.66c2,0,3.18-1,3.18-2.69s-1-2.51-3.15-2.51H68.43ZM80.85,15c0,3.62-2.42,5.83-6.25,5.83H64.45V.14h9.61c3.55,0,6.08,2,6.08,5.34A4.49,4.49,0,0,1,77,10a5,5,0,0,1,3.84,5"/><rect class="cls-2" x="83.57" y="0.14" width="3.69" height="3.79"/><rect class="cls-2" x="83.57" y="5.95" width="3.69" height="14.91"/><path class="cls-2" d="M99.58,20.31a9.62,9.62,0,0,1-3.26.55c-2.87,0-4.12-1.37-4.12-4.2V8.49H89.61V5.6H92.2V1h3.69V5.6h3.47V8.49H95.89v7.7c0,1,.43,1.38,1.45,1.38a7.55,7.55,0,0,0,1.82-.27Z"/><path class="cls-2" d="M111.87,17.69c2.43,0,3.71-1.12,3.71-3s-1.31-3.05-3.71-3.05h-4.78v6.08ZM107.09,8.4h4.69c2.06,0,3.2-1,3.2-2.7s-1-2.53-3.17-2.53h-4.72ZM119.59,15c0,3.64-2.43,5.87-6.29,5.87H103.08V0h9.67c3.58,0,6.12,2,6.12,5.38a4.5,4.5,0,0,1-3.14,4.52A5,5,0,0,1,119.59,15"/><path class="cls-2" d="M125.35,12.87c0,2.91,1.52,4.76,3.83,4.76S133,15.78,133,12.87s-1.52-4.76-3.81-4.76-3.83,1.91-3.83,4.76m11.41,0c0,4.76-3.17,8-7.58,8s-7.6-3.23-7.6-8,3.17-8,7.6-8,7.58,3.23,7.58,8"/><polygon class="cls-2" points="147.4 19.89 144.11 14.75 140.79 19.89 136.79 19.89 142.05 12.02 137.28 4.88 141.31 4.88 144.17 9.29 146.97 4.88 150.98 4.88 146.26 11.87 151.49 19.89 147.4 19.89"/></g></g></svg>