<svg xmlns="http://www.w3.org/2000/svg" viewBox="0 0 119.39 21.44"><defs><style>.cls-1{fill:#aaa;}.cls-2{fill:#1d1d1b;}</style></defs><title>Element 27</title><g id="Ebene_2" data-name="Ebene 2"><g id="Ebene_1-2" data-name="Ebene 1"><path class="cls-1" d="M102.73,5.63a13.49,13.49,0,0,1,1.3,6.21,13.48,13.48,0,0,1-1.3,6.2,6.29,6.29,0,0,1-11.17,0,13.48,13.48,0,0,1-1.29-6.2,13.5,13.5,0,0,1,1.29-6.21,6.29,6.29,0,0,1,11.17,0Zm-9.06,1a11.76,11.76,0,0,0-1,5.18,11.74,11.74,0,0,0,1,5.17,3.73,3.73,0,0,0,7,0,11.74,11.74,0,0,0,1-5.17,11.76,11.76,0,0,0-1-5.18,3.73,3.73,0,0,0-7,0Z"/><path class="cls-1" d="M119.39,19v2H106.28v-.89a6.64,6.64,0,0,1,2.5-5.4,27.19,27.19,0,0,1,3-2.05l1.35-.78c1.75-1,2.67-1.57,3.32-2.59a3.33,3.33,0,0,0,.48-1.81c0-2-1.54-3.21-3.56-3.21s-3.4.92-5.31,3.29L106.3,6.33c1.86-2.69,4-4.1,7-4.1,3.64,0,6,2.24,6,5.18a5.41,5.41,0,0,1-2.24,4.48,30.59,30.59,0,0,1-2.64,1.7l-1.27.75-.51.3a9.56,9.56,0,0,0-3.32,2.62A3.58,3.58,0,0,0,108.7,19Z"/><path class="cls-2" d="M17,15.06c0,3.66-2.51,5.91-6.5,5.91H0V0H10c3.69,0,6.32,2,6.32,5.4A4.54,4.54,0,0,1,13.05,10C15.62,10.75,17,12.43,17,15.06ZM4.13,8.45H9c2.12,0,3.3-1,3.3-2.72S11.19,3.19,9,3.19H4.13Zm4.94,9.33c2.51,0,3.83-1.13,3.83-3s-1.35-3.08-3.83-3.08H4.13v6.12Z"/><rect class="cls-2" x="19.72" width="3.84" height="3.84"/><rect class="cls-2" x="19.72" y="5.88" width="3.84" height="15.09"/><path class="cls-2" d="M35.68,20.76a10.49,10.49,0,0,1-3.4.56c-3,0-4.28-1.39-4.28-4.25V8.8H25.31V5.88H28V1.21h3.84V5.88h3.6V8.8h-3.6v7.8c0,1,.44,1.38,1.51,1.38a8.63,8.63,0,0,0,1.89-.26Z"/><path class="cls-2" d="M55.09,15.06c0,3.66-2.51,5.91-6.5,5.91H38.05V0H48c3.69,0,6.32,2,6.32,5.4A4.54,4.54,0,0,1,51.1,10C53.67,10.75,55.09,12.43,55.09,15.06ZM42.19,8.45H47c2.12,0,3.31-1,3.31-2.72s-1.1-2.54-3.28-2.54H42.19Zm4.93,9.33c2.51,0,3.84-1.13,3.84-3s-1.36-3.08-3.84-3.08H42.19v6.12Z"/><path class="cls-2" d="M72.58,13.41c0,4.78-3.27,8-7.82,8s-7.86-3.25-7.86-8,3.28-8,7.86-8S72.58,8.62,72.58,13.41Zm-11.78,0c0,2.92,1.57,4.78,4,4.78s3.93-1.86,3.93-4.78-1.57-4.79-3.93-4.79S60.8,10.54,60.8,13.41Z"/><path class="cls-2" d="M83.57,21l-3.4-5.17L76.75,21H72.61l5.44-7.92L73.11,5.88h4.17l3,4.43,2.9-4.43h4.13l-4.87,7L87.79,21Z"/></g></g></svg>