<svg xmlns="http://www.w3.org/2000/svg" viewBox="0 0 123.65 41.51"><defs><style>.cls-1{fill:#f5a04c;}.cls-2{fill:#191919;}</style></defs><title>Element 248</title><g id="Ebene_2" data-name="Ebene 2"><g id="Ebene_3" data-name="Ebene 3"><path class="cls-1" d="M105.14,4.23a15,15,0,0,1,1.44,6.9,15,15,0,0,1-1.44,6.9,7,7,0,0,1-12.42,0,15,15,0,0,1-1.44-6.9,15,15,0,0,1,1.44-6.9,7,7,0,0,1,12.42,0ZM95.06,5.37A13.15,13.15,0,0,0,94,11.13a13.15,13.15,0,0,0,1.08,5.76,4.16,4.16,0,0,0,7.74,0,13.15,13.15,0,0,0,1.08-5.76,13.15,13.15,0,0,0-1.08-5.76,4.16,4.16,0,0,0-7.74,0Z"/><path class="cls-1" d="M123.65,19.08v2.25H109.07v-1a7.39,7.39,0,0,1,2.79-6,30.59,30.59,0,0,1,3.33-2.28l1.5-.87c2-1.11,3-1.74,3.69-2.88a3.66,3.66,0,0,0,.54-2c0-2.28-1.71-3.57-4-3.57s-3.78,1-5.91,3.66L109.1,5c2.07-3,4.47-4.56,7.8-4.56,4,0,6.69,2.49,6.69,5.76a6,6,0,0,1-2.49,5,32.35,32.35,0,0,1-2.94,1.89l-1.41.84-.57.33c-2,1.2-2.94,1.83-3.69,2.91a4,4,0,0,0-.72,1.92Z"/><path class="cls-2" d="M9.33,18.06c2.55,0,3.9-1.14,3.9-3.09s-1.38-3.12-3.9-3.12h-5v6.21Zm-5-9.48H9.24c2.16,0,3.36-1,3.36-2.76S11.49,3.24,9.27,3.24H4.32ZM17.43,15.3c0,3.72-2.55,6-6.6,6H.12V0H10.26C14,0,16.68,2,16.68,5.49a4.62,4.62,0,0,1-3.3,4.62c2.61.81,4,2.52,4,5.19"/><rect class="cls-2" x="20.15" width="3.9" height="3.9"/><rect class="cls-2" x="20.15" y="5.97" width="3.9" height="15.33"/><path class="cls-2" d="M36.36,21.09a10.53,10.53,0,0,1-3.45.57c-3,0-4.35-1.41-4.35-4.32V8.94H25.83V6h2.73V1.23h3.9V6h3.66v3H32.46v7.92c0,1.05.45,1.41,1.53,1.41A8.37,8.37,0,0,0,35.91,18Z"/><path class="cls-2" d="M48,18.06c2.55,0,3.9-1.14,3.9-3.09S50.5,11.85,48,11.85H43v6.21ZM43,8.58h4.92c2.16,0,3.36-1,3.36-2.76s-1.11-2.58-3.33-2.58H43ZM56.08,15.3c0,3.72-2.55,6-6.6,6H38.77V0H48.91c3.75,0,6.42,2,6.42,5.49A4.62,4.62,0,0,1,52,10.11c2.61.81,4,2.52,4,5.19"/><path class="cls-2" d="M61.88,13.62c0,3,1.59,4.86,4,4.86s4-1.89,4-4.86-1.59-4.86-4-4.86-4,2-4,4.86m12,0c0,4.86-3.33,8.16-7.95,8.16s-8-3.3-8-8.16,3.33-8.16,8-8.16,7.95,3.3,7.95,8.16"/><polygon class="cls-2" points="85.01 21.3 81.56 16.05 78.08 21.3 73.88 21.3 79.4 13.26 74.39 5.97 78.62 5.97 81.62 10.47 84.56 5.97 88.75 5.97 83.81 13.11 89.3 21.3 85.01 21.3"/><path class="cls-2" d="M8.09,35.71c0,1.82-1.28,2.95-3.23,2.95H0V28.14H4.65c1.84,0,3.07.95,3.07,2.67A2.3,2.3,0,0,1,6.09,33.1,2.58,2.58,0,0,1,8.09,35.71ZM1.38,32.6h3c1.26,0,2-.64,2-1.72s-.72-1.64-2-1.64h-3Zm3.05,5c1.49,0,2.29-.73,2.29-1.92s-.84-2-2.28-2H1.38v3.87Z"/><path class="cls-2" d="M11,29.93H9.68V28.41H11Zm0,8.73H9.68V31.37H11Z"/><path class="cls-2" d="M17,38.54a4.54,4.54,0,0,1-1.5.25c-1.34,0-1.88-.62-1.88-1.82V32.33H12.21v-1h1.36V28.93h1.28v2.44h2v1h-2v4.49c0,.65.25.89.85.89a4.16,4.16,0,0,0,1.06-.18Z"/><path class="cls-2" d="M23.13,33.32A2.7,2.7,0,0,0,21,32.23a1.84,1.84,0,0,0-1.63.81,3.37,3.37,0,0,0-.58,2,3.32,3.32,0,0,0,.58,2,1.91,1.91,0,0,0,1.66.81,2.75,2.75,0,0,0,2.18-1.21l.83.71a3.51,3.51,0,0,1-3,1.58c-2.13,0-3.54-1.52-3.54-3.85s1.44-3.85,3.54-3.85A3.54,3.54,0,0,1,24,32.55Z"/><path class="cls-2" d="M32,35a3.61,3.61,0,1,1-7.21,0A3.61,3.61,0,1,1,32,35Zm-5.91,0c0,1.66.89,2.79,2.29,2.79s2.31-1.13,2.31-2.79-.9-2.78-2.31-2.78S26.05,33.35,26.05,35Z"/><path class="cls-2" d="M34.78,29.93H33.5V28.41h1.28Zm0,8.73H33.5V31.37h1.28Z"/><path class="cls-2" d="M42.86,33.66v5H41.59v-4.6c0-1.18-.59-1.82-1.67-1.82A1.86,1.86,0,0,0,38,34.14v4.52H36.76V31.37H38v.95a2.58,2.58,0,0,1,2.3-1.16A2.37,2.37,0,0,1,42.86,33.66Z"/><path class="cls-2" d="M48.91,35H44.6V33.83h4.31Z"/><path class="cls-2" d="M57.67,35a3.62,3.62,0,1,1-7.22,0,3.62,3.62,0,1,1,7.22,0Zm-5.91,0c0,1.66.89,2.79,2.29,2.79s2.31-1.13,2.31-2.79-.9-2.78-2.31-2.78S51.76,33.35,51.76,35Z"/><path class="cls-2" d="M65.31,33.66v5H64v-4.6c0-1.18-.59-1.82-1.67-1.82a1.87,1.87,0,0,0-1.89,1.9v4.52H59.21V31.37h1.2v.95a2.57,2.57,0,0,1,2.3-1.16A2.37,2.37,0,0,1,65.31,33.66Z"/><path class="cls-2" d="M68.6,38.66H67.33V28.14H68.6Z"/><path class="cls-2" d="M76.54,31.37l-2.91,8.29c-.48,1.35-1,1.85-2.2,1.85a4,4,0,0,1-1.12-.14l.22-1a3.61,3.61,0,0,0,.79.09c.59,0,.93-.27,1.23-1.16l.08-.26L69.9,31.37h1.34l.82,2.41,1,2.95.21.62.32-1c.18-.57.46-1.44.86-2.63l.82-2.38Z"/><path class="cls-2" d="M87.36,37.35a4,4,0,0,1-3.18,1.51,3.47,3.47,0,0,1-3.6-3.8c0-2.28,1.38-3.9,3.48-3.9s3.29,1.33,3.29,3.51c0,.19,0,.39,0,.56H81.84c.07,1.49.87,2.57,2.35,2.57a2.49,2.49,0,0,0,1.19-.27,6.1,6.1,0,0,0,1.23-1Zm-5.48-3.06h4.21a2,2,0,0,0-2-2.11A2.14,2.14,0,0,0,81.88,34.29Z"/><path class="cls-2" d="M95.45,28.14V38.66h-1.2V37.51a2.69,2.69,0,0,1-2.49,1.34c-1.86,0-3.21-1.56-3.21-3.84s1.38-3.83,3.24-3.83a2.68,2.68,0,0,1,2.39,1.17V28.14ZM94.22,35c0-1.7-.92-2.74-2.26-2.74s-2.11,1.1-2.11,2.74.82,2.76,2.11,2.76S94.22,36.72,94.22,35Z"/><path class="cls-2" d="M98.71,29.93H97.44V28.41h1.27Zm0,8.73H97.44V31.37h1.27Z"/><path class="cls-2" d="M104.71,38.54a4.48,4.48,0,0,1-1.49.25c-1.35,0-1.88-.62-1.88-1.82V32.33H100v-1h1.37V28.93h1.27v2.44h2v1h-2v4.49c0,.65.25.89.86.89a4.1,4.1,0,0,0,1-.18Z"/><path class="cls-2" d="M107.25,29.93H106V28.41h1.27Zm0,8.73H106V31.37h1.27Z"/><path class="cls-2" d="M116,35a3.61,3.61,0,1,1-7.21,0A3.61,3.61,0,1,1,116,35Zm-5.91,0c0,1.66.89,2.79,2.3,2.79s2.31-1.13,2.31-2.79-.9-2.78-2.31-2.78S110.09,33.35,110.09,35Z"/><path class="cls-2" d="M123.65,33.66v5h-1.27v-4.6c0-1.18-.6-1.82-1.68-1.82a1.86,1.86,0,0,0-1.88,1.9v4.52h-1.27V31.37h1.2v.95A2.56,2.56,0,0,1,121,31.16,2.38,2.38,0,0,1,123.65,33.66Z"/></g></g></svg>