<svg xmlns="http://www.w3.org/2000/svg" viewBox="0 0 123.53 38.93"><defs><style>.cls-1{fill:#5e94bf;}.cls-2{fill:#191919;}</style></defs><title>Element 239</title><g id="Ebene_2" data-name="Ebene 2"><g id="Ebene_3" data-name="Ebene 3"><path class="cls-1" d="M105,4.23a15,15,0,0,1,1.44,6.9A15,15,0,0,1,105,18,7,7,0,0,1,92.6,18a15,15,0,0,1-1.44-6.9,15,15,0,0,1,1.44-6.9,7,7,0,0,1,12.42,0ZM94.94,5.37a13.15,13.15,0,0,0-1.08,5.76,13.15,13.15,0,0,0,1.08,5.76,4.16,4.16,0,0,0,7.74,0,13.15,13.15,0,0,0,1.08-5.76,13.15,13.15,0,0,0-1.08-5.76,4.16,4.16,0,0,0-7.74,0Z"/><path class="cls-1" d="M123.53,19.08v2.25H109v-1a7.39,7.39,0,0,1,2.79-6,30.59,30.59,0,0,1,3.33-2.28l1.5-.87c2-1.11,3-1.74,3.69-2.88a3.66,3.66,0,0,0,.54-2c0-2.28-1.71-3.57-4-3.57s-3.78,1-5.91,3.66L109,5c2.07-3,4.47-4.56,7.8-4.56,4,0,6.69,2.49,6.69,5.76a6,6,0,0,1-2.49,5A32.35,32.35,0,0,1,118,13.08l-1.41.84-.57.33c-2,1.2-2.94,1.83-3.69,2.91a4,4,0,0,0-.72,1.92Z"/><path class="cls-2" d="M10.25,28.44V38.73H8.94V33.58c0-1,0-2.36,0-4.17-.25.74-.55,1.62-.91,2.62l-.54,1.55-1.8,5.15H4.54L2.7,33.58s-.18-.49-.5-1.39c-.1-.27-.24-.69-.45-1.27s-.37-1.07-.5-1.5c0,.92,0,2.31,0,4.18v5.13H0V28.44H2.14L3.75,33c.63,1.72,1.09,3.11,1.39,4.14.28-1,.74-2.36,1.37-4.14L8.1,28.44Z"/><path class="cls-2" d="M18.24,31.6v7.13H17.08v-.88a2.41,2.41,0,0,1-2.16,1.08c-1.72,0-2.54-.94-2.54-2.33v-5h1.25v4.69a1.37,1.37,0,0,0,1.49,1.57A1.75,1.75,0,0,0,17,36V31.6Z"/><path class="cls-2" d="M21.47,38.73H20.23V28.44h1.24Z"/><path class="cls-2" d="M27.39,38.61a4.34,4.34,0,0,1-1.46.25c-1.32,0-1.84-.61-1.84-1.78V32.54H22.75V31.6h1.34V29.21h1.24V31.6h1.93v.94H25.33v4.39c0,.64.25.87.84.87a4.35,4.35,0,0,0,1-.17Z"/><path class="cls-2" d="M29.87,30.19H28.62V28.7h1.25Zm0,8.54H28.62V31.6h1.25Z"/><path class="cls-2" d="M41.31,37.45a3.91,3.91,0,0,1-3.12,1.48,3.4,3.4,0,0,1-3.52-3.72c0-2.23,1.35-3.81,3.41-3.81s3.21,1.3,3.21,3.43a4.8,4.8,0,0,1,0,.55H35.9a2.32,2.32,0,0,0,2.31,2.51,2.51,2.51,0,0,0,1.16-.26,6.22,6.22,0,0,0,1.2-.93Zm-5.36-3h4.11a1.92,1.92,0,0,0-2-2.05A2.07,2.07,0,0,0,36,34.45Z"/><path class="cls-2" d="M49.23,28.44V38.73H48.05V37.61a2.63,2.63,0,0,1-2.43,1.31c-1.83,0-3.15-1.52-3.15-3.76s1.35-3.75,3.18-3.75A2.64,2.64,0,0,1,48,32.56V28.44ZM48,35.16c0-1.66-.9-2.68-2.21-2.68s-2.06,1.08-2.06,2.68.79,2.7,2.06,2.7S48,36.83,48,35.16Z"/><path class="cls-2" d="M52.42,30.19H51.17V28.7h1.25Zm0,8.54H51.17V31.6h1.25Z"/><path class="cls-2" d="M58.29,38.61a4.34,4.34,0,0,1-1.46.25c-1.32,0-1.84-.61-1.84-1.78V32.54H53.65V31.6H55V29.21h1.24V31.6h1.93v.94H56.23v4.39c0,.64.25.87.84.87a4.35,4.35,0,0,0,1-.17Z"/><path class="cls-2" d="M60.77,30.19H59.52V28.7h1.25Zm0,8.54H59.52V31.6h1.25Z"/><path class="cls-2" d="M69.34,35.16a3.54,3.54,0,1,1-7.06,0,3.54,3.54,0,1,1,7.06,0Zm-5.79,0c0,1.63.87,2.73,2.25,2.73s2.26-1.1,2.26-2.73-.88-2.72-2.26-2.72S63.55,33.54,63.55,35.16Z"/><path class="cls-2" d="M76.82,33.84v4.89H75.57V34.24c0-1.16-.58-1.79-1.63-1.79a1.82,1.82,0,0,0-1.84,1.86v4.42H70.85V31.6H72v.93a2.53,2.53,0,0,1,2.25-1.13A2.32,2.32,0,0,1,76.82,33.84Z"/><path class="cls-2" d="M9.21,18.06c2.55,0,3.9-1.14,3.9-3.09s-1.38-3.12-3.9-3.12h-5v6.21Zm-5-9.48H9.12c2.16,0,3.36-1,3.36-2.76S11.37,3.24,9.15,3.24H4.2ZM17.31,15.3c0,3.72-2.55,6-6.6,6H0V0H10.14c3.75,0,6.42,2,6.42,5.49a4.62,4.62,0,0,1-3.3,4.62c2.61.81,4,2.52,4,5.19"/><rect class="cls-2" x="20.03" width="3.9" height="3.9"/><rect class="cls-2" x="20.03" y="5.97" width="3.9" height="15.33"/><path class="cls-2" d="M36.24,21.09a10.53,10.53,0,0,1-3.45.57c-3,0-4.35-1.41-4.35-4.32V8.94H25.71V6h2.73V1.23h3.9V6H36v3H32.34v7.92c0,1.05.45,1.41,1.53,1.41A8.37,8.37,0,0,0,35.79,18Z"/><path class="cls-2" d="M47.86,18.06c2.55,0,3.9-1.14,3.9-3.09s-1.38-3.12-3.9-3.12h-5v6.21Zm-5-9.48h4.92c2.16,0,3.36-1,3.36-2.76S50,3.24,47.8,3.24H42.85ZM56,15.3c0,3.72-2.55,6-6.6,6H38.65V0H48.79c3.75,0,6.42,2,6.42,5.49a4.62,4.62,0,0,1-3.3,4.62c2.61.81,4.05,2.52,4.05,5.19"/><path class="cls-2" d="M61.76,13.62c0,3,1.59,4.86,4,4.86s4-1.89,4-4.86-1.59-4.86-4-4.86-4,2-4,4.86m12,0c0,4.86-3.33,8.16-8,8.16s-8-3.3-8-8.16,3.33-8.16,8-8.16,8,3.3,8,8.16"/><polygon class="cls-2" points="84.89 21.3 81.44 16.05 77.96 21.3 73.76 21.3 79.28 13.26 74.27 5.97 78.5 5.97 81.5 10.47 84.44 5.97 88.63 5.97 83.69 13.11 89.17 21.3 84.89 21.3"/></g></g></svg>