<svg xmlns="http://www.w3.org/2000/svg" viewBox="0 0 113.52 21.49"><defs><style>.cls-1{fill:#aaa;}.cls-2{fill:#1d1d1b;}</style></defs><title>Element 26</title><g id="Ebene_2" data-name="Ebene 2"><g id="Ebene_1-2" data-name="Ebene 1"><path class="cls-1" d="M102.75,5.66a13.4,13.4,0,0,1,1.3,6.21,13.44,13.44,0,0,1-1.3,6.22,6.3,6.3,0,0,1-11.18,0,13.44,13.44,0,0,1-1.3-6.22,13.4,13.4,0,0,1,1.3-6.21,6.29,6.29,0,0,1,11.18,0Zm-9.08,1a11.93,11.93,0,0,0-1,5.18,12,12,0,0,0,1,5.19,3.74,3.74,0,0,0,7,0,11.8,11.8,0,0,0,1-5.19,11.78,11.78,0,0,0-1-5.18,3.74,3.74,0,0,0-7,0Z"/><path class="cls-1" d="M113.52,2.69V21.06h-2.38V5.71l-3.89,2.76-1.19-1.65,5.65-4.13Z"/><path class="cls-2" d="M17,15.06c0,3.66-2.51,5.91-6.5,5.91H0V0H10c3.69,0,6.32,2,6.32,5.4A4.54,4.54,0,0,1,13.05,10C15.62,10.75,17,12.43,17,15.06ZM4.13,8.45H9c2.12,0,3.3-1,3.3-2.72S11.19,3.19,9,3.19H4.13Zm4.94,9.33c2.51,0,3.83-1.13,3.83-3s-1.35-3.08-3.83-3.08H4.13v6.12Z"/><rect class="cls-2" x="19.72" width="3.84" height="3.84"/><rect class="cls-2" x="19.72" y="5.88" width="3.84" height="15.09"/><path class="cls-2" d="M35.68,20.76a10.49,10.49,0,0,1-3.4.56c-3,0-4.28-1.39-4.28-4.25V8.8H25.31V5.88H28V1.21h3.84V5.88h3.6V8.8h-3.6v7.8c0,1,.44,1.38,1.51,1.38a8.63,8.63,0,0,0,1.89-.26Z"/><path class="cls-2" d="M55.09,15.06c0,3.66-2.51,5.91-6.5,5.91H38.05V0H48c3.69,0,6.32,2,6.32,5.4A4.54,4.54,0,0,1,51.1,10C53.67,10.75,55.09,12.43,55.09,15.06ZM42.19,8.45H47c2.12,0,3.31-1,3.31-2.72s-1.1-2.54-3.28-2.54H42.19Zm4.93,9.33c2.51,0,3.84-1.13,3.84-3s-1.36-3.08-3.84-3.08H42.19v6.12Z"/><path class="cls-2" d="M72.58,13.41c0,4.78-3.27,8-7.82,8s-7.86-3.25-7.86-8,3.28-8,7.86-8S72.58,8.62,72.58,13.41Zm-11.78,0c0,2.92,1.57,4.78,4,4.78s3.93-1.86,3.93-4.78-1.57-4.79-3.93-4.79S60.8,10.54,60.8,13.41Z"/><path class="cls-2" d="M83.57,21l-3.4-5.17L76.75,21H72.61l5.44-7.92L73.11,5.88h4.17l3,4.43,2.9-4.43h4.13l-4.87,7L87.79,21Z"/></g></g></svg>