<?xml version="1.0" encoding="utf-8"?>
<!-- Generator: Adobe Illustrator 23.0.6, SVG Export Plug-In . SVG Version: 6.00 Build 0)  -->
<svg version="1.1" id="Layer_1" xmlns="http://www.w3.org/2000/svg" xmlns:xlink="http://www.w3.org/1999/xlink" x="0px" y="0px"
	 viewBox="0 0 1077.2 113.4" style="enable-background:new 0 0 1077.2 113.4;" xml:space="preserve">
<style type="text/css">
	.st0{fill-rule:evenodd;clip-rule:evenodd;fill:#E01F29;}
	.st1{fill:#FFFFFF;}
	.st2{enable-background:new    ;}
</style>
<rect x="497.4" y="7" class="st0" width="93.7" height="93.7"/>
<polygon class="st1" points="575.5,63.3 553.6,63.3 553.6,85.1 534.9,85.1 534.9,63.3 513,63.3 513,44.5 534.9,44.5 534.9,22.6 
	553.6,22.6 553.6,44.5 575.5,44.5 "/>
<g class="st2">
	<path class="st1" d="M52.9,24.2c3.6,1.5,7.4,3.9,11.4,7.3l-7,8.4C53.8,37,50.9,35,48.4,34c-2.5-1-5.3-1.5-8.7-1.5
		c-6.8,0-11.2,3.1-11.2,7.5c0,3.1,2.1,4.7,5.8,5.9c1.9,0.6,4.9,1.5,9,2.4C59,52.1,64.8,55.5,65.1,66c0,11.6-9.3,19.8-24.1,19.8
		c-5.4,0-10-0.9-14.1-2.6c-4-1.6-8.4-4.6-13-8.7l7.2-8.5c4,3.5,7.5,6,10.4,7.3c2.8,1.3,6,2,9.7,2c7.1,0,11.9-3.2,11.9-8.4
		c0-3.2-2.1-5-5.3-6.1c-1.6-0.5-4-1.1-7.2-1.8l-2.9-0.7c-16.3-3.9-21-8.4-21-18.1c0-10.2,9.4-18.2,23.2-18.2
		C45,22.1,49.3,22.7,52.9,24.2z"/>
</g>
<g class="st2">
	<path class="st1" d="M132.5,40.4l-12.2,44h-13.2l-3.3-11.9c-1.5-5.4-2.8-11.3-4.3-17.9c-1.4,6.8-2.7,12.8-4,17.9l-3.1,11.9H79.1
		l-12.2-44h11.8l3.5,14.4c1.1,4.4,2.5,10.8,4.2,19.4c1.6-7.6,3.1-14.2,4.5-19.4l3.8-14.4h10.3l3.8,14.4c1.5,5.5,2.9,12,4.5,19.6
		c1.6-8.2,3-14.7,4.2-19.6l3.5-14.4H132.5z"/>
	<path class="st1" d="M149.7,33.9h-11.2V23.4h11.2V33.9z M149.7,84.4h-11.2V40.5h11.2V84.4z"/>
	<path class="st1" d="M195.2,45.9l-6,7.3c-5.1-4-8.4-5.2-13.1-5.2c-4.5,0-7.4,1.7-7.4,4.4c0,1.8,1.4,2.7,3.8,3.4
		c1.2,0.3,3.3,0.9,6.4,1.5c12.4,2.7,17,5.8,17,14c0,8.6-7.1,14.3-18.8,14.3c-8.3,0-14.2-2.1-21.2-8.3l6.4-7.2
		c3.2,2.6,5.7,4.3,7.9,5.2c2.1,0.9,4.5,1.4,7.1,1.4c4.5,0,7.6-1.6,7.6-4.6c0-2.3-2-3.5-4.4-4.2c-1.2-0.3-3.3-0.8-6.4-1.5
		c-12.5-2.7-16.1-5.8-16.1-13.7c0-7.6,6.8-13.7,18.3-13.7C183.8,39.1,189.1,40.9,195.2,45.9z"/>
</g>
<g class="st2">
	<path class="st1" d="M238.8,45.9l-6,7.3c-5.1-4-8.4-5.2-13.1-5.2c-4.5,0-7.4,1.7-7.4,4.4c0,1.8,1.4,2.7,3.8,3.4
		c1.2,0.3,3.3,0.9,6.4,1.5c12.4,2.7,17,5.8,17,14c0,8.6-7.1,14.3-18.8,14.3c-8.3,0-14.2-2.1-21.2-8.3l6.4-7.2
		c3.2,2.6,5.7,4.3,7.9,5.2c2.1,0.9,4.5,1.4,7.1,1.4c4.5,0,7.6-1.6,7.6-4.6c0-2.3-2-3.5-4.4-4.2c-1.2-0.3-3.3-0.8-6.4-1.5
		c-12.5-2.7-16.1-5.8-16.1-13.7c0-7.6,6.8-13.7,18.3-13.7C227.5,39.1,232.7,40.9,238.8,45.9z"/>
</g>
<g class="st2">
	<path class="st1" d="M328.5,53.7v30.7h-11.2V57.1c0-5.2-2.1-8.4-6.9-8.4c-4.9,0-7.7,3.6-7.7,8.8v27h-11.2V57.1
		c0-5.6-2.3-8.4-6.9-8.4c-4.9,0-7.7,3.6-7.7,8.8v27h-11.2V40.5h10.4v4.9c2.6-4.2,6.8-6.4,12.5-6.4c5.6,0,9.8,2.3,12.2,6.4
		c3-4.3,7.4-6.4,13.1-6.4C323.1,39.1,328.5,44.7,328.5,53.7z"/>
	<path class="st1" d="M376.5,54.8v29.6h-10v-4.6c-2.7,3.8-7.5,6-14.2,6c-9,0-15.7-4.2-15.7-12.5c0-9.3,7.3-13.4,19-15.5l10.3-1.9v-1
		c0-4.2-3.1-6.7-8.2-6.7c-2.7,0-5.1,0.5-6.9,1.6c-1.8,1.1-4.1,2.9-6.8,5.5l-7-6.4c5.6-6.6,12-9.9,20.5-9.9
		C369.7,39.1,376.5,45.2,376.5,54.8z M365.9,66.5V64l-7.4,1.5c-7.5,1.6-11,3.3-11,7c0,2.7,2.5,4.4,6.7,4.4
		C360.6,76.9,365.9,73.7,365.9,66.5z"/>
	<path class="st1" d="M427.9,23.4v61h-10.4v-5.8c-3.2,4.7-7.8,7-14,7c-11.2,0-19.4-9.3-19.4-23.2c0-14.1,8.3-23.2,19.5-23.2
		c5.7,0,10.1,1.9,13.1,5.8V23.4H427.9z M417.2,62.5c0-8.3-4.5-13.5-11-13.5c-6.4,0-10.7,5.2-10.7,13.5c0,8.2,4.1,13.6,10.6,13.6
		C412.6,76.1,417.2,70.7,417.2,62.5z"/>
	<path class="st1" d="M464.9,75c1.7-0.9,3.9-2.4,6.7-4.7l6.3,6.9c-6.2,6.3-12.1,8.6-19.6,8.6c-14.2,0-23-9.1-23-23.1
		c0-13.7,8.4-23.6,22-23.6c13.1,0,20.5,8.2,20.5,21.9c0,1.6-0.1,3.1-0.2,4.4h-31.5c1,6.8,5.1,11,12.4,11
		C461.1,76.3,463.1,75.9,464.9,75z M446.5,57.3H467c-0.4-5.9-4-9.5-10-9.5C451.3,47.8,447.8,51.4,446.5,57.3z"/>
</g>
<g class="st2">
	<path class="st1" d="M649.7,62c0,13.1-8.7,22.3-20.9,22.3c-12.2,0-20.8-9.2-20.8-22.3s8.7-22.3,20.8-22.3
		C641,39.7,649.7,48.9,649.7,62z M615.5,62c0,9.6,5.1,16.1,13.3,16.1c8.1,0,13.4-6.5,13.4-16.1c0-9.6-5.2-16.1-13.4-16.1
		C620.6,45.9,615.5,52.4,615.5,62z"/>
	<path class="st1" d="M698.6,61.9c0,13.3-7.8,22.3-18.6,22.3c-6.3,0-11-2.2-14-6.7v21h-7.4V40.9h6.9v6.6c3.1-5.2,7.9-7.7,14.4-7.7
		C690.8,39.8,698.6,48.8,698.6,61.9z M691,61.9c0-9.5-4.7-15.9-12.2-15.9c-7.8,0-13.1,6-13.1,15.9c0,10,5.3,16,13.1,16
		C686.2,77.9,691,71.6,691,61.9z"/>
</g>
<g class="st2">
	<path class="st1" d="M744.9,75.6c-6.1,6.4-11.2,8.8-18.4,8.8c-12.8,0-20.8-8.8-20.8-22.1c0-13.2,8-22.6,20.2-22.6
		c12,0,19,7.7,19,20.4c0,1.1-0.1,2.2-0.2,3.3h-31.7c0.4,8.6,5.1,14.9,13.6,14.9c2.7,0,4.9-0.5,6.9-1.5c2-1,4.3-2.8,7.1-5.5
		L744.9,75.6z M713.2,57.8h24.4c-0.3-7.5-4.6-12.2-11.8-12.2C718.8,45.6,714.3,50,713.2,57.8z"/>
</g>
<g class="st2">
	<path class="st1" d="M789.4,54.2v28.9H782V56.5c0-6.9-3.4-10.6-9.7-10.6c-6.1,0-10.9,4.7-10.9,11v26.2H754V40.9h6.9v5.5
		c2.7-4.4,7.5-6.7,13.3-6.7C784.1,39.7,789.4,45.9,789.4,54.2z"/>
</g>
<g class="st2">
	<path class="st1" d="M852,45.9l-4,5c-5.2-4-8.5-5.2-13.3-5.2c-5.6,0-9.3,2.6-9.3,6.3c0.5,3.8,2.3,4.2,11.3,6.3
		c11.4,2.7,16,5.8,16,13c0,7.9-6.7,13.1-16.9,13.1c-7.5,0-12.9-2.1-19.5-7.9l4.4-4.8c6.1,5.1,10,6.6,15.2,6.6c5.6,0,9.6-2.6,9.6-6.7
		c0-4.2-3.6-5.6-11.8-7.4c-11.8-2.7-15.1-4.7-15.4-11.9c0-7.4,6.7-12.5,16.4-12.5C841.6,39.7,846.4,41.4,852,45.9z"/>
</g>
<g class="st2">
	<path class="st1" d="M900.7,62c0,13.1-8.7,22.3-20.9,22.3c-12.2,0-20.8-9.2-20.8-22.3s8.7-22.3,20.8-22.3
		C892,39.7,900.7,48.9,900.7,62z M866.5,62c0,9.6,5.1,16.1,13.3,16.1c8.1,0,13.4-6.5,13.4-16.1c0-9.6-5.2-16.1-13.4-16.1
		C871.6,45.9,866.5,52.4,866.5,62z"/>
	<path class="st1" d="M944.2,40.9v42.2h-6.9v-5.2c-2.5,4.1-7,6.4-12.8,6.4c-10.2,0-15-5.6-15-13.8V40.9h7.4v27.8
		c0,6.1,3.1,9.3,8.8,9.3c6.5,0,11.1-4,11.1-11.3V40.9H944.2z"/>
	<path class="st1" d="M979.8,41.7l-1.4,6.2c-2.1-0.6-3.9-0.9-5.5-0.9c-5.8,0-9.9,5.2-9.9,13.5v22.7h-7.4V40.9h6.9v6.4
		c2-4.2,5.7-6.9,10.5-6.9C975.1,40.5,977.4,40.9,979.8,41.7z"/>
</g>
<g class="st2">
	<path class="st1" d="M1014.1,52.2c-4.5-4.8-7.9-6.4-12.3-6.4c-4.1,0-7.3,1.5-9.4,4.7c-2.2,3.2-3.3,7-3.3,11.4s1.1,8.2,3.3,11.3
		c2.2,3.2,5.4,4.7,9.6,4.7c4.5,0,7.7-1.6,12.6-7l4.8,4.1c-5.5,6.8-10.3,9.2-17.4,9.2c-12.4,0-20.5-8.8-20.5-22.3
		c0-13.4,8.3-22.3,20.5-22.3c6.9,0,11.8,2.2,16.9,8.1L1014.1,52.2z"/>
</g>
<g class="st2">
	<path class="st1" d="M1062.8,75.6c-6.1,6.4-11.2,8.8-18.4,8.8c-12.8,0-20.8-8.8-20.8-22.1c0-13.2,8-22.6,20.2-22.6
		c12,0,19,7.7,19,20.4c0,1.1-0.1,2.2-0.2,3.3h-31.7c0.4,8.6,5.1,14.9,13.6,14.9c2.7,0,4.9-0.5,6.9-1.5c2-1,4.3-2.8,7.1-5.5
		L1062.8,75.6z M1031.1,57.8h24.4c-0.3-7.5-4.6-12.2-11.8-12.2C1036.7,45.6,1032.2,50,1031.1,57.8z"/>
</g>
</svg>
