<svg id="Layer_1" data-name="Layer 1" xmlns="http://www.w3.org/2000/svg" viewBox="0 0 289.26 12.9"><defs><style>.cls-1{fill:#d21a26;}.cls-2{fill:#fff;}</style></defs><title>shift-cryptosecurity-logo-alt</title><rect class="cls-1" x="276.36" width="12.89" height="12.9"/><polygon class="cls-2" points="287.11 7.75 284.11 7.75 284.11 10.75 281.52 10.75 281.52 7.75 278.51 7.75 278.51 5.16 281.52 5.16 281.52 2.15 284.11 2.15 284.11 5.16 287.11 5.16 287.11 7.75"/><path class="cls-2" d="M5,5.46l-.39-.1C3,5,2.77,5,2.68,4.32s.64-1,1.63-1a3.84,3.84,0,0,1,1.39.24,5.64,5.64,0,0,1,1.4.94L8.44,2.9A6.64,6.64,0,0,0,6.53,1.69a6.22,6.22,0,0,0-2.18-.36C2,1.33.47,2.78.47,4.43s.77,2.24,3.45,2.94l.71.16c1.25.31,1.63.42,1.7,1.06S5.6,9.72,4.56,9.72A3.79,3.79,0,0,1,3,9.4,7.29,7.29,0,0,1,1.36,8.23L0,9.81a7.56,7.56,0,0,0,2.16,1.45,5.92,5.92,0,0,0,2.36.43c2.5,0,4-1.39,4-3.3C8.49,6.64,7.51,6.1,5,5.46Z"/><polygon class="cls-2" points="21.93 5.28 17.95 5.28 17.95 1.57 15.69 1.57 15.69 11.44 17.95 11.44 17.95 7.17 21.93 7.17 21.93 11.44 24.19 11.44 24.19 1.57 21.93 1.57 21.93 5.28"/><rect class="cls-2" x="31.98" y="1.57" width="2.25" height="9.87"/><polygon class="cls-2" points="42.03 11.44 44.28 11.44 44.28 7.56 48.79 7.56 48.79 5.67 44.28 5.67 44.28 3.46 49.13 3.46 49.13 1.57 42.03 1.57 42.03 11.44"/><polygon class="cls-2" points="55.95 1.57 55.95 3.5 58.73 3.5 58.73 11.44 60.98 11.44 60.98 3.5 63.78 3.5 63.78 1.57 55.95 1.57"/><path class="cls-2" d="M82.57,2.72l-1,1.14A3.74,3.74,0,0,0,79,2.72c-1.93,0-3.15,1.51-3.15,3.72s1.22,3.73,3.09,3.73a2.93,2.93,0,0,0,1.39-.3,8.32,8.32,0,0,0,1.45-1l1,1.11A5,5,0,0,1,79,11.61c-3,0-4.81-2.19-4.81-5.17S75.94,1.29,79,1.29A5.09,5.09,0,0,1,82.57,2.72Z"/><path class="cls-2" d="M95.8,11.38,93.31,7.59h-2v3.79H89.61V1.52h4.44a3,3,0,0,1,3.22,3A2.82,2.82,0,0,1,95,7.46l2.6,3.92ZM91.27,6.23h2.5c1.17,0,1.87-.6,1.87-1.67s-.72-1.68-1.89-1.68H91.27Z"/><path class="cls-2" d="M112.14,1.52l-3.49,5.69v4.17H107V7.2l-3.48-5.68h1.82l2.52,4.23,2.52-4.23Z"/><path class="cls-2" d="M123.48,1.52a2.93,2.93,0,0,1,3.23,3,2.92,2.92,0,0,1-3.23,3H120.6v3.79H119V1.52ZM120.6,2.88V6.23h2.6c1.17,0,1.88-.6,1.88-1.67s-.71-1.68-1.88-1.68Z"/><path class="cls-2" d="M140.78,2.92h-3v8.46h-1.64V2.92h-3V1.52h7.63Z"/><path class="cls-2" d="M156.32,6.45c0,2.93-1.86,5.2-4.78,5.16s-4.8-2.2-4.8-5.16,1.87-5.16,4.8-5.16S156.35,3.52,156.32,6.45Zm-7.88,0c0,2.21,1.22,3.71,3.1,3.71s3.1-1.5,3.1-3.71-1.22-3.71-3.1-3.71S148.44,4.24,148.44,6.45Z"/><path class="cls-2" d="M170.59,2.79l-1,1.14a6.76,6.76,0,0,0-1.45-1,4.09,4.09,0,0,0-1.46-.25c-1.21,0-2,.59-2,1.38,0,.6.35.89,1,1.11.32.11.83.25,1.51.41,2.53.62,3.42,1.19,3.48,2.86,0,1.83-1.5,3.13-3.78,3.13a5.69,5.69,0,0,1-2.23-.41,7.71,7.71,0,0,1-2.05-1.36l1-1.15a6.91,6.91,0,0,0,1.73,1.16,3.94,3.94,0,0,0,1.6.32c1.26,0,2.12-.59,2.12-1.58,0-.67-.46-1-1.07-1.21-.3-.1-.82-.22-1.55-.39-2.58-.61-3.38-1.28-3.38-2.83s1.56-2.87,3.65-2.87A5.3,5.3,0,0,1,170.59,2.79Z"/><path class="cls-2" d="M184.67,2.9h-5.11V5.6h4.78V7h-4.78v3h5.25v1.39H177.9V1.52h6.77Z"/><path class="cls-2" d="M199.88,2.72l-1,1.14a3.74,3.74,0,0,0-2.63-1.14c-1.93,0-3.15,1.51-3.15,3.72s1.22,3.73,3.09,3.73a2.93,2.93,0,0,0,1.39-.3,8.32,8.32,0,0,0,1.45-1l1,1.11a5,5,0,0,1-3.78,1.67c-3,0-4.81-2.19-4.81-5.17s1.8-5.15,4.85-5.15A5.09,5.09,0,0,1,199.88,2.72Z"/><path class="cls-2" d="M214.57,8.13c0,2.32-1.37,3.48-3.85,3.48s-3.85-1.16-3.85-3.48V1.52h1.64V8.06a2.21,2.21,0,0,0,4.42,0V1.52h1.64Z"/><path class="cls-2" d="M228.41,11.38l-2.49-3.79h-2v3.79h-1.66V1.52h4.44a3,3,0,0,1,3.22,3,2.82,2.82,0,0,1-2.24,2.9l2.6,3.92Zm-4.53-5.15h2.5c1.17,0,1.87-.6,1.87-1.67s-.72-1.68-1.89-1.68h-2.48Z"/><path class="cls-2" d="M239,11.38h-1.65V1.52H239Z"/><path class="cls-2" d="M253.81,2.92h-3v8.46h-1.64V2.92h-3V1.52h7.63Z"/><path class="cls-2" d="M268.74,1.52l-3.49,5.69v4.17H263.6V7.2l-3.48-5.68h1.82l2.52,4.23L267,1.52Z"/></svg>