<?xml version="1.0" encoding="UTF-8"?>
<!DOCTYPE svg PUBLIC "-//W3C//DTD SVG 1.1//EN" "http://www.w3.org/Graphics/SVG/1.1/DTD/svg11.dtd">
<svg version="1.1" xmlns="http://www.w3.org/2000/svg" xmlns:xlink="http://www.w3.org/1999/xlink" x="0" y="0" width="204.74" height="48.72" viewBox="0, 0, 204.74, 48.72">
  <g id="Layer_2" display="none">
    <g>
      <path d="M-8.5,-6.5 L236.75,-6.5 L236.75,73.75 L-8.5,73.75 L-8.5,-6.5 z" fill="#000000"/>
      <path d="M-8.5,-6.5 L236.75,-6.5 L236.75,73.75 L-8.5,73.75 L-8.5,-6.5 z" fill-opacity="0" stroke="#FFFFFF" stroke-width="1"/>
    </g>
  </g>
  <g id="Layer_1">
    <path d="M204.74,0 L204.74,31.88 L172.87,31.88 L172.87,0 L204.74,0 z M192,5.3 L185.63,5.3 L185.63,12.75 L178.19,12.75 L178.19,19.15 L185.63,19.15 L185.63,26.57 L192,26.57 L192,19.15 L199.44,19.15 L199.44,12.75 L192,12.75 L192,5.3 z" fill="#FFFFFF"/>
    <path d="M16.22,4.09 C17.948,4.811 19.538,5.826 20.92,7.09 L17.63,10.96 C16.596,10.02 15.43,9.235 14.17,8.63 C13.077,8.204 11.913,7.991 10.74,8 C8.31,8 6.74,9.06 6.74,10.53 C6.95,12.07 7.64,12.21 11.44,13.1 L12.44,13.34 C18.67,14.92 21.11,16.25 21.24,20.57 C21.24,25.27 17.47,28.69 11.31,28.69 C9.315,28.738 7.331,28.378 5.48,27.63 C3.507,26.764 1.695,25.571 0.12,24.1 L3.48,20.19 C4.676,21.328 6.021,22.297 7.48,23.07 C8.697,23.612 10.018,23.882 11.35,23.86 C13.92,23.86 15.7,22.86 15.7,21.08 C15.53,19.51 14.61,19.23 11.52,18.48 C10.97,18.37 10.39,18.24 9.77,18.07 C3.16,16.35 1.28,14.57 1.28,10.84 C1.28,6.76 5.08,3.2 10.84,3.2 C12.672,3.169 14.495,3.47 16.22,4.09 z" fill="#FFFFFF"/>
    <path d="M59.9,28.1 L54.35,28.1 L54.35,17.59 L44.52,17.59 L44.52,28.1 L39,28.1 L39,3.78 L44.55,3.78 L44.55,12.93 L54.38,12.93 L54.38,3.78 L59.9,3.78 z" fill="#FFFFFF"/>
    <path d="M84.83,28.1 L79.28,28.1 L79.28,3.78 L84.83,3.78 z" fill="#FFFFFF"/>
    <path d="M121.72,8.44 L109.72,8.44 L109.72,13.89 L120.82,13.89 L120.82,18.55 L109.72,18.55 L109.72,28.1 L104.17,28.1 L104.17,3.78 L121.67,3.78 z" fill="#FFFFFF"/>
    <path d="M158,8.54 L151.08,8.54 L151.08,28.1 L145.53,28.1 L145.53,8.54 L138.68,8.54 L138.68,3.78 L158,3.78 z" fill="#FFFFFF"/>
    <path d="M8.86,39.38 L7.86,40.58 C7.138,39.826 6.144,39.393 5.1,39.38 C3.1,39.38 1.78,40.96 1.78,43.28 C1.78,45.6 3.05,47.21 5,47.21 C5.505,47.222 6.006,47.113 6.46,46.89 C7.011,46.583 7.527,46.217 8,45.8 L9,47 C7.985,48.139 6.525,48.781 5,48.76 C1.93,48.72 0,46.42 0,43.28 C0,40.14 1.89,37.87 5.1,37.87 C6.503,37.858 7.855,38.4 8.86,39.38 z" fill="#FFFFFF"/>
    <path d="M22.77,48.48 L20.15,44.48 L18,44.48 L18,48.48 L16.26,48.48 L16.26,38.11 L20.93,38.11 C21.816,38.039 22.69,38.347 23.336,38.957 C23.982,39.567 24.34,40.422 24.32,41.31 C24.353,42.746 23.363,44.004 21.96,44.31 L24.7,48.43 z M18,43.06 L20.63,43.06 C21.86,43.06 22.63,42.43 22.63,41.31 C22.63,40.19 21.87,39.54 20.63,39.54 L18,39.54 z" fill="#FFFFFF"/>
    <path d="M40,38.11 L36.33,44.11 L36.33,48.49 L34.55,48.49 L34.55,44.09 L30.89,38.09 L32.81,38.09 L35.45,42.55 L38.1,38.09 z" fill="#FFFFFF"/>
    <path d="M51.88,38.11 C53.08,38.015 54.232,38.601 54.861,39.628 C55.49,40.654 55.49,41.946 54.861,42.972 C54.232,43.999 53.08,44.585 51.88,44.49 L48.88,44.49 L48.88,48.49 L47.11,48.49 L47.11,38.11 z M48.88,39.54 L48.88,43.06 L51.61,43.06 C52.84,43.06 53.61,42.43 53.61,41.31 C53.61,40.19 52.86,39.54 51.61,39.54 z" fill="#FFFFFF"/>
    <path d="M70.07,39.58 L66.91,39.58 L66.91,48.48 L65.19,48.48 L65.19,39.58 L62.05,39.58 L62.05,38.11 L70.05,38.11 z" fill="#FFFFFF"/>
    <path d="M86.41,43.3 C86.41,46.38 84.41,48.76 81.41,48.72 C78.41,48.68 76.41,46.41 76.41,43.3 C76.41,40.19 78.41,37.87 81.41,37.87 C84.41,37.87 86.44,40.21 86.41,43.3 z M78.12,43.3 C78.12,45.62 79.41,47.2 81.38,47.2 C83.35,47.2 84.64,45.62 84.64,43.3 C84.64,40.98 83.35,39.39 81.38,39.39 C79.41,39.39 78.12,41 78.12,43.3 z" fill="#FFFFFF"/>
    <path d="M101.42,39.45 L100.42,40.65 C99.953,40.25 99.435,39.914 98.88,39.65 C98.39,39.47 97.872,39.382 97.35,39.39 C96.08,39.39 95.24,40 95.24,40.84 C95.24,41.47 95.61,41.77 96.31,42.01 C96.65,42.12 97.19,42.27 97.9,42.43 C100.56,43.09 101.5,43.69 101.56,45.43 C101.56,47.36 99.98,48.72 97.56,48.72 C96.759,48.732 95.964,48.586 95.22,48.29 C94.429,47.931 93.699,47.448 93.06,46.86 L94.06,45.65 C94.601,46.145 95.211,46.559 95.87,46.88 C96.401,47.104 96.973,47.217 97.55,47.21 C98.88,47.21 99.79,46.58 99.79,45.55 C99.79,44.85 99.3,44.48 98.66,44.28 C98.34,44.17 97.8,44.04 97.02,43.87 C94.32,43.22 93.47,42.52 93.47,40.87 C93.47,39.22 95.11,37.87 97.32,37.87 C98.844,37.822 100.322,38.392 101.42,39.45 z" fill="#FFFFFF"/>
    <path d="M116.22,39.57 L110.84,39.57 L110.84,42.41 L115.84,42.41 L115.84,43.85 L110.84,43.85 L110.84,47 L116.36,47 L116.36,48.46 L109.1,48.46 L109.1,38.11 L116.22,38.11 z" fill="#FFFFFF"/>
    <path d="M132.21,39.38 L131.21,40.58 C130.485,39.825 129.487,39.393 128.44,39.38 C126.44,39.38 125.13,40.96 125.13,43.28 C125.13,45.6 126.41,47.21 128.39,47.21 C128.895,47.222 129.396,47.113 129.85,46.89 C130.394,46.582 130.904,46.216 131.37,45.8 L132.37,46.96 C131.355,48.099 129.895,48.741 128.37,48.72 C125.24,48.72 123.31,46.42 123.31,43.28 C123.31,40.14 125.19,37.87 128.41,37.87 C129.827,37.847 131.195,38.391 132.21,39.38 z" fill="#FFFFFF"/>
    <path d="M147.65,45.06 C147.65,47.51 146.22,48.72 143.6,48.72 C140.98,48.72 139.6,47.51 139.6,45.06 L139.6,38.06 L141.33,38.06 L141.33,45 C141.41,46.225 142.427,47.177 143.655,47.177 C144.883,47.177 145.9,46.225 145.98,45 L145.98,38.11 L147.7,38.11 z" fill="#FFFFFF"/>
    <path d="M162.21,48.48 L159.59,44.48 L157.44,44.48 L157.44,48.48 L155.7,48.48 L155.7,38.11 L160.36,38.11 C161.247,38.036 162.123,38.342 162.77,38.953 C163.417,39.564 163.773,40.421 163.75,41.31 C163.784,42.743 162.799,44 161.4,44.31 L164.13,48.43 z M157.44,43.06 L160.07,43.06 C161.3,43.06 162.07,42.43 162.07,41.31 C162.07,40.19 161.31,39.54 160.07,39.54 L157.45,39.54 z" fill="#FFFFFF"/>
    <path d="M173.38,48.48 L171.65,48.48 L171.65,38.11 L173.38,38.11 z" fill="#FFFFFF"/>
    <path d="M188.92,39.58 L185.76,39.58 L185.76,48.48 L184,48.48 L184,39.58 L180.9,39.58 L180.9,38.11 L188.9,38.11 z" fill="#FFFFFF"/>
    <path d="M204.61,38.11 L200.94,44.11 L200.94,48.49 L199.21,48.49 L199.21,44.09 L195.55,38.09 L197.47,38.09 L200.11,42.55 L202.76,38.09 z" fill="#FFFFFF"/>
  </g>
</svg>
